<svg width="2002" height="1435" xmlns="http://www.w3.org/2000/svg" xmlns:xlink="http://www.w3.org/1999/xlink"><defs><path id="a" d="M.6.4h66.9V100H.6z"/><path id="c" d="M.7.1H167V86H.7z"/><path id="e" d="M.8.2h182.5v247.4H.8z"/><path id="g" d="M.7.4h163.6V188H.7z"/><path id="i" d="M.6.3h105.7v184.6H.6z"/><path id="k" d="M.9.8h171.4v162.4H.9z"/><path id="m" d="M0 .8h271v261.3H0z"/><path id="o" d="M0 .5h45V81H0z"/><path id="q" d="M0 1h82.7v224.7H0z"/><path id="s" d="M.4.8h150v203.9H.4z"/><path id="u" d="M.5.8H172v84H.5z"/><path id="w" d="M.8.8h109v127.1H.8z"/><path id="y" d="M.5.8h124.1v110.5H.5z"/><path id="A" d="M0 .8h91v75H0z"/><path id="C" d="M.3.7h107v118H.3z"/><path id="E" d="M.4.8h246.2v88H.4z"/><path id="G" d="M.7.8h199v55.5H.7z"/><path id="I" d="M.2.8h139.5v114H.2z"/><path id="K" d="M.3.8h167.5v218.9H.3z"/><path id="M" d="M1 0h171v82H1z"/><path id="O" d="M1 .3h62.8V39H1z"/><path id="Q" d="M.3 1h208.2v350H.3z"/><path id="S" d="M0 .2h139.4V92H0z"/><path id="U" d="M0 .6h208V109H0z"/><path id="W" d="M.3.9h103v179H.3z"/><path id="Y" d="M.9.8h53.3v157H1z"/><path id="aa" d="M.4.7h135.8V98H.4z"/><path id="ac" d="M.8.9h178.8V225H.8z"/><path id="ae" d="M.8.5h150.5V115H.8z"/><path id="ag" d="M.9 0h228.4v168.7H.9z"/><path id="ai" d="M.8.6h75.5v71.9H.8z"/><path id="ak" d="M.1.5h104.2v182.6H0z"/><path id="am" d="M.9 0h114.6v132H1z"/><path id="ao" d="M.8 0h150.6v103H.8z"/><path id="aq" d="M.8.6H87V49H1z"/><path id="as" d="M.8.8h238V221H.9z"/><path id="au" d="M.3.8h106.5V152H.3z"/><path id="aw" d="M1 .8h373.9v229.6H.9z"/><path id="ay" d="M.4.8h159v247.9H.3z"/><path id="aA" d="M0 .1h78.5v74.4H0z"/><path id="aC" d="M0 .7h76.8v70H0z"/><path id="aE" d="M0 .5h69v108.2H0z"/><path id="aG" d="M.2.6h104.3V54H.2z"/><path id="aI" d="M.1.4h79.5V119H0z"/><path id="aK" d="M.5 1h192.8v180H.5z"/><path id="aM" d="M.7.7h137.6v91.4H.7z"/><path id="aO" d="M1 .8h104.3v115.6H.9z"/><path id="aQ" d="M0 0h243.5v217.7H0z"/><path id="aS" d="M1 0h175.3v137.2H.9z"/><path id="aU" d="M.9 0h213v188H1z"/><path id="aW" d="M1 0H49v82H1z"/><path id="aY" d="M.3.7h137.3V130H.3z"/><path id="ba" d="M0 .8h38.2V55H0z"/><path id="bc" d="M0 .8h129.7V123H0z"/><path id="be" d="M0 .1h152.8V100H0z"/><path id="bg" d="M.4 0h170.9v132H.4z"/><path id="bi" d="M.6.8h147V112H.5z"/><path id="bk" d="M.3.2h87V71H.3z"/><path id="bm" d="M1 .2h354.3v248.6H.9z"/><path id="bo" d="M.1.6h103.2v138.2H0z"/><path id="bq" d="M.1.7h183.2v178H0z"/><path id="bs" d="M1 .8h104.3v148.8H.9z"/><path id="bu" d="M.4.8h410v180.7H.3z"/><path id="bw" d="M0 .6h54.8v90.2H0z"/><path id="by" d="M0 .1h139.3v376.2H0z"/><path id="bA" d="M.2.8h186.6v136H.2z"/><path id="bC" d="M1 .8h246.9v255.8H.9z"/><path id="bE" d="M0 .5h104.5V154H0z"/><path id="bG" d="M.3.8h160.6v176H.3z"/><path id="bI" d="M0 .8h104.7v108.9H.1z"/><path id="bK" d="M.9.9h226V233H1z"/></defs><g fill="none" fill-rule="evenodd"><path fill="#03DAC6" d="M0 1434.3h2001.3V.1H0z"/><path fill="#FFC4BC" d="M1121 1318.6h-75.8v-142.1h75.7l21 99.8z"/><path fill="#33333D" d="M0 741l98.2 21.8L118 652.6l-8.2-120.2L0 502.4zM1729.4 17.9l-57 102.4-11.3 34s-29.5 97-29.1 97.3c.3.2 47.1 60.6 47.1 60.6l54.9 12 102-60.5-38.2-155-68.4-90.8z"/><path fill="#EDE8D7" d="M300 1029.6l-42-9-6 26.3 41 12.9zM999 1279.3l39-25.5 51.3 88.4s-62.5 34.6-60.1 25.6c3.1-12 12.9-39.6 3.6-45.4-5-3.1-8.9 1.2-11 7.4-2.4 6.5-4.5 14-4.5 14l-14.6-41.7-15.8-12.1 12.2-10.7zM961.2 1326.4c-2.8 1-37.3 28.3-37.3 28.3l7.3 33.8 44.3-11.7 14-45.4-28.3-5zM1117 1199.7s7.7 18.4-13.8 35.4c-5.2 4.2-9.5 8.4-8.5 11.3 1.2 3.3 7.8 2.6 11 1 6-2.8 14.5-2.5 18 4.2 4.8 8.7 0 16.9-5.7 20.7-8.2 5.5-19.9 6.3-18.8 10.4 1 4 14.4-4.4 21.7 4 7.4 8.6 0 32 0 32s16-33.3 32.3-46c16.3-12.7 25.8-81 25.8-81l-48-13.8-14 21.8z"/><g transform="translate(816 1334.3)"><mask id="b" fill="#fff"><use xlink:href="#a"/></mask><path d="M.6 4.4s9.9 10.4 24-1.6c14-12 42.9 25.3 42.9 25.3l-9.3 69.1-24.1 24L.6 98V4.4z" fill="#EDE8D7" mask="url(#b)"/></g><path d="M756.6 1375.2s10-44.5-10.3-51c-20.3-6.7-30.3 23.8-30.3 34.7 0 11-11.5 15.6 0 21.2a213 213 0 0 1 32 18.3c26.5 17.5 8.6-23.2 8.6-23.2M778.3 1331c-11.7-1-11.8 23.4 0 23 11.8-.3 14.5-21.7 0-23M1373.5 1224l-17.2 34.2-100.5-23.3-2-78.3 41.2-22.1 27 3.9s16 1.7 22.1 10.7c30.7-13 29.4 74.8 29.4 74.8M1410.8 1220l-11.4 10.3 4.6 23.5 10.2-4.3 16.6-21zM1617.2 1204.6c-2.8 20.2-22.3 59.6-8.7 97.8 13.5 38.2-5.7 51.2-5.7 51.2l78.9 24.3 32.2-57.4-35-82.4-17.9-57-18.4-40.8h-65.3l-8.5 33.2 48.4 31.1z" fill="#EDE8D7"/><g transform="translate(1705 1348.3)"><mask id="d" fill="#fff"><use xlink:href="#c"/></mask><path d="M106.7 96s6-58 60.4-49L162 24.4.7 0l37 99.3 69-3.5z" fill="#EDE8D7" mask="url(#d)"/></g><g transform="translate(1818 1144.3)"><mask id="f" fill="#fff"><use xlink:href="#e"/></mask><path d="M84.3 247.6l23.4-10c1.7-19.3-43-34.5-35.9-52.4 7.1-18 81.9 14.5 111.5 41.5 29.6 27 16.5-46.7 16.5-46.7l-40-20.4-29 3.4L88 135.8 79.1 108 96.3 60 96.8.2 26.2 66.5l17 28.7 1 17.6L.8 189.4l61 55.7 22.5 2.5z" fill="#EDE8D7" mask="url(#f)"/></g><g transform="translate(1837 984.3)"><mask id="h" fill="#fff"><use xlink:href="#g"/></mask><path d="M90.5 48.2s16.5 6.8 23 9.8a195 195 0 0 0 13.7 5.6l71.8 66.6-8.3 45.5H126L71.8 160l-53.5 28L6 153.8 56.7 66 .7 54.6 5 17 42 .4l18.1 34.3 30.4 13.5z" fill="#EDE8D7" mask="url(#h)"/></g><path d="M1716.1 949.4l19.2-16.5s12.6 7.8 20.5 12.4c9 5.3 17 6.3 20 .8 3.4-6.4-.6-11.1-14.4-20.2-6.5-4.3-7.4-4.5-13.6-9.5l12.6-28.2 46-.8 32.5 43.8-53.5 80.9-65.4-25.6-3.9-37z" fill="#33333D"/><path fill="#EDE8D7" d="M1767.9 804.4l-60 15 8.2 48.8 51.8 20 21.4-.8 16.2-16-31-57.2z"/><g transform="translate(1895 651.3)"><mask id="j" fill="#fff"><use xlink:href="#i"/></mask><path d="M41.7 35.4l-9.3 30.4L.6 107.4l1.6 22.3v28.5l131.5 26.7-3.5-17.3-1.7-147s-20.3 1.7-16.7-5.7C115.4 7.6 69 .3 69 .3l-27.3 35z" fill="#EDE8D7" mask="url(#j)"/></g><path d="M1842.2 678c-19.5-7.5-29.8-17.6-24-45.8 5.8-28.3 97 4.1 97 4.1s-14.3 16.3-27 21.6c-12.9 5.2-46 20-46 20" fill="#423D89"/><path fill="#EDE8D7" d="M1623.3 687.4l25.7-9.5 65.6 21.1 17.7-62.2 45-45.4-9.4-35.7-123.3 80.1zM1545.3 619.1l1.7 52.6 38.4-17.2 81.3-59.4-2-31.2-58.7 22.3-45.5 28.5-15.2 4.4zM1528.6 513.7c0 26.3.9 37.7.9 57.2 0 19.4 36.9-8.7 36.9-8.7l48.7-21.4 1.7 26.6s13.3 5.4 32.7-18.4c19.4-23.7 35.4-38.4 70.5-65.8 35.2-27.5 60.7 10.1 60.7 10.1L1773 474v-13.7l-6.7-14.4-55.6 14.1-40 11.2s-4.4 21.3-23.7 14c-6.6-2.7-12.3-4.6-19.2-7.5-13-5.5-25.9-11.6-25.9-11.6l-67.6-6.8-5.6 54.5z"/><path d="M1668.3 466c5.1-13.7 7-22.7 10.8-46 3.7-23 65.4-20.2 65.4-20.2l6.5 10.7 4.2 35.3L1695 471l-26.7-5.1z" fill="#EDE8D7"/><path d="M1660 430.2c3.8-20.5 8.8-49 23.8-67.9 13.9-17.3 36.8-26 62.8-26 0 0-4.3-62 74.3-62l15.1-10.6-14.4-.8s-46-5.7-67.7 25.7c-21.6 31.5-54.8 25-69.3 18.6-20-8.9-23.5 22.4-23.5 22.4l-29.1 55.6 28 45z" fill="#EDE8D7"/><path fill="#FFC4BC" d="M1526.9 184.7V210l-6 8.4-20.4 5-10.2 2.3 3.4-23z"/><path d="M1597.6 195c10.1-3.4 29.6-11.5 34.4 1.5 4.7 13-14 25.8-24 39-5 6.7-10.5 14-9.2 20.8 1.9 10.5 9.7 12.7 17.6 12.7 11.7 0 17.3 3.7 17.3 11.2v23.4s39-6.4 39-13.6c0-10-2-16.3-13.4-27.5-11.6-11.3-17-30.6-9.8-45.6 7.8-16.4 28.5-24.7 50.4-43.8 8.9-7.8 18.8-17.2 17.6-32a19.3 19.3 0 0 0-13.2-16.1c-12.1-4.4-17.2-3.2-23.9-12.5-11.7-16.3-27.2-10.6-27.2-10.6l-26.3 37.6-23.6 15-13 24 7.3 16.5zM1876.5 274.4l35 9 50.6-21-9-29.8h-63.5l-17.5 32.2z" fill="#EDE8D7"/><g transform="translate(1829 304.3)"><mask id="l" fill="#fff"><use xlink:href="#k"/></mask><path d="M5.2 137.6l3.3 25.6 58-27.6S46 123.6 45 97.8c-1-25.7 25.2-64 65.8-55.8 43.7 8.9 49.6 47.3 40.7 86.8-9 39.6 52.2-20.6 52.2-20.6l2.2-85L102.8.7 47.5 13 29.4 56 .9 48.9l4.3 88.8z" fill="#EDE8D7" mask="url(#l)"/></g><path d="M1201.8 204.5c28.3-17.3 81.9-38.7 160.5-13.4 78.6 25.3 38-111.3 38-111.3L1380 47h-197.8l-61.4 62 20.4 100.2 60.7-4.8zM1021.2 161.4c.5 0 35.6.2 36.1 0 .5-.3 6.2 34.9 6.2 34.9s-1.3.4-11.5.2-20.5-1.2-20.5-1.2l-.2-4.2 3.4-8.4c.8-2.3.5-2.8.3-2.9l-19-8 5.2-10.4zM991.9 352.3c10.7-8.5 15.4 4.1 45.1-19.2 29.8-23.4 93.3-77.1 93.3-77.1l-106.2 4.2-64-10.9-46.8 85.8s6.5 26.8 7.3 26.8c.8 0 71.3-9.6 71.3-9.6M858.7 412.7v15.1s-2 .6-6.7 1.6c-4.5 1-44.3-25.3-43.3-25.5l94.7-28.3 8.4 23-28.2 17-24.9-2.9zM868.6 573.4l5.9-.4 12-1.7 15-1-8.8 23.5-65.9 30-1 48.6 121.4-29.7-.7 23s-39.3 18.7-43.2 61.5c-2 21.1-1 39.2-5.6 48.4-9 17.6-23.2 21.8-31.5 35-20.7 33.4-5.3 74.5-5.3 74.5l-46.8-47-88.2-145s49-9 69.4-79.8c33.3-44.2 73.3-39.9 73.3-39.9M529 644c1.7.8 104.5 8.6 104.5 8.6s32.8-22.8 50-49.7c17-26.8 46.9-42 59.8-45.5l6.6-13.7-4.6-18-32.5-12.5-1.1 24.6 14.8 11.8-71.7 29-74.7 8.6-54.6 39.9L529 644z" fill="#EDE8D7"/><path d="M591.8 553c44.5 3 90.7-11.8 105.8-26.2 15.1-14.3 33.4-34 33.4-34l-33.8-7.6-11.9 7.6-3 12.3.7 12.5s-34.2 19.4-80.8 19.1c-5.3 0-3.6-5.4-9.4-6-85.4-7.4-38.2 24.3-38.2 24.3l37.2-2z" fill="#EDE8D7"/><path d="M586.7 427.4c-12 25.9-14.5 48.6-3.2 67 16.5 27.2 77.4 31.8 89.5-5.7 13.2-40.7 26-78 46.2-102.5 0 0-45.9-2-84.7-14-28.6-8.7-37.4-18.3-54.3-29.5-14.4-9.5-13.8 47.2-13.8 47.2s7.3 23.6 8 23.8c.8.3 12.3 13.7 12.3 13.7" fill="#423D89"/><path d="M301.9 396.2c1-15.9-12.6-30-32.9-29.1-20.3 1-47.6 19.1-47.6 19.1l12.8 93.4 61.6 31.4s-14.8-25.9 8.3-8.5c23.2 17.4 78.2 64.4 118.7 54.5l3-28.8s-25 12.3-57.5-6.9c-32.4-19.1-14.1-49.3-7.3-57.5 13.1-16 7-42.8-17-41.4-24 1.4-32-25.9-32-25.9l-10.1-.3zM196.3 529.2l-20.6-4.7-20.8 83 88.6 39.4 47.7-12 4.1-34.2-66-23zM226.1 776.6c55.5-23 222.6-77.7 222.6-77.7l-103.5 7-95.8-18.7-51.4 44.7 13.8 43.3 14.3 1.4zM240.5 916.8s-2.7 1.3-5.7 6.3c-4.3 7-10.6 19.3-21 27.4-15.8 21.7 38.1 96.4 38.1 96.4l52.5-23.6 6-48.6 6.6-3.4-11.4-33.2-65-21.3z" fill="#EDE8D7"/><path d="M200.8 932.3c13-10.7 47.4-94 116.2-98.4 68.8-4.4 32.6-39.7 63.5-30.9 30.8 8.8 60.3-1.4 60.3-1.4l133.3-73.8-26.7-18-346.6 142.5-21.3 73.3 21.3 6.7z" fill="#423D89"/><path fill="#EDE8D7" d="M311.6 961.2l7.3 11.8 203.5-57.6-4-12.5-173-15.6-43.2 61.3z"/><path fill="#EDE8D7" d="M537 835.2l-10.4 49.6-.7 9.9-52.5 4.2-1.1-13.8zM505.7 799.6l28.7 6.5s-30.2 30.1-31 29c-.7-1-17.1-10.5-17.1-10.5l19.4-25zM571.6 832.6L549.5 882l37-8.2 69-13.6 31.8-34.3-6.7-30.7-51.6-6.2 1.5 35.9-6.9 13.5s-6.7 4-10.1 1c-3-2.6-8.3-8-11.9-10.9-7.5-5.9-30 4.2-30 4.2M587 905l2.7 19 25 53 21.6 2.4 33.2 1.7 1.6-51-42-49.1zM453.6 932.3l-10.8 78.4s-49.2-57-91.7-39.8l3.2-17.7 99.3-21zM250.6 1276.3H219l-27.7 45.1 23.3 19.2 27.3-14.7 10.1-33.5z"/><g transform="translate(0 1117.3)"><mask id="n" fill="#fff"><use xlink:href="#m"/></mask><path d="M154.7 175.9c-31.6 3.1-57.2 6.5-56.2-11.6 1-18.2 39.7-15.9 45.4-51.6 4-25.8-21.8-39-47.5-23.6-23.2 13.9-88 60.8-78.9 96.3 4 15.6 16 18.7 28.2 17.7 10.7-.8 32.5-.6 32.5 13.7 0 42.4-29.8 45.3-29.8 45.3s2.4-4.6-8.4-9.6a75.5 75.5 0 0 0-53.7-28.4l8.8-64s74.5-96.5 127.4-92.2L168.1 21s1.7-.5 12.3-1.7C190.9 18 213.3.8 213.3.8l46.4 1.3L271 66l-21.3 50.8-95 59.1z" fill="#EDE8D7" mask="url(#n)"/></g><g transform="translate(0 1353.3)"><mask id="p" fill="#fff"><use xlink:href="#o"/></mask><path d="M-9.3.5S9.3-.7 31.8 26.8c22.4 27.4 9.4 37.5 9.4 37.5S-8 93.9-9.3 92.2c-1.3-1.8 0-91.7 0-91.7" fill="#EDE8D7" mask="url(#p)"/></g><path fill="#EDE8D7" d="M562 1156.6l90.8-29.3 2 54.4zM824.5 1195.5s80.5-69 80.5-32.5l27.5-6.4 65.6-51 11-18.1-30.7 7.2-156.5 45.4 2.6 55.4zM16.1 898.9l47.6 21.8-1.3-47.4zM184.5 328.2c-25.5-19.4-54.8-14.4-54.8-14.4l10 84.3s19.8-25.3 54-17.7l12.5-28s12.6 2-21.7-24.2M103.3 342.7H40c-5.7 0-7.4 3-7.4 8.2v61l74.3 7.6 22.8-11.5.2-12.2-26.6.2v-14.8l1.8-19.7-1.8-18.8z"/><path d="M89.2 334c0-21.4-10.7-26.2-30.7-47.6-15.3-16.3-3.6-64-3.6-64l87.6 22.6 14 1.8 24.7 44.4 18.5 53L89.2 334z" fill="#EDE8D7"/><g transform="translate(0 68.3)"><mask id="r" fill="#fff"><use xlink:href="#q"/></mask><path fill="#EDE8D7" mask="url(#r)" d="M-14.5 225.7h37.8l59.4-57.6L44.2 10 13.7.9l-41.3 24.8z"/></g><path d="M386 110.6l13.5 18s39 1.3 39.6-1.4c.6-2.6-7.8-76-7.8-76h-47.5l-4.6 50.2 6.8 9.2z" fill="#EDE8D7"/><g transform="translate(609 -.7)"><mask id="t" fill="#fff"><use xlink:href="#s"/></mask><path d="M73.3-12.1L57.5 38.7.4 164.5l92-7v31c0 12.5 6 16.2 20.6 16.2 14.6 0 3.1-25.4 3.1-25.4l34.3-86.8-29-129.4-48.1 24.8z" fill="#EDE8D7" mask="url(#t)"/></g><path d="M1053.7 723.8V674c0-15.7 31.2-27.8 28.6-55.1-2.5-27.3 32 19.3 32 19.3L1105 687l-19.7 23.3-31.6 13.6zM1149.7 615c-10.9-13.7-34.5-40.3-27.4-61.3 4.6-13.6 18.5-14.6 31.4-22 7.1-4.1 14.2-8.1 18.6-22 12.6-38.9 7.2-61 45.1-82.2 38-21 14.2 16 14.2 16l75.2 46.8s-22.3 19.5-46.9 42c-24.6 22.4-37.5 19.6-61.9 34.6-30.8 18.9-48.3 48.2-48.3 48.2" fill="#EDE8D7"/><path d="M1240.8 419.8c29.7-2.7 44-8.7 44-8.7s20.1 20.6 22 58.9c2.3 46.4-76.6-24.4-76.6-24.4l10.6-25.8zM1305 399.9c19.7 26.4 23.1 54.3 20.8 80.9L1380 455l9.4-68.3-27.1-51.7s-31.6 40.9-57.4 64.8" fill="#EDE8D7"/><path d="M1394.6 574.2c-18.3-1.2-32.6-5.8-38.5 14.9-5.9 20.6-2.4 31.4 1.8 53.6 4 21.3 3.1 34 13.8 42.8a56.3 56.3 0 0 0 46.1 14.1 60.5 60.5 0 0 0 40.2-21.8c26.8-32.4-1.6-68.8-1.6-68.8l-61.8-34.8z" fill="#423D89"/><path d="M1282.7 881.1l-28.8-16.5-42.5 9.8s5 49.2 5.5 49.2l53.7-1.1 12.1-41.4z" fill="#EDE8D7"/><path d="M1275.8 874l5.5 7.8 15 3.3s26-9 42-31.7c15.8-22.7 47.9-49.3 90-49.6 42-.4 76.8-48.8 76.8-48.8s-24 7.1-27.8-9.9c-3.7-17-7-38.8-26.3-39-8.2 0-14.3 7.6-17.4 15.4-4.3 10.9-7.3 23.7-26.3 24.4-13.5.4-17.8 0-35.6 5.4-17.9 5.4-44.8 3.7-44.8 3.7l-40.5 62.4-10.6 56.6zM1412.9 916.2c5.9-7.6 15.4-18.7 15.4-18.7s-2.5 15.1 8.9 20.8c11.4 5.7 42.3 6.6 42.3 6.6l-16.1 57.7-67 65.4s-11.8-24.3-12.9-25.2c-1-1-39.6-21.7-39.6-21.7l8.3-22.6 49.6-59.8 11-2.5z" fill="#EDE8D7"/><path fill="#EDE8D7" d="M1506.3 956l37.8-25.4-16 54.1-43.4 61 8.5 24-32.6 9-62.6-20.6-4.4-10 93-67.7zM1315 906.6v29l-70.6 104.1-.4.1v.5l-.8 1.1-35 21.2-43.9 26.7 55.9-123.3zM1120.3 1060.6l-.9.9M284.1 499.6l54-19.6 31.1 79.1-33.6 8.8L302 529z"/><g transform="translate(413 -.7)"><mask id="v" fill="#fff"><use xlink:href="#u"/></mask><path d="M.5-6.7s93.2 107.2 112.3 89.5c19-17.8 24.4-20.4 43.3-46.3 19-26 15.7-69.1 15.7-69.1L.5-6.6z" fill="#FFC4BC" mask="url(#v)"/></g><g transform="translate(538 -.7)"><mask id="x" fill="#fff"><use xlink:href="#w"/></mask><path d="M.8 94.7C22.5 72 66.5 41.3 58.9-12.1L106.5-8S124.2 101.2 77 118.5C29.5 135.8 11 124 11 124L.8 94.7z" fill="#FFC4BC" mask="url(#x)"/></g><path fill="#FFC4BC" d="M170.6 157.2v-33.7l127.9-42 1.7 37.3z"/><g transform="translate(298 -.7)"><mask id="z" fill="#fff"><use xlink:href="#y"/></mask><path d="M45-12.1s18.7 23.6 0 39.8C26.5 44 .6 44.2.6 82.1L88 111.3v-7.1c0-4.7 2.2-8.2 4.2-10.8 1.8-2.2 3.4-5 3.4-7.6 0-5.9-2.1-23.5 13.1-23.5S124.6 79 124.6 79l-9.1-25.6-60.7-78.1L45-12.1z" fill="#FFC4BC" mask="url(#z)"/></g><g transform="translate(0 -.7)"><mask id="B" fill="#fff"><use xlink:href="#A"/></mask><path fill="#FFC4BC" mask="url(#B)" d="M-31 75.8l89.5-7.6L91-22.1-11.9-8.6z"/></g><path d="M123.6 316.2c11.1-2.4 13.4-12 12-20.7-1.5-8.7-6.7-16.4-17.6-16.4-11.4 0-16.4 8.7-16.2 17.9.2 8.1 4.7 16.8 9.6 19.2 7.7 3.8 7.5 16.4 7.5 16.4l4.7-16.4zM260.3 566.5l-26.6-3.8c-14.7-5.2-20.7-22.3-8.4-40 9.7-14 26.9-9.8 32.2-5.4 5.3 4.4 18 28.7 18 28.7l-15.2 20.5zm57-41c-9.3-22.7-18.8-34.5-40.8-31.6-22 3-63-1.1-63-1.1s-19.7 20.4-26.6 34.3c-6.8 13.9-6.4 30.2 8.1 38.7l83.3 49.4 19.4 4 46.2-62.5s-17.4-8.4-26.6-31.2zM460.3 705.3L569 727.8l53.3-56.8s-2.8-19.6-17.5-38c-14.8-18.2-41.6-24.9-65.5 2.3-23.8 27.2-50.5 49-50.5 49l-28.5 21zM62.4 873.3v46.8s56 26.3 103.3 22.4l9.6-17.3-77.1-73-35.8 21.1zM207.7 784l-6.9 148.3-25.5-51.7-9-77 18.8-56.3 20.9 14zM85 625.6l33-2.6 27.6 26.7-5.8 85.8 3.4 118-65-18.3-20.8-10.4-5.6-64.1-14.9-11.8 9.4-21.3 34.6-8.5 17.3-36zM267.4 783c-.7 3.6.3 9 5.2 11.2 7.7 3.5 13.5 5.5 20.1 10.2 14.8 10.5 19.4 20 30.7 45 11.2 25.1 10 28.4 39.4 41.7 15.5 7 43.8 19.3 77.5 23.7 26.3 3.4 55.7 0 73.4-3.3 14.3-2.7 4.8 1 16.8-1C584.8 902 663.1 867 663.1 867s-9-14.8-38.5-12c-29.4 2.6-55.6 27-98.8 35-43.3 8-90.3-.2-90.3-.2s-84-25.3-93.1-47.2c-9.2-22-23.2-45.9-43-58.5-19.6-12.7-30.8-7.1-32-1M803.2 742.6s-3.7-10.7-2-20.9c1.8-10.5 9.3-20.5 23.7-20.4 13.8.2 22.7 8.9 24 19.3 1.5 10.9-3 21.2-6 28-3.7 8.3 12.2-7.4 23.3 2.1 11 9.6 9.6 29.7-9.9 44.3-19.4 14.7-2.4 19.5-10.4 40.5-8.1 21-21 49-21 49l-41.3 32-30-67.3-8.3-85.9 33-35 25 14.3z" fill="#FFC4BC"/><path d="M918.5 862l1.9 15.5 49.4 21.4h38.3l36.2 40.4 93.4-108.6 26.7 24.8 33.6-73s1-10.2-8.2-20.4c-6.4-7.1-24.7-11-24.7-11s15.4-13.8 24.3-29.7c8-14.4 13-29.8 12.2-39.8-2.5-34.1-51.9-66.5-51.9-66.5l-13.5 11.7s-53.5 77.2-51.4 128.4c0 0-26.5-17.6-60.4 1.4-34 19-11.8 11.3-18.7 24.7-15.1 28.9 8.9 64.7-8.7 83.3-8.9 9.4-25.3 11.4-37.7 8.4-14.6-3.5-24.5-13-24.5-13l3.3-28.1-19.6 30z" fill="#33333D"/><path d="M1237.8 842.3c0-11.3-12.1-12.9-16.4-8.1a11.7 11.7 0 0 0 5.4 18.9c8.3 2.3 15-.7 15-.7l-4-10.1z" fill="#423D89"/><path fill="#FFC4BC" d="M1270.1 874l-5.7 18.4 20.6 3.8-4.8-22.2zM1399.4 1043l70.5-103.4 21.5-4-21.5 80.5-23.6 20-43 9.8z"/><path d="M1266.3 1101s41.1 21.1 77.8-3c25.8-17 27.7-19.1 47.5-41.7 19.8-22.7-26.6-46.1-26.6-46.1l-19.3 2.4-73.5 85.2-6 3.2zM1374.8 1232.9s15.4 9.6 23.2 2.2l21-41 113.3-84.5-14.3-.2h-63.4l-73.7 66.3-6.1 57.2zM1490 1303.6s25.3 16 48.3 2c15.7-9.4 27.5-27 21.2-49.7 3.8-22.5 0-78 17.8-95.5 9.8-9.6 24-12.5 35.6-8.4a57.9 57.9 0 0 1 23.3 17.2c5 6.2 22.5 0 41.2 5.2 20.4 5.7 35.9 14.2 35.9 14.2l-10.3-60.9s-47.5 2-74.3-23.2L1544 1131l-41 39-6.7 74.6-6.3 59.1z" fill="#FFC4BC"/><path d="M1647.8 1194.1c12 35.3 14 105.2 39.4 129 25.4 23.9 2.2 0 2.2 0l29.6-33.2s-15 .7-16.6-10.8c-1.5-11.4 15.3-20.5 15.3-20.5s-14.1-11.8-21.8-35.7c-8.1-25.4-2.3-35-2.3-35l-31.5-11.4-14.3 17.6zM1771.5 1260.9c1 10.3-20.3 27.4-20.3 27.4l70.4-10s-18.8-6.6-34.8-23.2c-10.5-10.9 0-15.6 0-15.6l-15.3 21.4zM1826 1232.5s2.9 7.7 10.4 8.7c7.6 1 19.3-4 20.6 1.6 3.6 14.8-15.4 22.7-15.4 22.7s20.8 3.4 28.9-24.3c8.1-27.7-1-45.1-8.8-45.8-7.8-.7-35.8 37.1-35.8 37.1M1779.1 1122c-5 35.3-3 54.1 1.3 60.7 5.6 8.4 13.6 20 21 29.4 4.8 5.9 8.7 7 14.8 8.2 10.2 2 28-22.7 28-22.7l-8-103.8h-43l-14 28.2z" fill="#FFC4BC"/><g transform="translate(1894 129.3)"><mask id="D" fill="#fff"><use xlink:href="#C"/></mask><path fill="#FFC4BC" mask="url(#D)" d="M10.6 16.6l3.8 58 48 38.3 55.5 5.8L115.3 5 .3.7z"/></g><g transform="translate(1729 -.7)"><mask id="F" fill="#fff"><use xlink:href="#E"/></mask><path d="M25.3-10.8L.4-7.8l20 51.7s80.3 63.5 67.3 39.4-19.1-61.7-1-63.3c13.3-1.2 13.6 16.5 19 30 4 10 10 11 13.8 10.6 7.1-.7 12-5.3 11.9-19.2-.3-24 20.6-28.3 28.9-21 7.4 6.7-2.5 14.6 4.3 22a12.3 12.3 0 0 0 14.7 1.7c4.5-3 7.1-8.6 13.7-8.7 4-.1 9.6 4.6 10.5 9.8.8 4 2 9.6 4.3 13.7 3.9 7 11.7 10.5 19.7 9.3 9-1.4 16.6-6.7 18.6-16.2 2.8-13-6-28.8-28.6-28.6 0 0 19.6-20.2-5.3-40.7C187.4-38 25.3-10.8 25.3-10.8" fill="#FFC4BC" mask="url(#F)"/></g><path d="M1500.5 223.4l26.4-38.7s-36-13.8-39.8 0c-2.8 10-5.7 19.3-6.1 44l19.5-5.3z" fill="#EDE8D7"/><path d="M1462.1 223.4c0-13.2 0-34.6 11.7-58.8 15.4-32-24.8-28.2-24.8-28.2l-51.4 84 35.1 3.4 36.7 10s-7.3 2.7-7.3-10.4" fill="#FFC4BC"/><path d="M1208.2 373.5S1327.9 268 1359.5 242c31.6-26 46.8-31 46.8-31h-66l-74.9-4.9-75.5 32.4L1039.6 363 989 429.5s4.2 40 33 30.5c30.8-10.2 57.2-28.6 57.2-28.6l10.5-50.7 113.6-45.1 5 37.9zM682.3 504.7c0-25.4 27.3-97.9 58.1-125.6 30.8-27.6 57.3-29.5 72.2-19.6 15 10 43.3 4.4 68.6-3.7 25.3-8 30.3-10 30.3-22.7V221.7s62.4-37.7 82.2-18c6.4.7 26.9 6 26.9 6s-4.8 7.3-.4 16.8c.3.6-1.1 1.3-.7 2 .6 1 1.5 1.9-.2 3-8.8 5.4-42.2 10.5-42.2 10.5l-43.8 52.2s-8 14-8 35.3v39.7s-7.2 4.5-34.7 14.5c-23.7 8.6-61 19.3-71 22-1.7.4-1.9 0-1.9 0l-42.4 8.3-58.8 66.5-23 5.6-7.5 6.5-3.7 12.1zM1043.4 213c-3.6 2.8-6.1 6.8-4.5 13.9 1.7 7.1 39.6 20.4 39.6 20.4l20.3-26.2s24.6-66 61-82.6c34-15.5 93.4-16.3 117.6 33.4 1.6 3.4 2 4 3.4 8l18.2-.3s-1-4.8-6.2-14.8c-8.7-16.6-26-40.4-56.6-48.7-23-6.2-61.1-5.3-84.6 6.7-23.2 11.8-32.2 12-32.2 12l-37.7 56-16 14.5s-4.5 4.3-22.3 7.7" fill="#FFC4BC"/><g transform="translate(1074 -.7)"><mask id="H" fill="#fff"><use xlink:href="#G"/></mask><path d="M1.2-13.2s-7.9 38.3 37.7 60.5c45.6 22.2 118-3.8 118-3.8L199.6-10 1.2-13.2z" fill="#FFC4BC" mask="url(#H)"/></g><path fill="#FFC4BC" d="M1362.4 62.4l-38.3 22.8 26 45 11.3-6.2 28.9-28.7 44.5-20.1-23.5-38.7-44 8.1z"/><g transform="translate(901 -.7)"><mask id="J" fill="#fff"><use xlink:href="#I"/></mask><path d="M123 36.5c26.8-36 13.2-59.7 13.2-59.7L21.8 9.1.2 36.6l20.6 53 64 25.2 36.4-49.3 1.8-29z" fill="#FFC4BC" mask="url(#J)"/></g><g transform="translate(721 -.7)"><mask id="L" fill="#fff"><use xlink:href="#K"/></mask><path d="M27 98.7v7.6c0 23-23 4.4-25.5 21.6-2.7 18.6 0 66.3 0 66.3L1 204.7l48.2 15 6-41.9-5-57.6s27.3-18 27.3-19l5.3-61.4 85-48-113.3-15-40 79.7L27 98.7z" fill="#FFC4BC" mask="url(#L)"/></g><path d="M539 481c0-12.6-1.3-32.8-2.2-40.4-4-34.6-7.8-69.8-7.8-69.8s-14.2-13.6-35.2-30.8a97.9 97.9 0 0 0-36.8-20c-14-3.5-28.6-6.1-55.1-8.4-32-2.8-36.4-15-36.6-30.8-.2-17.8 11.6-32.3 36.2-32.3 36.7 0 66.5-.9 66.5-.9l-1.2-29.4-109.6 7.6-17 49.7 1.6-53.8-21.6 27.5v79.3c0 11.7 7 18.8 18 18.8h24.6v38.9l26-8.4 92.4 14.4S522 429 522 455.6v12.8c0 19.3 2.7 43.8 2.7 43.8l14.1-31.2z" fill="#FFC4BC"/><g transform="translate(535 1352.3)"><mask id="N" fill="#fff"><use xlink:href="#M"/></mask><path d="M164.4 64L162 96.9 1 91.4S20.2 55 43.3 27.7C66.3.5 118 0 118 0l54 14.4-7.6 49.6z" fill="#FFC4BC" mask="url(#N)"/></g><g transform="translate(725 1395.3)"><mask id="P" fill="#fff"><use xlink:href="#O"/></mask><path d="M23 3L1 55.7h55s10.4 13.5 7.2-5.4c-1.8-10.6-13.7-25.9-21.9-32.9-6.7-5.7-6.2-17-6.2-17L23 3z" fill="#FFC4BC" mask="url(#P)"/></g><path d="M743 1301c5.5-2 12 1 14 6.4 2.2 6.2-1.2 15.4-9 17.4-14.7 3.7-21.6-17.8-5-23.8M575.9 1209.6l2.4 29 38.3 13 30-59.5-68.3-6z" fill="#FFC4BC"/><g transform="translate(288 1083.3)"><mask id="R" fill="#fff"><use xlink:href="#Q"/></mask><path d="M73.2 297.6c9.8-13 29.4-24.4 44.8-30.6 10.2-4 15.2-8.7 15.2-8.7l7-7.2s8.6-7.2 18.2-18.7c15.2-18.2 30.4-49.6 24-77.2-9.9-43-29.3-97.2-29.3-97.2l55.4-37.5L160 1s-50.2 14.7-50.2 39.8c0 36.3 2.2 46.3 34.7 81.8 15 16.4 25.1 33.3 24.2 51.1-1 20.7-16.2 42.5-42.2 65-10.2 9-16 11.2-22.4 16-12.8 9.4-24.6 10.4-44.5 32.1C29.4 319.6.3 372 .3 372l74.7 3.7-1.8-78z" fill="#FFC4BC" mask="url(#R)"/></g><g transform="translate(170 1342.3)"><mask id="T" fill="#fff"><use xlink:href="#S"/></mask><path d="M76.6 6.5s8.3-4 20.6-6.2c4.4-.8 12 2.1 16.8 2.2 18.6.5 25.4 34.6 25.4 34.6L95.6 148l-75.2-10.6L0 101.2l17.6-33.5 59-61.2z" fill="#FFC4BC" mask="url(#T)"/></g><g transform="translate(0 1325.3)"><mask id="V" fill="#fff"><use xlink:href="#U"/></mask><path d="M67 25.5L78.1 8.8s14.2 4.5 30 5.6c17.2 1.2 46.5-2.1 46.5-2.1L183.9.6l24 29.6-82.6 123.7-140.5-17 8.3-18 53.4-66.1L67 25.5z" fill="#FFC4BC" mask="url(#V)"/></g><path d="M124.2 1185.2c9.3.8 19.1 2.4 26.6-7.9 3.4-4.6 9.7-4.5 15.2-9.8 10.7-10.3 6.2-15 12-21.2 4.2-4.8 3.7-8 2.4-9.7-2.3-3-7.8-8-10.4-15-4-10.8-12.2-18.8-23.6-15.6-11.4 3.2-39 30.4-39 30.4s1.6 47.5 16.8 48.8" fill="#F6C0B8"/><path fill="#FFC4BC" d="M257.9 1048.5l21 5.4 51 11-14.4 21.8-64.6-10.1 3.1-25z"/><g transform="translate(1898 469.3)"><mask id="X" fill="#fff"><use xlink:href="#W"/></mask><path fill="#FFC4BC" mask="url(#X)" d="M10.2 11.5L.3 15.2l10 58.7 137.3 106-5-106.8L68.5 1z"/></g><g transform="translate(1582 -.7)"><mask id="Z" fill="#fff"><use xlink:href="#Y"/></mask><path fill="#FFC4BC" mask="url(#Z)" d="M10.9-11.9v136.8l-10 33 34-8.3 16.8-94.7 2.5-80z"/></g><g transform="translate(989 1336.3)"><mask id="ab" fill="#fff"><use xlink:href="#aa"/></mask><path d="M19.6 68.4s14.6-5.2 20.6-37L87.6.7l25.7 18s-22 48.6 16 89.5-92 22-92 22L.4 89.7l19.2-21.2z" fill="#33333D" mask="url(#ab)"/></g><g transform="translate(871 1209.3)"><mask id="ad" fill="#fff"><use xlink:href="#ac"/></mask><path fill="#FFC4BC" mask="url(#ad)" d="M61.3 119.5l118.3-87.8L145.8.9 61.3 86.7l-43.4 35L1 249.9l55-19 21-52.3-21-17-1.7-22.3z"/></g><path d="M1045.2 1337.6c-1.8.6-3.8 3.9-3.6 6.4.1 3.3 3.2 5.7 7.4 3.8 7.5-3.2 4.4-13.1-3.8-10.2M1272.2 1273l-7.8-.4-5.8-3-24.7 14.5-67.4-86-16.6-20.2 31.3-37.8 85 13.8-2 18.3 1 16.8 6.7 21.3 22.6 33.5zM1378.4 1251.3c-5.4-.6-13 5.6-17.4 12-14.2 20-2.5 44.5-2.5 44.5l3.7 57.5-56.7-14.9s-26.3-9-26.6-19v-8.4c4.8-11.5-1.4-22.7-1.4-22.7l99.2-71.2 1.7 22.2zM893.4 576.4l21 3.4 36.3-61-3.6-58.8-30.5 12.6s-2.5 6.5-2.5 11.5c0 5.6-.9 16.1-.9 16.1l-22.6 40.7 2.8 35.5zM959.2 701.3l18.2-2.6s22.4 16.4 16.2 23.2a39.1 39.1 0 0 1-7.5 5.4c-7 14.3-23.2 10.2-23.2 10.2s-1.1-2-5.6-2.6c-5.3-.6-10.6-4.8-10.6-4.8s-4.7-3.4 2.4-13c7-9.4 10.1-15.8 10.1-15.8" fill="#FFC4BC"/><path d="M1249 662.4s22-16.5 23.2-34.3c.8-13-5.4-31.6-31.7-39 0 0 17.6-20.7 54.5-30.2l16.2 15.6 5 66.4-64.8 38.5-2.3-17z" fill="#F6C0B8"/><path d="M1394.6 574.3s-1.4-4.4-.5-7.6c.6-2.7 3-5 6.6-4.4 5.1 1 3.6 7.3 2.5 12.3-1 4-3.9 8.2-3.9 8.2l-4.7-8.5zM1437.3 567.6s-3.4-4.1-4.2-8.4c-.8-3.6 1.7-7.5 6-6.8 3.8.6 5 6.6 6.2 9.3 2.4 5.1 2.5 8 2.5 8l-5.7 3.5-4.8-5.6z" fill="#EDE8D7"/><path fill="#F6C0B8" d="M1467.6 815l-11 27.4 13.3 27 78.7-54.3 2.4-43.6-32-1zM1518 999l26-68.4s22.5-18 44.1-34.9a114 114 0 0 1 30-17.3 44.8 44.8 0 0 1 39.6 2.5c6.3 3.3 14.8 7 24.1 8 8.7.8 18-.5 25.3-.7 12-.4 24.5 2 26.8 15 1.3 7.5-1 11.1 1.7 16.5 2.7 5.7 7.4 9.4 9.8 13.1 5.2 8.2 2.8 14.8-3.4 20.5-5.6 5-16.5 1.4-25.9-3.9-21.5-11.9-61.3 9.9-61.3 9.9l-139.4 43 2.6-3.4z"/><g transform="translate(1850 886.3)"><mask id="af" fill="#fff"><use xlink:href="#ae"/></mask><path d="M61 38.4c6.6 24.2 42.1 73 83.9 76 41.7 2.9 29-4.8 29-4.8l-.6-10.6s-39.3 2.4-58.1-13.8A156.8 156.8 0 0 1 71 23C75.9.4 56 .5 56 .5L17.2 14.3.8 44.1l44.8 2.6L61 38.4z" fill="#F6C0B8" mask="url(#af)"/></g><path fill="#F6C0B8" d="M1796.5 711l-7.1 7.4 38.2 18.9 5.3-8.5zM1681.3 738l-34.4 34 9.7 44.2L1773 805l9.8-39v-65.7l10.5-85.6-30.6-8.8-39.6 43.5-12 54.4zM1552.3 726l215.6-159.4-3.2-28.7-94.9 63-135.6 90.7zM1761.1 399.8h-16.6s-8.9 55.5 28.4 74c37.2 18.7 81 9.2 105.7-7.8 24.7-17 24.7-27.2 24.7-27.2l-26.8 4s-12.2 9.6-35 17.8c-22.9 8.2-68.6-30.1-68.6-30.1l-11.8-30.7zM1744.5 399.8l2.1-63.5s-35.4 2.5-55.1 36.2c-9.7 16.7-9.6 32.1-12.4 47.5 8.4 1.7 21.8 4.3 33.8-2.9 9.5-5.6 18.2-17.5 31.6-17.3"/><path d="M1744.5 399.8s-6.5-67.9 7.1-94.7c14.8-29.3 47.9-34.8 69.3-30.7 0 0-13.7 20.5-18.2 38.8-4.5 18.4 10 42.8 10 42.8l8 43-40 16.2-36.2-15.4z" fill="#F6C0B8"/><path d="M1862.7 291.2s7.5-12 22-16.8c11.5-3.9 17.7-5.5 23.8-12 1.1-1.1 2-3.5.7-4.8-1.2-1.4-4.7-1.7-7.9-2l-8.9-.8-30.7-10.3s-10.7-7.7-27.4 2.5a24.6 24.6 0 0 0-11.3 16 103 103 0 0 0-2.1 11.4c-1 4-.3 7.2-.3 7.2l16.6 14.7 25.5-5z" fill="#F6C0B8"/><path d="M1152.4 1004.7c-16.8.6-19.1 11.3-14.5 17.7 4.6 6.3 31.8 30 31.8 30l17.8-10.6 7.8-27.4-16.8-12.2-26 2.5z" fill="#FF0166"/><path d="M854.8 1049.5l-39.4 3.6s5.6-28.3 38.7-30.1l.7 26.5zm32.4-40.7l-119.5 10.7-21.4 39.1 3.6 5.2 31.9 26.3 100.8-7.2 33.1-1.8 50.5-3.4 15.6-8.8-6.3-29-88.3-31zM1004.6 1092.2c-22.4 21.6-66.2 48.3-99.5 70.8-19.4 13-37.3 21.5-34.2 34.6 2.7 11.2 15.8 18 30 4 0 0 43.7-60 83.2-65.7 39.6-5.6 20.5-43.7 20.5-43.7" fill="#FFC4BC"/><path d="M911.5 1201.4s45.5-56.1 73.8-54c28.3 2.1-7.7 56.2-7.7 56.2l-43.2-1.3s-13-4.7-23-1M1066 147l-6 24.9s13.8 11.8 14.7 11.6c.8-.3 11.9-6.2 11.9-6.2l3.9-14-24.6-16.4zM1027 170.4c8.7-1.7 13 8 7.7 12.3l-7.7-.8-11-7 11-4.5zM442.8 991v19.7l135-39.6 4.8-62.7-73 31.4-58.5 9.3-7.7 34.2zM1765.8 1229.6s-14.4-19.8-19.3-17.3c-6 3-3.1 10.2-1.4 18.3 13.5 7 20.7-1 20.7-1" fill="#FFC4BC"/><path d="M904.1 1102.5c-8.9 0-15.9-7.7-15.9-15.8 0-9.8 6-15.4 14.6-16.3 12-1.3 18.8 9.6 18.8 15.6 0 8.3-6.3 16.5-17.5 16.5" fill="#423D89"/><path fill="#423D89" d="M837.4 1081.7l61.9-6.4-4.5 13.8-72.1 9.2z"/><path fill="#33333D" d="M1263.8 1239.2l-3.1 6.6-4 19.9 7.7 6.9 18.4-2 2.4-35z"/><path d="M1097 400.7s35.3 8.2 71.8-13c36.4-21.3 34.3-35.4 41-34 6.6 1.2.7 20.1-12.8 38.7-13.6 18.7-22.8 22.7-20.8 36.7 1.3 9.3-4 8.8-9 11.2-5 2.4-9.3 31.1-42.6 37.2 0 0-20-6.3-30.8-28.7-11-22.3 3.2-48.1 3.2-48.1M1217.4 427.5s11.5-5.7 23.4-7.7c0 0-2-17 13.4-21.2 10.1-2.8 17.9 0 30.5 12.5 0 0 12.5-4.8 20.2-11.2 0 0-3.9-7.5-15.4-16.6a46.2 46.2 0 0 0-40.4-6.1 42.9 42.9 0 0 0-27.7 24.8c-5.8 12.7-4 25.5-4 25.5M1223.6 485.8s-5.2 32.4-7.3 75c0 0-3.3-1.2-18.3 6.1 4.4-2 3.6-7-3.2-9.3-8.8-3.1-17.3-14.6-14.6-25 2-8 5.5-12.9 4-23-.3-1.9.6-5 5.2-5.1 3-.2 7.3-2 10.5-4.6 5.3-4.5 16.2-15.7 23.7-14.1M1295 558.9c-5.5-21.6 28.4-11.3 30.8-34.4 2.4-23.2-19-34.2-19-34.2s32.2-18.6 46.3-41.5c14-22.9 19.6-40.7 19.6-40.7s-4.5 17.8 28 23.7c15.3 2.8 28.7 9.1 31.9 18.6 3.5 10.6 5 33-12.3 48.8-32.7 29.8-46 53-46 53s-39-1.5-41.7 42.6c-1.5 24.5 3.8 44 4.5 58.2.5 11.5-9.7 28.2-21.3 32.6-25.8 9.8-45-.1-45-.1l-20.2-24.2s32.7-3.9 46-28c14-25 4.3-51.4-1.6-74.4M1340.3 694.8s24.2-17 17.6-52.1c0 0 11 35.2 20.5 46 0 0 9.7 5.4 8 6.4-3.6 2-21.4.8-32.7.8l-13.4-1zM1420.3 574.2c-7.8 1.6-11.4 7-12.2 12.6-.8 5.6-9 8.4-9 18s25.2 17 28 3.6c1.4-6.7 1.6-14 4.7-21.6 3.5-8.2-7.7-13.4-11.5-12.6" fill="#FF0166"/><path d="M1402 634.2l33.5-1.4s22.7.8 21.7 13.9c-1 13-8.4 18-8.4 18l-6.1 9.6s-13.9-.2-9.7-11.7c4.5-12.2-1.7-13-4.8-13.3-4.8-.4-7 5-12.4 19.4-6 15.8-27.2 27.5-27.2 27.5l-10.2-7.4s12.5-14.9 15.2-21.7c1.5-4 1.2-12.7 1.4-16.7.3-7.7 3.9-16.1 7-16.2" fill="#FF0166"/><path d="M1451 639l24.1-9.3 77.4 36 101.6-69s6.4 8.6-12.8 33l-88.8 65.4-101.5-46.3V639z" fill="#FF0166"/><path d="M1616.8 547.6c-27 10.3-23.9 38-23.9 38s2.5 9.5-5.3 11c-2.9.7-7.4 7.5-8.2-7.6a53 53 0 0 1 23.2-48.5l-17.4-8-55.7 38.4c0 9.9.4 18.3.4 22.5 0 7.5-9.6 7.5-15.2 6.4-2.3-.5-4-2.2-4-7.8v-10.6l-36.6 19.5 78.4 34.4 105-67.6-40.7-20.1zM1784.4 561.1c5.7-22.2 2.3-39-1.7-47.4-8.8.7-24.2 8.2-36.6 17.6-35.9 27-74.3 53.6-74.3 53.6s-3.2 17-8.5 30.8l93.5-68s-5.7 22 4.5 45.4c8-7.3 19.2-16.9 23-32" fill="#FF0166"/><g transform="translate(1772 530.3)"><mask id="ah" fill="#fff"><use xlink:href="#ag"/></mask><path d="M156.6 78c-29-7-28.4-22.3-42.4-34-9.1-7.6-65-5.4-69.6-12.6C36.6 19 34.5 9.2 34.5 9.2 33.9 6 32.9 2.9 31.3 0c2.2 17-8 29.4-17.1 47.3C9.2 56.9 2.6 66.4.9 81c7 8 16.5 15.4 29.6 21.5 35.4 16.6 60.2 17.7 82.4 24 15.7 4.4 40.6 27.6 48 42.2 31.9-16.7 47-22.8 70.5-36.3 0-28.8-39.7-46-74.8-54.4" fill="#FF0166" mask="url(#ah)"/></g><path d="M1723 710.1c-.3 2.8-.3 4.4-.3 4.4.2-1.5.3-3 .2-4.4M1717.9 640.6c-10.6 17-12.6 35.4-12.6 35.4s17.3 18.1 17.6 34.1c1.2-15.7 3.9-60.8 50-98.8 3.4-10.1-4.2-14.4-11.6-18.2-12.3 11.4-25 18.2-43.4 47.5" fill="#FF0166"/><path d="M1942.3 694.1l-75.5 40s-6.8 20-52.3 35.4c-14 4.8-23.3 9-29.3 17.5-13.4 18.9-7 57.3 23.2 68.1l72.6-70.5 67.3 25.4s5.3-7.3 9.3-13.7c5.3-8.3-1-11.5-9.2-10.8a54 54 0 0 1-25.3-2 24.2 24.2 0 0 1-15-23.4c.8-13.2 14-20.8 20.5-26.5 15.3-13.5 13.7-39.5 13.7-39.5" fill="#33333D"/><path fill="#FF0166" d="M1948.3 810l-50.9 59.6-23.5-11.3-8.2 14 19.4 14.5 22.4 2.1 54.1-74z"/><path d="M1885.7 865c0 8.8-7 16-15.8 16s-19.1-7.5-19.1-16.3c0-8.7 9.2-18.4 18-18.4 8.7 0 17 10 17 18.8M1944.2 908.8c-2-1.5-3.8-5.7-3.4-9 .7-5 5.1-9.3 11.6-9.3 6.4 0 10.6 9.2 6.6 16.1-3.7 6.2-11.6 4.5-14.8 2.2M1775.8 887.9l-28 28.5s3-36-28.8-41.5c-13-2.2-22.9 2.4-35.5 1.3a88.5 88.5 0 0 1-27-9.7c-30.2-14-51.4 6.6-51.4 6.6l33.3-28.8s22.5 19.5 50.2 16.1c27.8-3.4 28.6-12.4 28.6-12.4l58.6 39.9zM1716.4 949.3l-69.5 65.7 37.5 46s12-2.8 6-1.3c-6.3 1.4-5.7 8.6-4.6 13 1 4.2 2.6 10.3 7.5 9.8 2.6 7.4 15.3 15-6.9 15-14.7 0-26.2 1.9-39.5-5.6-6.8-3.8-14.9-8.9-20.6-12.9-16.8-11.8-29.6-4-29.6-4s-2.9-21.5-58.9-11.8c-56 9.6-52.6-54.4-26-77.7 26.7-23.3 53.4-7.7 70-34 16.7-26.3 52.2-58.5 94.4-29.3 32.3 22.3 40.2 27 40.2 27M1470 939.6l-4 89.9s11.3-7.9 22.4-20.2a3327 3327 0 0 1 45.4-82.4s-39.4 15-63.9 12.7M1391.6 1056.3s17.2 22.1 60.7 30.7c35.4 6.9 48.9 4.9 48.9 4.9l-8-22.2s-43.3-.7-62-13.4l46.6-5.1c5.7-.7 6.9-3 6.9-5.4 0-2.4-2.4-4.3-8.4-4.2-10.4.2-26.6 1.8-47.8 4.9-20.4 3-37 9.8-37 9.8" fill="#FF0166"/><g transform="translate(1925 1047.3)"><mask id="aj" fill="#fff"><use xlink:href="#ai"/></mask><path d="M87 14.7S61 9.7 39.1.6C28.2 19.2 9.8 48.3 2.6 60.7c-5.4 9.4 1.9 16.4 13.3 8 11.4-8.3 31.8-17.9 67 3.5l4-57.5z" fill="#FF0166" mask="url(#aj)"/></g><g transform="translate(1897 1152.3)"><mask id="al" fill="#fff"><use xlink:href="#ak"/></mask><path d="M17.3.5s14.9 22.9 44.8 35.2c30 12.4 60.2 0 60.2 0l-14.2 147.4-39.8-29.7s11.1-23.5-10.8-51.9C35.5 73.1 9 75 1.5 56.7-5.7 38.5 17.4.5 17.4.5" fill="#FF0166" mask="url(#al)"/></g><path d="M1821.6 1099s12.8-68.6 61.4-46.8c34.5 15.4 0 71.2 0 71.2l-61.4-24.4zM1865 1012.4c8.3 2.4 6.5 16-3.8 13.4-10.3-2.6-6-16.2 3.8-13.4" fill="#FF0166"/><g transform="translate(1559 1302.3)"><mask id="an" fill="#fff"><use xlink:href="#am"/></mask><path d="M49.5 0s38 52.2 61.1 76c10.6 10.8 2.3 14-8 29.2a1827 1827 0 0 1-34.3 48.2L.9 137.7s24.3-28.6 40-48.7C56.4 69 56 22.7 49.4 0" fill="#FF0166" mask="url(#an)"/></g><path d="M1559.5 1255.9l57.7-51.3s2.7-20.7-13.5-33.1c-16.3-12.5-40-18.4-56.1-2-16.9 17.3-9.7 35.7.6 58.6a209 209 0 0 1 11.3 27.8" fill="#FF0166"/><g transform="translate(1212 1331.3)"><mask id="ap" fill="#fff"><use xlink:href="#ao"/></mask><path d="M67 0s-1 38-25.1 80.7c-25 44.3-41 51.8-41 51.8l107-20.4 43.5-36.6V29.7S103.7 4.4 66.9 0" fill="#FF0166" mask="url(#ap)"/></g><path d="M1358.5 1307.8l52.3 4.6v56.4l-15 12.2s-5-26.7-6.6-37.7c-1.7-11-3.7-3.2-4.5 5.6-.9 8.8-4.5 29.7-4.5 29.7s-15.1 9.4-20.7 2.4c-2-2.5-5.2-15.4-1-21.3v-51.9z" fill="#FF0166"/><g transform="translate(947 1385.3)"><mask id="ar" fill="#fff"><use xlink:href="#aq"/></mask><path d="M87 54.2C87 51.6 62.2 20.7 52 7 42-7 30.5 4.3 18.3 18.4 6.1 32.5.8 63 .8 63L87 54.2z" fill="#33333D" mask="url(#ar)"/></g><path d="M1065.5 1281.1l-39.8-50.3s20.4-9.9 20-20.7c-.6-10.8-11.4-18.4-29.8-16.1-18.5 2.3-47.7.3-42.5-41.8 5.3-42 41.1-76.5 95.7-109l100.6 119s-14.5 13.7-4 35.4c0 0-43.7-9.2-68.6 28.3-25 37.5-31.6 55.2-31.6 55.2M1273 1097s-3.9 17.3-20.2 30.8c-17.8 14.7-53 22.6-64.4 26l55.6-114s8.2 43.4 29 57.2M1575.1 744.4l-70 10.6s23-.8 32.3 21.6c6.5 15.7 2.9 33.5 2.9 33.5l34.8-65.7zM1466 825.6c-7.8-13.2-26.2-29.5-37.7-21.8-7.6 5-15.8 23 5.8 51.7 9.2 12.2 28 18.1 35.8 13.8 8.1-4.3 5.3-27.8-4-43.7" fill="#FF0166"/><path d="M1371.7 713v38.3s-21.7 7.2-30 31.3c-5.4 15.4-21.6 1.3-26.6 12.9-3.1 7.4 1.7 16.6 1.2 22.9-1.1 13.2-9.2 9.5-22.5 18.7a27.7 27.7 0 0 0-10.3 13c-4.1 13.2-2 31-2 31s0-18.6-20.4-29.1c0 0-5.1-56.2 35.1-87.5 40.3-31.2 75.5-51.6 75.5-51.6" fill="#423D89"/><path d="M1198 782.6s-.5 12.8-7.2 40.8c-3.4 14-.7 27.2 9.3 35.8a65.7 65.7 0 0 0 25.5 12s-10.5 16.5 0 28.2a71.4 71.4 0 0 1 10.5 14.5c2 3.8 8 6 8 8.8 0 5.4-6 10 3.9 8.2l10.3 24.2-23.4 16-38-4.6-4.3-9s20.7-8.5 5-42.4c0 0 4-7.4-11.6-33-1.8-2.9-9.9-2.4-12.2-5.7-1-1.6-1.7-4.6-2.6-6-19-28.2-8-25-8-25s-2.2-13 34.8-62.8" fill="#FFC4BC"/><path d="M1039.2 964c-3.8 4-24.9-2-41-12.9-17.4-11.9-29.5-29.6-22.7-41.7 6.4-11.5 30-5.5 43.3 11.3 14 17.7 25.5 37.8 20.4 43.3m62.6 6.1c-16.5-16.5-30.5-2.5-56.3-35.4-10-12.8-19.9-26.7-27.7-33.4-12.4-10.6-26.4-9.8-48.2-11.3-35.6-2.5-51-28-51-28v32c51.5 4.4 31.6 22.8 53.2 52.8 21.7 30 57.5 31.4 80.9 34.4 23.3 2.9 40.3 2.7 32.9 11.3-7.4 8.6-31.2 33.6-31.2 33.6l14.7 17 34-33.2s17.7-20.8-1.3-39.8" fill="#FF0166"/><g transform="translate(1354 -.7)"><mask id="at" fill="#fff"><use xlink:href="#as"/></mask><path d="M238.9-5.3V64L13.3 221H.8v-51.2c0-25 20-41 59.5-65.4L239-5.3" fill="#FF0166" mask="url(#at)"/></g><g transform="translate(1721 -.7)"><mask id="av" fill="#fff"><use xlink:href="#au"/></mask><path d="M17.2-15.7l89.6 113-31.3 54.8S41 103.8 26.2 80.4C11.2 57 6.3 53 .3 53v-65.2l17-3.5z" fill="#FF0166" mask="url(#av)"/></g><path d="M1823 263a66 66 0 0 0-20-40.4s12.6 2.7 19.4-2.3c7-5.2 8-18.6 3.5-31.6-9-25.4-1.5-35.8 9-44.8 10.4-9 19.3-33.8-7-47.3 0 0 17.9-21.9 81.6-31.3 0 0-25.9 7.4-33.4 29.3-7.4 22 21 30.4 33.4 10 6.2-10.2 14.5-23.7 21.4-21 7.5 2.9 19.8 13.1 17.3 23-1.6 6.3-13 20.3-19.8 35-14 0-16.6 10.6-17 21.8-.2 7.3 0 14.1 0 21.4-8.1 28-7.9 59.7-7.9 59.7s-26.5.5-41.8 0c-3-8-5.9-2.4-13-1.2-19.5 3.2-23.3 14.3-25.7 19.7M1798.5 329.6s13.9 4.4 27.5 14.8c11.9 9.1 23.8 18.7 30.3 35.4 5 13 5.1 25.1-1.5 35a41.3 41.3 0 0 1-11.4 10.3c-10.4-3-17 1.6-25.6 3.4-22.3 5-44.3-1.3-56.7 6.3-26.8-3-63.8 16.7-80.6 52.6 14 0 28.4-7.4 28.4-7.4s21.4-29.4 54.2-27c23.8 1.9 54 4.7 78.5-7.2a74.7 74.7 0 0 0 28.3-21 53.5 53.5 0 0 0 5.8-44.6c-7.1-19.7-18.8-33.8-38.4-48.6-19-14.3-34.4-19.4-34.4-19.4l-4.4 17.4zM1892 412.6c-15.8 1.4-22.4 18.6-21.6 27.4.7 8.8 5.8 22.3 25.6 21.2 19.7-1 25.6-17.5 21.5-31.4-4-14-17.2-18-25.6-17.2M1566.4 259v120.8s0 16.3-6.7 45.2c0 0-39 30.5-76.4 17.3-8.9-3.1-4.4-25.7-2-33 4.1-12.5 12.4-25.4 24.7-29.5 12.2-4.1 14.8-.4 15-5.8.1-6 1-4.7-13.7-2.8-27.7 3.5-6.5-26.5 13.1-49.3 5.2-6-.1-24 8.8-33 15.7-15.7 37.2-29.9 37.2-29.9M1672.6 290h-38.9v40.7l-5.7 13 4 9.4 52.6-29v-17s-11.3-4.8-12-17.1" fill="#FF0166"/><path d="M1535.2 232.5s23.1-5.3 31.2 28c8 33.4 48.7 39 67.3 29.5v-9.8s-26 3.7-39-4.2c-8.9-5.5-12.5-13.5-15.2-24.8-3.3-14-5.9-27.6-23.3-25 0 0 19.3-1.4 17.9-14-1.4-12.7-18.6-32-27.7-31 0 0-14.4 2.2-14.4 22.2v17s7 2 3.2 12M1500.5 237.7v-14.3s-11.2 3.4-28.8 2.3c-9.9-.6-21.6-3.7-35-7.2-7.8-2-16.1-3.4-22.6-3.7-15.2-.7-29 .6-41.7 9.5-5.4 3.9-7.3 7.3-11.8 15l-9.9 10.2s9-3.6 15.1 3.3c0 0 28.8-31.2 58.2-23.8 13.4 3.3 26 7.2 38.2 9 6.4.9 13 1.3 18.8.8 7.3-.5 12.2.7 19.5-1.1" fill="#FF0166"/><path d="M1592.9 136.4s-16.7-3.2-26.5 6.3-21 21.4-21 21.4-2.7 7.6 1 17.2h32s-1-34.4 14.5-44.9M925.3 329.5s2.4-42 40-60.3c29.9-14.5 49.5-.5 77 8.6 20 6.6 47.8 11.8 65.4-2.8 8.7-7.3 13.2-10.5 22.6-19 0 0-33.7-14.3-45-42.2 0 0-4.3 16-11.5 17.9-5 1.4-11.5-1.7-8.1-8.8 0 0-13.1 8-26.8 4 0 0 6.6 17.9-4.5 23.3-11 5.4-20.5 9.7-22.7 2.3-2.3-7.4 14.2-8.8 11.6-17-2.6-8.6-3-9-3-9s-36-12.1-56.7-2.2c-25.6 12.3-38.3 33.9-38.3 105.2" fill="#FF0166"/><path d="M1049.5 180.9s8.2-11.6 23.8-6.9c5.6.5 12 4.2 15.2 7.8 7 8 5.6 20.3-3.2 32l-19.6 9.1v-17.6l-13.7-8.8s9.7-6.6-2.5-15.6M866.4 160s24 32.6-1.9 73c-25.8 40.3-98.8 46.3-98.8 46.3s-23.1-36.3 0-68.4c23-32 11.3-49 11.3-49a41 41 0 0 0 28 1c14.2-5.5 46.6-15.7 61.4-2.8" fill="#FF0166"/><g transform="translate(540 -.7)"><mask id="ax" fill="#fff"><use xlink:href="#aw"/></mask><path d="M87.8 5.5s4.3 72-25.5 96c-16.6 13.3-33.5 22.4-44 36.2-8.2 10.9-20 24.8-16.8 46 1.8 12.4 16.8 22.5 27.7 29.2 20 12.4 70.2 32.4 80-.4a146.8 146.8 0 0 0 52.2-45.7v-9.4s-14.3.8-28.8-1.8c-12-2-25.4-8.7-30.3-19.7-13.8-30.7 6-47.2 21.5-66 18.4-22 37.7-41.7 35.2-75.8h11.8s3.2 10.5-1.6 26.7a134 134 0 0 1-25.4 43.4c-15.8 18.7-27.3 30.3-32 41.2a31.3 31.3 0 0 0 .3 24.2c5.4 12.2 17.6 16.5 48.9 16.5v-30.6c0-10.1.4-16.8 14.9-16.8h33.3c18.1 0 30.1-11.4 26.6-35.6-3.5-24.3-8.2-57.6 99.5-57.6l39.6-7-39.6-8.3H90.9L87.8 5.5z" fill="#FF0166" mask="url(#ax)"/></g><path fill="#FF0166" d="M514.3 149.4l34.8 33.6h-34.9zM498.2 136.1l-87-80.1s12.1 23.3 4 61.9c-1.8 9-6.9 32-11 40.8-22 46.2-68.6 55.6-68.6 90.5v70.5c0 11.3 0 12.5 14.1 12.5H371c5.9 0 8.6 2.4 8.6 14.5v20.4l76.4-29.8s-17.1-5.9-53.1-8.1c-32.5-2-55-10-55-47.9 0-38 26.8-48.9 59.7-48.9 32.9 0 57.2-1.2 57.2-1.2s.7-9.4.7-19.4c0-9.1 10.8-28.8 23.7-28.8h9v-46.9zM309.8 416.4L478 348.6s3.8 2.9 12.3 14c0 0-130 53-142.5 58.5-12.6 5.5-31 0-38-4.7M495.2 341.1l50.3-21s5.5 5-9 10c-14.5 4.9-16.5 11.5-30 25 0 0-4.5-7-11.3-14M575.7 365.1s-13 17.3-6.1 31.9c7.2 15.5 28.8 14.3 28.8 14.3s-8.6 9.4-11.7 16c0 0-11.6-2-19.2-10.9-8.3-9.5-11.5-23.3-11.5-23.3s4.4-5.7 4.4-12.3c0-6.7 15.3-15.7 15.3-15.7M522.4 485.2s-4.6 41.3 18.9 59.6c10.6 8.4 37.6 18.2 57.4 8.6 0 0 3.2-6.6 3.5-16.7 0-.8-1.4-1.8-1.4-2.7-3-6-4.2-.8-3.8-6.3 0 0-40.2-14-55.4-46.6 0 0-7.9-1-19.2 4.1M881.2 449.8v62s-85 25-129.8 51.2c0 0-1.5-11-1.5-19.3 0-8.4-1-26.6 20.3-33.8 21.3-7.2 36-28 54.9-43.9 19-16 56.1-16.2 56.1-16.2M1022 393.1V460l-60.2 22.9v-50.6s30-10.6 60.1-39.2"/><path d="M893.4 576.4s-.5-23.6 11-43c10.5-17.4 8.8-33.2 8.8-33.2l-32 11.6s-12.9 18.6-3 33c9.9 14.5-3.7 28.2-3.7 28.2l18.9 3.4z" fill="#FF0166"/><path d="M789.7 629.5c12.8-51.2 42.3-64.5 84.8-56.5 0 0-16.3 7-39.6 19.3-29.4 15.5-42 32.2-45.2 37.2M913.3 579s-8.9 24.4-29.8 32.4-39.5-2.3-48.6 17.1c-6.3 13.3 3.3 40 23 37.7 9-1 40.8-13.2 51-17.6 32.2-14 35.2-19.4 39.4 8.7.9 6.1 23.3 6.8 23.4 14.2 8.7 6.6 8.2 19 4.7 27.4 14.5 13.8 15.8 15 17.6 18.3 1 1.7.7 4.2-1.3 5.6 0 2.7 2.7 7.3 4.5 7.2 2.7 0 4-2.7 6-4 3-2 7.1-1 7.9 3.5 22.9-1.3 28.7-7 28.7-7v-39.2c0-23.6-15.2-25.1-22.8-25.1-4.3 0-12.6-.8-13.4-10.1-.3-4.4 4-9.4 12.6-11.6 9.5-2.4 10.4-8.1 6.7-10.8-4-2.7-13-1.8-20.7-6-13-6.7-9.8-27.4 11.3-33.3 14.5-4.1 17.2-14.9 14-22.3-4.2-4.4-4.2-4.4-7.4-7.2-6.8-5.9-27-5.1-44.3-.9-4.3 1.1-10.5 2.2-14.3 3.7-19 7.4-28.8 19.3-48.2 19.3M691.9 557.5a97.8 97.8 0 0 0 24.6-15.8c9.4-8.3 14-8.6 18-5 3 2.8 3.7 10.1-5.6 18.3-13.3 11.6-35.8 26-73.8 29.2-43.4 3.6-93.1 13.4-117 53.3-13.3 22-21.7 40.6-44.6 55.1-18.5 11.8-40.2 30.4-114.4 22.7-63.4-6.6-114.4-12.6-157.5-24.8-64.4-18.2-101-42-110.6-83.8-10.2-44.6-.8-85 50.8-118.4 20-13 49.4-21.7 81.7-33.8 0 0 8 12.5 22 17 0 0-94.5 23-130.5 92-8 15.4-1.8 27 2.4 39.5 14.4 43.7 83 72.4 132.2 79.3 64 8.8 154.2 29.7 202.2 1.8 20.8-12 40.6-40 47-52 12.3-23.3 21.5-42.5 63.8-53.9 48-13 92.6-12.8 109.3-20.7M269 320v47s-29.7 3-29.7 24.4v32s-33.1 3.5-43.1 3.8c-10 .4-33.8-30.6-25.8-47 8.8-18 13-35.2 14-52 0 0 49.7 10.3 84.6-8.1" fill="#FF0166"/><g transform="translate(55 -.7)"><mask id="az" fill="#fff"><use xlink:href="#ay"/></mask><path d="M150.2 216.7c-31-46.2-64.2-24.5-99.3-40-13.3-25.6-25.7-55.6-.1-94.2 25.5-38.7 54.5-47.3 54.5-91.1H81.1s-.3 23.8-28 53.5C25.7 74.6-6.2 107 1.8 157.9c4.5 29.2 28.4 38.5 53 43 18.2 3.2 37.8 4.5 45 5.1a47 47 0 0 1 31.8 19.4c-2.3 8 1.3 8.4 3 12.5a16.8 16.8 0 0 0 21.2 9.9c3.5-1.4 8-11-5.5-31" fill="#FF0166" mask="url(#az)"/></g><g transform="translate(0 55.3)"><mask id="aB" fill="#fff"><use xlink:href="#aA"/></mask><path d="M-10.8 12.8S11 3.2 32.1 7.7c3 .6 9.3-9 12-7.4C66 13.5 59.2 49 78.6 49.6l-4.1 24.9s-28-3.2-31.5-27.3c-1.2-8.7-.2-15-6.8-19.7a28.8 28.8 0 0 0-40.7 7l-6.2-21.7z" fill="#FF0166" mask="url(#aB)"/></g><g transform="translate(0 247.3)"><mask id="aD" fill="#fff"><use xlink:href="#aC"/></mask><path d="M-7.4 46.6S-9 67 7.5 70.4c4.6 1 30.6 2.3 36.8-25 13.3-4.3 22-12.6 22.3-26.6 0 0 6.2 4.9 6.8 14.5 0 0 12.8-21.4-11-31.5a30.8 30.8 0 0 0-29 7.5c-7 7.2-9.2 19.5-16 28.3-10.6 14-36 4-40 15-9.9 26 15.2-6 15.2-6" fill="#FF0166" mask="url(#aD)"/></g><g transform="translate(0 377.3)"><mask id="aF" fill="#fff"><use xlink:href="#aE"/></mask><path d="M69 30.6H32.7V.5h-51.5L-8.3 93l53.9 15.7s-16.4-78 23.5-78" fill="#FF0166" mask="url(#aF)"/></g><path d="M582.4 1359v-114l21.6-15.6 151.7 22.2s-62.8 4.3-113 39c-30.3 21-60.3 68.3-60.3 68.3" fill="#FF0166"/><path d="M580 1378.2c0-14.2 2.4-19.3 2.4-19.3s37-14.5 68.6-15.6c33.7-1.1 65 15.6 65 15.6v21.2s-5-.5-11.5-3.6c-3.6-1.7-6.3-5-13.3-7.7-10.7-4.2-21-9.1-40.7-8.4-23 .8-52.8 11.5-70.6 17.8M756.6 1375.2a99 99 0 0 0 24.3 20.4l-14.6 17.1-18.3-14.3 8.6-23.2z" fill="#FF0166"/><g transform="translate(328 1380.3)"><mask id="aH" fill="#fff"><use xlink:href="#aG"/></mask><path d="M104.5 58L33.2.6a101 101 0 0 0-23 60.9c0 5.7-10 4.3-10 7.4h104.3v-11z" fill="#FF0166" mask="url(#aH)"/></g><g transform="translate(268 1315.3)"><mask id="aJ" fill="#fff"><use xlink:href="#aI"/></mask><path d="M79.6 54.8L16.3.4S.1 20.8.1 31.2c0 0 14.2-3.9 21.2 2 6.3 5.2 5.7 19.2 1.5 35.8-8.9 35.2-17 64.9-17 64.9l40.4 11.3h5.2c1.2-43.7 9.7-66.7 28.2-90.4" fill="#FF0166" mask="url(#aJ)"/></g><path d="M268.1 1346.6s16.2-16.2 16.2-31c0 0-14.3 9.5-26.3 18.5l-4.3 15.2 14.4-2.7zM470.4 1238.5s22.6-21.5 49.2-29.4c26.7-7.8 17.1-38.2-19.1-41.3-18.1-1.5-19.5-10.1-12.3-16 7.3-6 23.2-9.3 40.3-14.4 34.2-10.2 89.8-28.3 89.8-28.3s-34.5-8.2-57.3-4.1c-23 4-46.6-.6-78-1.2l-63.1 22.3s-9.6 16.8 5.8 43.8c17.3 30.3 36.2 34.8 44.7 68.6M442.8 943.4V991s5.2-25.7 37.9-36.2c36.3-11.7 84.8-18.2 97-44.4l-135 33.1zM333.2 953.2s51.5-18.3 98-27.5c0 0-15.3-28.7-63.2-18.5-38.3 8.2-34.8 46-34.8 46M484 893.4s38.4-21.3 53-58.2c0 0-72.4 19.4-98.7 12-26.3-7.6-59.8 16.3-39.2 38.9 0 0 32 11.6 84.9 7.3M739.5 871c1.4-2.6 10.7-3 14.2 3.9 2.2 4.4.3 15.3-2 18.8-4.8 7.7-24.4 19.4-36.2 17.6-25.6-3.7-15.9-31.7-47.7-36.2-31.7-4.4-29.7-34.5-9.9-40 19.8-5.4 10.8-27.2-8.7-34.7-19.4-7.6-29.8-18.4-24.7-38.5 3.9-15.1 10-22.3 19.9-16.3 3.2 2 15.6 17.3 18 19.6 9.5 9.2 12-2-3.3-15.6-15.4-13.6-10.1-27-.6-36.3 9.6-9.4 24.9 8.4 35.5 6 10.6-2.4-3-26.6 31.9-26.2l29 30.4s-22.8 5.5-22.2 28c.7 22.5-6.5 29.7-21.5 38-9.1 4.9-12.3 14.7-7.5 21.8 3.1 4.6 12.2 6.4 16.4 10.6 10.6 10.5-20.5 20.4-19.5 43.1 1 22.8 20.1 39.8 38.9 6M98.2 852.3l31.5-17.1 71.1 97s-14.3 10.7-35 10.3l-67.6-90.2zM59 991l193 56s15.5-63.6-38.3-96.5c0 0-22.4 22.5-74.4 12.2 0 0-52.7-7-80.2 28.2M327.7 1006.2c12-4.2 25.6-7.5 38-2.7 18 6.9 20 20.5 20 29.3s24.2-4.4 29.5 4.5l6.6 17.2s-37.3 15.8-54.5 22c-.1 5.4-9.6 6-12.2 5.9-11.5-.5-27.7-12.5-16.2-30 .8-1.2 3.2-.5 8.1-5.5 5-23.8-31.3-36.4-19.3-40.7M1388.2 393s23.4 15.4 40.7-4.8c12.8-14.7-3.7-28 3.2-37 6.8-9 28.6-9.6 28.6-20.5 0-10.8 5.2-13.6 5.2-13.6s-24.8-14.7-53.4 4.3c-28.6 19-24.3 71.5-24.3 71.5M58.6 633l26.4-7.4s29.4 51.3 13.7 91.6A36.6 36.6 0 0 1 69 739.9a50.4 50.4 0 0 1-27.7-2.8l12-16.2s29.9 5 32.4-26.2c1-12.5-.5-25.8-8.4-37.3-3.5-5-10.2-7.3-15.3-7.3-1.8 0-3.4-17.2-3.4-17.2M230 561c12.3 6.5 25.2 13.6 25.2 13.6s13.2 2.2 22.9-12.5 0-27.9 0-27.9l-20.6-16.9s11.1 14.4 2.4 30.7a24.8 24.8 0 0 1-29.9 13M309.4 548l-7.5 11.6 18.8 10.6 7.5-11zM574.1 749.6s-19.6 1.2-30.7 3.8c-11 2.7-23.8 26.7-30.7 50.5l11 4.4s9.4-2.5 13.3-12.6c4-10.2 13-8.5 10.3 5.2-2.7 13.7-3.9 15.5-3.9 15.5l35.5-14.6 2.4-24.2s11.3 3 21.8-.3v-14s-23.9 5-29-13.7M888.7 885.8s-18.3 11.8-57.7 18.4c-39.5 6.6-62.6 32.1-84.7 91.7 0 0 26.7 5.4 36-16.3 9.3-21.7 8.1-14.8 8-7.2-.4 15.2 7.5 38.8 25.8 41.6 0 0 5.8-3.5 18.1 0 12.4 3.5 12.6-26.3 13.4-16.6.8 9.6 25.2-24.3 32.6-44.9 7.3-20.5 16.2-40 8.5-66.7M998.7 1073c.6 2.3-1.2 4.3-2.8 5.9-7.4 7-13.2 13.9-22.6 17.3-5.6 2-11.5 3.4-17.1 5-16.5 5-33 9.8-49.6 14.7l-80.7 23.8c-.4 0-1 .4-1.4.4l-178-19.8s101.8-2.2 138.3-2.2c67.7 0 71.9-27.3 92.8-36.4 9.6-4.2 18.8-2.8 28.8-2.3 3 .2 6.1.3 9.1-.2 8.6-1.3 15.4-7.3 22.6-11.6 6-3.6 16.3-8 23.3-5.5 3.9 1.4 6.7 4.6 10 7 8.9 6.5 17.3 4.9 27.3 4M1776.4 1031.1l10.4-13.8s24.6-3 32.4 20.7c4.8 14.5-4 27.5-16.4 30-14.6 10.5-22-1-29.6-4.5l6.6-16.2s8.3 7.1 13.8 6.6c2.7-.3 5.6-3.7 4.8-8.2-2.2-12-22-14.6-22-14.6M309.8 94l22.6 1.1 28.1 8-10 45.6-31 49.2-29.3-46.6z" fill="#FF0166"/><path d="M1831 505.2c3.9-3.6 9.8-6 9.7-8.5-.2-4 0-8 1.8-11.5s5.8-6.2 9.7-5.3c3.2.8 5.6 4 6.1 7.3.6 3.3-.5 6.7-2 9.7-1.7 3-3.9 5.5-5.8 8.3 4.3-3.5 10.5-5.4 15.4-2.9.8.5 1.7 1 2 2 .7 1.7-.9 3.6-2.6 4-1.8.6-3.6.2-5.4 0-2.3-.2-4.6 0-6.6 1-2 .9-3.7 2.8-4 5-.1 1.7.5 3.4.5 5 0 1.8-.8 3.8-2.4 4-.8.1-1.6-.2-2.2-.5a8.2 8.2 0 0 1-3.8-4.6 13 13 0 0 1-5.6 8.2c-3 1.8-6.9 2-9.8.2l-.2 6.5c0 1.5-.2 3-1.3 4-1.3 1.2-3.5.7-5-.3-1.6-1-3-2.4-4.6-3-1.2 3.6-1.1 5-2.3 9.3-.8 2.8-4.1 4.5-4.1 4.5L1801 526c-1.5-3.7-.4-8.3 2.3-11.3 2.7-3 7-4.5 11-4.5 2.2 0 4.3.5 6.4 1.2 1.7.6 0-2.1 2.2-3.3 1.9-1 4.8 0 8-2.9" fill="#33333D"/><path d="M223.7 1183.3l-50.4 28.6s7.9 51-18.6 81.3l46.7 5.7 61.9-96.1s-1-12.6-11.4-19.5c-10.3-6.9-28.2 0-28.2 0M391.8 1301.7v-142.5h-26.5l.4 121.7zM299 1239.6l-3.5 36.7 58.4-7.6L328 1242z" fill="#FF0166"/><path d="M309.8 416.4s-8.7-4.1-8-20.2l61-25.3s1 11.5 10.2 8.4c9.2-3 6.5-14.2 6.5-14.2l74-28.5s14.2 3.1 24.5 12l-168.2 67.8zM427.8 388l-6 171.1s4.9 3.3 14.5.6c0 0-2.2-41.4 27.7-65.1 17-13.5 41.7-26.4 58-39-1.5-24.9-4.7-59.9-31.7-93L427.8 388zM533.4 350.5c-12.7-.4-27 4.7-27 4.7s13 16.2 21 42.4c6.4 21 8.7 37.4 9.7 45.6 5.8-6.4 11.2-9.4 13.6-17.9 9.7-33.5-4.5-74.4-17.3-74.8" fill="#423D89"/><path d="M522 468.4s.4 8.1.4 16.8c0 0-37.8 16-58.7 57.7-9 17.8-14.5 13.3-14.5 13.3s.7-39.4 29.3-58.5c28.6-19 43.6-29.3 43.6-29.3M539 481s29.2-2.7 49.7 20c13.9 15.2 13.5 35.7 13.5 35.7s-18-.3-35.6-9c-12-6.1-19.6-15-24.2-28.9-2.6-7.8-3.5-17.8-3.5-17.8" fill="#423D89"/><path d="M1024.4 756.6C996.4 775.2 988 862 918.5 862c-34.8 0-44.7-4.9-44.7-4.9s-6-21.9 18-45c8.3-8 19.6-19.3 25.4-34.5 4-10.2 3.2-25.7 3-36.1-.6-37.3 26-52.2 26-52.2s2.9 7.6-7.4 15.5c-6.7 18.2-11.1 46.9 22.9 55.3 34.8 8.7 67.2-23 62.7-3.5" fill="#FFC4BC"/><path d="M1077.5 589.3s-24.7-34.2-3.9-50.4c20.8-16.2 34.8-38.6 22.2-56-8.4-11.5-32.1-10.2-53 1.7a74.7 74.7 0 0 0-27.2 26.4c-16.2 31.5-3.3 46.8 12 53.1 8 3.3 26.8 6.5 39.1 25.6 2.9 4.4 7.5-7 10.8-.4M1107.4 544.2c9.9-15 16.4-13 37.8-24.8 12-6.6 18.4-20.3 15-30.6-3.3-9.6-15.6-14.5-25.4-14.1l-10.2 2.8s0 9-4.6 27.2c-4.6 18.3-28.2 63.1-12.6 39.5" fill="#33333D"/><path d="M1214.4 488.2s-10 14.6-7.9 47.3c2.1 32.7 10.3 48 34 53.6 0 0 7-6.7 16.4-13.6 6-4.3 14.8-16.7 12.5-29.4-1-5.8-5.4-11-11-17a14.1 14.1 0 0 1-3.8-11c.5-8.5 3.4-19.3-6.3-27.8a28.4 28.4 0 0 0-33.9-2M1306.8 490.3V470s-64.3-4-66-50.2c0 0-13.2 2.3-23.4 7.7 0 0 8.6 60.7 89.4 62.8" fill="#423D89"/><path d="M1425.3 314.9c15-12 55.7-14.8 55.7-76 0 0 11.4-.2 19.5-2.2v22s7.2 8.1 2.8 16c6.5 9.5 19-7.7 24.8-21.9 5.7-14.1 7-20.3 7-20.3s27.7-6.9 31.3 26.5c0 0-8.2 15.1-42.8 62.6-20.6 28.1-17 40.2-9.1 43.4 5.4 2.3 14.9 2 16.7 6.3 4.4 10.5-19.8 9.5-38 24.9-13.7 11.7-11.2 34.4 6 41.4 0 0-18.4 7.6-44-8-16-9.8-16.3-13.3-10.9-21.5 7.5-11.3 13.3-7.3 21.6-18.6 8.3-11.1 7.4-18.4 9.6-22.6 1.7-3.2 4.3-5.6 4-8.4-.6-4.4-7.7-4.3-9.1-10-1.5-5.6-1.6-14.7-7.2-22.3-6.2-8.3-16.5-14.8-38-11.3" fill="#33333D"/><path d="M1388.2 393s-31.7-25.6-26-57.9c5.9-32.3 13.9-64.7 3.6-82.3 0 0 16.6-24.8 47.6-25 17 0 38.6 8 48.8 10.1 0 17-1.9 26-10.9 37-9.7 11.7-21.5 18-30.9 26.4-15.3 13.8-21.3 25.6-26.6 46.2-5 19.1.8 37.1 12 58-.1 3.8-13.4-6.3-17.6-12.6M1612.8 366.2l48.3 2.2s9.3-7.9 13.9-12.2c9.6-9 14.3-19.9 14.8-27.2.3-3.7.2-11.7-5.2-11.7-8.6 0-16 11-34.5 24.2-4 2.9-14.2 7.1-17 6-2.9-1.3 5.5-16.3.6-19.6-4.3-3-21 9-21 38.3" fill="#33333D"/><path d="M1761.3 593.1c12.5-10.8 30.2-36.3 19.4-75.5a50 50 0 0 0-15.3-26.4c-10.2-7.6-19.5-6.9-29.3 1-7.3 5.9-11.5 19.6-16 34.6-3.5 11.5-6.2 21.5-11.6 29-10.2 13.9-25.1 21.4-37.8 30.3 0 0-6.4-8.4 1.3-22.2 0 0 23.3-11 31.4-40.5 8.3-30.4 13.8-46.5 40.2-53.6 21.2-5.8 52.3 6.3 59.7 60.6 4.3 31.5-15.3 68.5-30.4 80.9 0 0-6.1-7-11.6-18.2" fill="#423D89"/><g transform="translate(1808 483.3)"><mask id="aL" fill="#fff"><use xlink:href="#aK"/></mask><path d="M90.8 1l122 147.1-19.5 33s-22.1-43-86.8-59.4C21.2 99.9 15.5 102 .5 64.3l14-9.8s.9.1 2-.6c.4-.4 1-1.5 1-1.5l19-13.4s2.5 1.2 4.1 0c1.7-1.1 1.2-3.6 1.2-3.6L90.8 1z" fill="#423D89" mask="url(#aL)"/></g><g transform="translate(1863 62.3)"><mask id="aN" fill="#fff"><use xlink:href="#aM"/></mask><path d="M93.8 5.2s-7 45.7 47.6 57.5v16.6s-43.3-.6-64.6-.6C55.6 78.7 49.5 92 49.5 92s.2-7.4 5.6-16.7c5-8.7 19-15 24-24.5 6.4-12 1.8-22.1-7.2-23.6s-22 3.2-26.1 21.7C40.9 70.2 20 71.5 8.8 64.6c-11.3-6.9-11.8-26 5-42A75.6 75.6 0 0 1 46.6 2.9C71-3 93.8 5.2 93.8 5.2" fill="#423D89" mask="url(#aN)"/></g><path d="M1470 939.6v-51.4s40.8-8.1 76.5-34.7c37.6-27.9 48-39.8 48-39.8s-4.4-17.9-4-29c0 0 4.6 16.7 19.1 16.7 10.2 0 13.7-8.5 13.7-16.8s38 0 38 0 6.4 15.6 23 12.7c11.2-2 21.2-7 30.8-11.5 10.2-4.7 21.7-10.2 33.2-4 10 5.3 12 15.8 12.7 20.1 2.8 15.3-11.5 36-40.4 50-35.5 17.3-64.7 11.4-82.2-7.6 0 0-76.1 71.3-104.6 82.6-28.5 11.2-43.3 19.1-63.9 12.7" fill="#423D89"/><g transform="translate(1616 -.7)"><mask id="aP" fill="#fff"><use xlink:href="#aO"/></mask><path fill="#423D89" mask="url(#aP)" d="M105.3 9.1L.9 116.4V-15.7l104.4 3.5z"/></g><path d="M1354.8 220.3V207s-65-27-140.7 12c-75.8 39-159.8 130-200.7 160.9-41 30.8-64.2 40-64.2 40l-37.4-21.3-53 14.1 55.7 34.6s-1.3 45.3-1.3 53c.9-6.7.7-12.1 6.3-19 4.5-5.8 11.2-5.5 16.3-2.4 5.6 3.5 6.6 11.8 6.6 11.8l19.4-7.8v-46.1c25-17 42.5-19 101.1-78.2 58.7-59 138.2-124.3 192.1-138.2 55.6-14.4 99.8 0 99.8 0" fill="#423D89"/><path d="M881.2 466.9s5.8-2.5 11-1.9c6 .7 7.7 6.6 7.7 10.9 0 4.3-2.9 11.1-18.7 15.4V467zM833.3 416.4l-13.7-10.7s-22.6-9.3-56.4 19.5c-23.5 20-27.2 38.2-20.5 43.7 6.8 5.5 27.4-6.5 41.4-18.3 14-11.7 33.4-23 49.2-34.2M483 1103.8l135.3-49.3v54.6s-39.5-6.6-75 0c-35.5 6.5-39.3 5-60.2-5.3M562 1156.6v64.4l15 3s13.5-9.2 27-18c13.6-8.8 18.6-8.6 21.4-4.8 4 5.6-6 15-21.4 28.2l34 5 59-56.6-135-21.2zM725.5 1183.7l-59.4 54.8 89.6 13.1 68.8-56-43.7-3.8-48 46.7-25.5-4 48.4-46.2zM582.4 1242.1V1359s-57.8 23-72.3-4.9c-14.4-27.8 35.5-79.8 72.3-111.9M934.4 1202.3s23.5 8.8 25.2 37.3c1.7 28.5-20.1 44.6-20.1 44.6v10.1l104-73.5c22.9-16.1 4.9-41.8-25.7-30.4-30.5 11.4-42.1-12.5-42.1-12.5l-41.3 24.4zM1244 1039.8l-35.8 22.8s-20 39.8-66 66.9l27.5 32.6s3.4-4.7 18.7-8.2l55.6-114zM1103 1009.9l66.7 77s-8.2 18.2-37.2 31.2l-63.4-75 34-33.2zM1512.8 1189l-40.1 2.8s12-44.6 41-62.4c14.4-8.8 24.3-18.8 43-13.3 16-3.3 35.5-8.3 42.2-20.4 0 0 13.5-7.7 29.8 8.8 0 0-1 14.6-18.4 22-30.1 12.8-59.6 5.3-84 32.6-10.2 11.4-13.5 30-13.5 30M1636.2 1169.2s5.6 6.2 11.6 25c0 0 17.1-13.6 30.4-6.8 13.2 6.7 13.6 22.2 17.7 35.5 0 0 5.4-13 17.4-34.3 0 0-3.2-19.3-27.1-27-29.9-9.5-50 7.6-50 7.6" fill="#423D89"/><path d="M1795.7 870.4S1755.1 849 1761 802c5.5-43.3 43-43.3 63.9-52 20.8-8.6 26.6-20.7 23.6-35.4-3.2-15.5-12-20.4-30.3-27.5l24-9s23 5 27.7 34.3c4.6 29.4-9.3 50.3-57.1 61.9-47.8 11.6-30 64.8-4.4 81l-12.7 15.2z" fill="#FF0166"/><path fill="#423D89" d="M1552.5 635.3v30.4l-77.4-36v-28.8zM1552.5 695v31l-108-54.5s10.6-13.4 10-21.1l98 44.7zM1592.9 81.5v54.9s-19.8-.8-32.9 12.6c-13 13.4-33.1 35.7-33.1 35.7H1487s8.5-33.4 49.6-64.7c45.4-34.6 56.2-38.5 56.2-38.5M1498.2 129.2s-24.4 26.5-32 56l-52 29.6s-31.4-2.1-53.6 24.6l-5.8-19 143.4-91.2zM614.7 977l-37-5.9v-62.7l9.8-6.7H599c7.4 0 15.6 14.6 15.6 29V977zM608.9 892.7s7.3-1 13.1.8c14.3 4.4 14.1 18.6 14.1 49.3 0 24.3.2 36.6.2 36.6l33.2 3.7v50.2c0 23.1 26.8 39.5 56.4 15.1 13.6-11.1 19.6-34.2 25.9-55.4 6.2-21.2 31-77.2 82.4-84 51.4-6.8 54.5-23.2 54.5-23.2s-15-11.5-15-28.7c0 0-28.2 11.1-28.2-20.6 0 0-33 68.3-90.7 74 0 0 2.5-21.4 16.6-33 14-11.5 13.2-22 8.7-42-2-8.6 1.8-15.7 5.2-19 4.6-4.4 7.1-10 6.9-15.3-.4-8.9-7.6-15-14-23.6-8-10.5-5.7-22.2 3.3-30.2L750 718.3s-15.5 5.2-18.8 27.1c-3.6 23.1-3.7 31.1-19.2 40.1-8.7 5-15 13.7-14.8 18.3.2 7.6 7 13.7 19.2 18 19.6 6.7-16.4 11.9-17.6 41.6-1.2 29.7 18.7 33.5 27.2 31.8 8-1.7 12.2-5 15.3-11.8 2.1-4.7 3.7-9 6.2-8 2.5 1.2 2.1 7.3-.3 13.2-3 7-9.4 14-23.4 14.7-25.6 1.3-27.4-28.2-55.9-28.2v22s-28.4-20.4-59-4.4M911.5 300s-1-43-26.5-73.2c0 0-9.2 22.7-33.7 41a105 105 0 0 1-73.1 16.4c-29.8-5-37.9-18.3-59.2-16.8-20.6 1.4-27.6 14.4-69.9 40.5 0 0-14.1-24.2-1-47.4 13-23.2 47-14.2 64.8-20.7 17.5-6.4 19.3-14.5 19.3-35.8H744s-3.8 37.5 25.3 52c31 15.4 73-2 86-30.8 11.2-24.6 5.7-38.1-1.9-75.2-7.8-38.3 38.2-46.6 69.2-15.9 0 0-23.2-20.7 32.5-49 22.3-11.2 22.6-31.2 36.4-44 13.5-12.3 32.4-5.3 32.4-5.3l47.2 57.6s-17.3 25.7-21.7 85.6c0 0-.8-13.9-6.4-13.9l-16 .4v4.9s-6.5 6.3 0 11.5c0 0-30.8 4.6-33.4 21.8-14-.7-31.7-2.3-53 13.4-24 17.6-29.2 51.4-29.2 82.8M1084 166s-14.9-5.2-14.4-17c.8-19 30-1.6 25 25-1.5 7.5-2.5 14.4-2.5 14.4s-13.7 1.8-10.4-11.8l2.2-10.7zM1414.2 51.4l12.2-8.6 21.4 40.4s-57.1 35.3-64.2 41l-11-17 50.2-28.2-8.6-27.6z"/><path d="M1719 1097c8.9 2.2 29.9-1 29.4-26.3l-45.4 9.3s.3 13 16 17" fill="#FFC4BC"/><path d="M1774 1093.9l5.1 28.1s14.5-6.6 33.1-28.1l-12.6-8.3-9.4-9.9s-13.8 3.2-16.1 18.2M1660.3 1010.7s34.6-28.6 61.7-16.4c14.2 6.5 54.4 36.8 54.4 36.8l4.4 7.9s4.8 1.4 6.8 2.4c6.4 3.1 9.5 9.6 8.2 11.1-4.1 4.7-15.8-1.3-15.8-1.3l-6.8 12.3-14.2-5.5s-1.5-9.6-15.1-6.7l-30-14-13.5 23-40-26.4-13.5-18.9 13.4-4.3z" fill="#423D89"/><path d="M1786.8 1017.3l62.5-87 21.9 2-4.1 6.4-49.2 102s-1.7-7.7-10-14.6a35 35 0 0 0-21.1-8.8" fill="#33333D"/><path d="M1887.5 926.3c0 11.8-11.3 19.8-23.1 19.8s-25.5-10.7-25.5-22.5 13.5-22.6 25.3-22.6c3 0 8.5.4 8.2 4-6 6-20.7 16.6-12.2 23.4 7.3 5.9 13.1-2.8 23.5-12.7 3.5 1.6 3.8 7.2 3.8 10.6" fill="#33333D"/><path d="M1687.2 1323.1s8-14.4 25-28.2a120.8 120.8 0 0 1 59.6-24.4c48.4-7 65.4 10.3 98.7-29.3 0 0 18.3 7.6-3.3 35.3a118.7 118.7 0 0 0-19.7 35.7c-3 9.2 3.2 18.2 12.6 23.2 24.7 13.1 69.3 38.3 65.4 47.4-5.3 12.7-14 5-19.3 14.7-3 5.3-15.7 3.5-34.1-2.2-15-4.6-65.6-1.6-95.2-5.6-29-3.9-43.8-21.9-43.8-21.9l-46-44.7zM397.8 1124.2v-39.9l-30.5-7.8s-7 3.8-16.2 1.6c-7.9-1.9-11-8.6-11-8.6l-16.7-4.3s-3.8 13.5-15.4 10.2c-11.7-3.3-6.9-15.9-6.9-15.9L279 1054s-3.4 14.2-15.6 10.8c-12-3.3-5.4-16.2-5.4-16.2l-6-1.6s-3.8 19.1-15.4 41.3c-7 13.4-23.2 30-23.2 30l10.4 13 130.2 2.2s14.3-9.2 44-9.2M315.7 967.7s-8.3-35 22.1-59.3a51 51 0 0 1 34.1-13.2s-35-13.3-48.5-45.8c0 0-35.1 3.8-59.7 32.2-19.8 22.9-24.2 33.2-29 41.5 9 4.8 81 44.6 81 44.6" fill="#423D89"/><path d="M468.9 822.5c8.4-2.3 44 14.6 43.8-2.5 0 0-8 2.3 0-16.1 4.2-9.7 8.1-17.9 8.1-17.9s-22.2-7.4-41.8 6c-19.5 13.3-37.5 14.3-54.5 15.4-17 1.2-25.5 16.3-20 36.5 5.5 20.3 32.6 16.5 44.8-3 8.6-13.6 13.4-16.7 19.6-18.4M574.1 749.6c2.8-3.2 10.3-7.5 7.7-14-3-7.3-16.9-10-21.2-9.5-7 .9-21.1 10.5-18.4 22 .8 3.2 2.5 1.4 7.3 4.1 0 0 12.6 11 24.6-2.6" fill="#03DAC6"/><g transform="translate(0 405.3)"><mask id="aR" fill="#fff"><use xlink:href="#aQ"/></mask><path d="M243.5 49.2s-7.4-8-4.2-33c0 0-30.6 5.6-42 5.7-8 0-8-21.6-8-21.6s-33.3-4.6-52 32C118.4 68.6 92 92 70.4 92 49 92 41.7 79.4 41.7 79.4L-24 60l17.7 44.8s49.7 10.1 73.4 22.6C90.7 140 83 155.1 78.8 187c-3.2 25.3 37.7 30.7 37.7 30.7s-27.9-59.4 19.9-108.8c48.8-50.5 107.1-59.7 107.1-59.7" fill="#423D89" mask="url(#aR)"/></g><g transform="translate(1825 1095.3)"><mask id="aT" fill="#fff"><use xlink:href="#aS"/></mask><path d="M89.3 57.5c8.6-7.7 105.6-16 105-20.6-.2-2.1-15.3-34.9-44-36.6-12.3-.7-35.4-3.3-77 35.3-16.1 15-21.4 18.5-35.7 31.2A1306.7 1306.7 0 0 0 1 100.1v37.1s24.3-19.5 46.5-40.4c17-16 28.4-27.2 42-39.3" fill="#423D89" mask="url(#aT)"/></g><path d="M1188.4 1153.9s62.1-17.6 76.8 35c0-24 16.5-53.1 56.8-50.5l42-54s-34.3 28.4-67.7 21.6c-14.5-3-23.4-9-23.4-9s-48.7 41.9-84.5 56.9M1278.9 1323s26.1-6.3 55.4-30.3c0 0-29.8-16-25-55.1 0 0-28.7-6-40.3-36.7.4 10.6 0 17.7-8.3 44.9 0 0 5.5-10.1 14.3-5.4 5.6 3 4.5 10.7 1.2 16.6a53 53 0 0 1-11.8 15.6c11.8 2.8 14.5 50.4 14.5 50.4M1363.4 1406.8s18.2-15.8 32.3-25.8c0 0-3.4-45.7-7.8-45.7-3.3 0-6.3 22.2-7.6 33.8-.5 4-2 8-7.5 10l-9.4 3.2v24.5zM1399.4 1043l-7.8 13.3s54.7-13.9 74.4-26.8c.4-5.6.3-8 .5-11.6-11.7 6.2-41.1 20.5-67 25.1M1394.2 842c-8 1.6-7.2 16.4 0 27.8 7.4 11.6 21.3 19.6 26.9 11.2 2.6-4 13-24.6 7.7-33.6-5.5-9.4-26.7-7-34.6-5.4" fill="#423D89"/><path d="M1123 838.7l30.1 7.2s4 23.3-21.5 46.7c0 0 1.7 13.2-3 17.9-5.8 5.7-23.6 9.8-35.7-3-12-12.8-16-12.6-10-22a46.2 46.2 0 0 1 15.2-14c5.1-3.1 14-5.4 18-9.5 10.6-10.7 7-23.3 7-23.3" fill="#FF0166"/><path d="M1862.7 287.2l107.6-1.5s13.8-6.6 15.7-14.5c2.5-10.7-8.2-27.3-33.3-27 0 0-1.2 12.3-16.6 22-23.5 14.6-30 14.7-30 14.7l-21.5-6.5s-22 1.2-22 12.8M1903.5 244.5h-41.8s-2.5 8.4 6.8 12.6c9.4 4.2 31.4-.2 35-12.6" fill="#423D89"/><path d="M1884.9 244.5v-54.6c0-22.6 3-26.5 15.4-26.5h11.1V186s-6.7 6-11 6c-4.4 0-5.6.4-5.6 8.9v43.5h-10zM1861.7 244.5s7.3-1 9.4-12.6c1-5.6-2.5-15-10.2-15.9-11.9-1.3-17.1 5.5-17.3 15.2-.2 6.3 5 12 5 12 7 .6 7.7 1 13.1 1.3" fill="#423D89"/><path d="M1169.3 984.3l20.8 32.7 32.5-42.2-20-11.6s13 1.1 13.6-2.6c1-5.9-20.5-7.1-44.7.4-14.9 4.7-2.2 23.3-2.2 23.3" fill="#FF0166"/><path d="M1258.3 955.1l56.6-39.9s-6.5-31.7-33.6-36.5c0 0-1.3 12.1-8.4 12.1-7 0-5.6-7.8-5.6-7.8s-2.5 6.4-12.1 6.3c2.5 6.1-2.7 15-2.7 15s-3.7 16-4.5 26.6l10.3 24.2z" fill="#423D89"/><path d="M1225.6 871.2l55.7 7.5s-2-19.2-20.4-30.1c-6.3-3.8-11.1-5.1-23-6.3 0 4.8-2.8 12.3-11.7 10.6-1.6 3.6-4 11.6-.6 18.3" fill="#FF0166"/><path d="M1402 634.2s-8.3-1.3-10.6-13.4a86.3 86.3 0 0 1 3.2-46.6l8.6.3 3.6 20.2s-9.7 7.4-2 15c3.2 3.2 11.5 3.5 16.7-5.4 2.7-4.5 1.6-10.8 1.6-10.8s1.3 3.7 7.3 3.2 6-16.6 4.4-28.2c11.4-6.6 14.2-9.9 14.2-9.9s12.8 34.3 0 51.2c-12.8 16.8-7.3 24.4-7.3 24.4H1402z" fill="#F6C0B8"/><g transform="translate(907 1246.3)"><mask id="aV" fill="#fff"><use xlink:href="#aU"/></mask><path d="M59.3 119.4c-6.9 9.2-21 12-28.8 8.2-10.8-5.1-13.7-21.5 11.7-34 16.3-7.9 27.5-8.4 30.2-3.7 4.2 7.3-2.7 15.7-13.1 29.5m99.2-84.6L131 0 17.7 80.4c1 23.3-8.7 29.8-8.7 29.8s12.4 17.1 10.2 40.8C17.1 174.6 1 193 1 193s38 44.8 45.7 0c7.8-44.8 35.8-53.4 35.8-53.4S90.1 110 87 83.5c-3.3-26.5 9.5-25.8 9.5-25.8-6-15.3-1-21.5 10.9-30.5 11.8-9 24.5-20 32.3-2.8l29.9 66.4-3.3 10s-13 8.6-22.6 15.5c-9.7 7-11.7 17.4-8.1 23.3 7 11.7 24.2 8.6 35.9 0 19-14.2 23.9-31 23.9-31a349.8 349.8 0 0 1 18.6-36.3c-21.7-5.3-38.5-15.9-55.4-37.5" fill="#423D89" mask="url(#aV)"/></g><g transform="translate(780 1352.3)"><mask id="aX" fill="#fff"><use xlink:href="#aW"/></mask><path d="M14.2 0h20s1 51.3 15 64.2l-11 34.5s-6.7-15.4-20-33.8A297.1 297.1 0 0 0 .9 43.3l3.5-4S14.2 26.8 14.2 0" fill="#423D89" mask="url(#aX)"/></g><path d="M716 1380l-16.6 36.3-37.4-17 29.3-30.5s12.7 4.6 24.7 11.3" fill="#423D89"/><g transform="translate(123 1304.3)"><mask id="aZ" fill="#fff"><use xlink:href="#aY"/></mask><path d="M.3 139.7l71.8-86s7.7-15 21-20c8-3 20-2.5 24.7-8.4 8-9.7 12.3-24.6 12.3-24.6s5.4 3.6 7 13c1 4.8.4 7.2-1.1 15.9-2.7 15-6 40.4-18.2 69.8 0 0-61 44.2-117.5 40.3" fill="#423D89" mask="url(#aZ)"/></g><g transform="translate(0 1379.3)"><mask id="bb" fill="#fff"><use xlink:href="#ba"/></mask><path fill="#423D89" mask="url(#bb)" d="M31.8.8l6.4 8.3-43.7 54.6-9.7-5.4z"/></g><path d="M40 1369.9s8.3-9.7 12-14.3c3.8-4.6 8.6-5.6 11-5.3l4 .6-20.5 27.2-6.5-8.2zM278.3 615.2s22.8 35.4-40.8 73.8l-6.5 4c-64.8 5.6-106.6 77-66.5 189.7l36.3 49.6s-24.1-52-22.3-125.5c1.7-73.4 29.2-22.8 29.2-22.8l18.4-7.4s-21.2-10.8-12.8-36c5.3-15.7 36.7-28.7 63-51.6 26-22.5 31.2-44.3 30.7-63.4h30.8s5-34.3 36.3-64.9l-30.2-4-11.5 8.8-54 49.7z" fill="#423D89"/><g transform="translate(0 729.3)"><mask id="bd" fill="#fff"><use xlink:href="#bc"/></mask><path d="M-4.8 2.3s27.5-5.7 46.1 5.5C49.8 13 59.1 17.4 64 27.4c6 12.2 6.6 31 5.7 50.2-1.6 35.1 45.6 8 60 28.2L98.2 123c-16.4-10.3-42.4-2.5-49.5-29.3-7.1-26.7 8.3-53-16.5-67.6-24.7-14.5-44.7-.3-44.7-.3l7.7-23.5z" fill="#423D89" mask="url(#bd)"/></g><path d="M697.2 723.5s-11.1-32.4-43.8-24.1c-2.6 4.5-8.3 10.4-15.7 8.5-11.6 10.4-9 31-9 31s-7.5 16.6-19.2 21.7l5.4 16.4s10.4-5.7 12.2-10.5c0 0 2.9-18.8 19.7-11.4 6.4 2.8 11.1 7.8 15.4 11.4 5.3 4.5 10.3 5.2 14 1.3 2.6-2.8 2.9-8.4-2.2-13.2-3.4-3.2-7.8-7.4-12-13.5-10.1-14.9 3.3-26.3 12.6-24 9.3 2.4 13.9 10 22.6 6.4M525.8 889.9s13-2.5 21.5.7c7.8 3 13.2.9 16.9-3.3 3.6-4.2 2.8-8.2 0-10.4-5.1-4-10 3.2-19.2 0-9.1-3.3-18.9 0-19.2 13M616.9 842.2s17.6 2.3 29-7c11.4-9.3-5.2-20.7-16-10-5.2 5.3-14 8.6-16 11.4-2 3 3 5.6 3 5.6M326 153c-16 0-20-8.8-20-8.8v-10.3c0-4.5 6.5-7.1 6.5-7.1s-4.2-29.7 17.1-29.7c10 0 13.7 7.7 13.7 15.2 0 7.4-2.5 15 3.5 19.6 4 3.2 1.4 15.1 1.4 15.1s-6.3 6-22.3 6m89.4-35.1s-13.6-1-26.5 0c-6.3.5-16.6 4.3-16.6 14.5 0 10.6 4.3 12.4 10 14.7 12 4.7 9.4 20.8 9.4 20.8-18.1 12.6-41.6 1.9-41.6 1.9s-2.5-9.8 3-17.3c5.8-8 2.4-11 5.6-29.7 3-18.8 27.4-12.2 27.4-12.2l-87.5-29.2 1 36.5-128.9 39.3 113.3 22.5-78.7 36.4s3.4 4.4 6 13.2c2.7 9.3.3 14.2-4.4 15.7-3.5 1.2-8.5 1-12.3-5.7l-8-14.6-44 20.3c40 29 42 83.2 42 83.2s43 17.3 84.5-8.1c41.4-25.4 46.8-65 73.2-91.8 14.4-14.5 45.2-38.2 52.1-49 16.6-26 21-61.4 21-61.4" fill="#423D89"/><path d="M967.5 653.3c5.5-.4 9 3.2 9.8 7.3.8 4.2-1.8 10.7-7.4 11.5-17.2 2.6-14.7-23.5-14.7-23.5l12.3 4.7z" fill="#EDE8D7"/><path d="M1814.7 471a23.2 23.2 0 0 0-19.6 29.6c1.3 5.1 6.7 10 12.3 11.8 9 2.9 18.5 2.5 20.4-.9 3.3-6.2 9.7-7.6 14.3-7.4-.6-5.7-1.6-9-1.2-13.5-.3-2.6-1.2-6-2.4-8.5-4.8-10.7-16-12.3-23.8-11M1914.6 447.2c-.4-7.5 1.9-11.4 4.1-13.6 3.9-3.8 12.8-2 12.8 5.4a21 21 0 0 1-4.4 11c-.6.7-1.2 1.7-.6 2.4l.8.4c2.7.8 5.5 1 8.3 1.7 2.7.6 5.5 1.7 7.3 3.8.2.2.4.4.4.7.1.7-.7 1.2-1.4 1.4-5 1.3-10.2-1.8-15.4-1.3-1.3.1-2.8.6-3.1 1.9-.3.7 0 1.5.2 2.3.4 1.6.6 3.3 0 4.8s-2.2 2.7-3.8 2.3c-2.8-.7-4-6.4-5.9-5.9-1.8.5-.6 3.3-4.8 5.5-2.2 1.2-5 .7-7.6.6 1.2 2.4 2.5 5 2.4 7.7 0 2.8-2.3 5.7-5 6.1-.4 0-.2.7-.6.5-.9-.4-1.2-2-1.5-3-.4-1.7-1.2-3.9-3.5-3.9s-2.5 9-4.4 13.2c-1 2.4-3.6 6.8-6.2 6.6-.1 0-3.1 1.4-2.6-.4.4-1.4 3.2-10.8 3.7-14.6-4.4.2-10.4-4.2-11-9.5-.9-7 3.7-11.6 6.8-13.4 5.1-3 12-2 17 1.2-.9-2 .2-6.9 3.7-9.2 3.3-2.2 6.3-2.5 10.4-1.6 4.5.9 4-1 3.9-3.1M1925.4 953c-9.3 16.7-2 27.8-1.7 31 .2 2.5-5.5 4-7.8 8.1-2 3.5.2 8 4.3 7 4.5-1 7.6-2.8 11.5-5.7 5.9-4.4 5.6-9.8 5.7-13.1l.2-12s-6.1-6.6-12.2-15.2M1947 977.7s1.5 7 3 13c.9 3.3 1.3 6 1.1 7.3-.1 1.3-2 3.1-3.7 5.6-3.1 4.5-3.7 10.2.1 11.6 5.7 2.2 12.3-8 12.7-13.8.5-5.9 1.4-12.5 1.4-12.5s-9.5-6.5-14.6-11.2M1966.4 972.5s2.7-11.6 4-28.7l-17.9 8.2-.2 7.1s7.5 8.3 14.1 13.4M1398 1251.7c-11.7 7.4-28-.6-23.7-14.3 3-9.8 11-11.3 17.3-8.3 2.6 1.3 5 3.6 6.4 6a20 20 0 0 1 2.5 12.8c-.3 1.5-2.5 3.8-2.5 3.8M1414.2 1249.5l15.3.4-5.4-30s-11.2 4.6-11.2 11.8v9.6c0 1.8-.7 1.5-1.7.2-.8-1-1.6-1.4-2.2-1-.8.6-.3 2.6 0 3.2 1.7 3.7 5.2 5.8 5.2 5.8M205 1154.9c5.2-3 15.1 2.6 26 9.6a94.8 94.8 0 0 1 24.3 21.6s-15.4-12-36.1-.2c-6.6-.8-8.8-1.3-12.6-2.6-8-2.8-7.5-12.3-6-19 .9-4-.9-6.4 4.4-9.4M127.4 1148s44.2-2.8 39.4-33c-2.9-18-20.3-20.7-32-17.7-17.1 4.3-38.3 25.3-40.2 44-.8 8.2 0 18 3.7 26.4 4 9.4 11.6 17 24.2 17.5 12.9.6 16.7-13.9 14.3-24a23 23 0 0 0-9.4-13.2M270.6 1010.8c6.3-.5 14.9 3.1 17 8.7 1.3 3.4 6 1.8 8 5.6 5.7 12.3-6.6 10.6-11 17.7-3.4 5.4-13.3 7.1-20.7 3.6-5.2-2.5-10.6-8-9.9-19.1.7-10.3 7.7-16 16.6-16.5M44.3 292.7s5.4 3.3 10.1 4c8 1.3 15.7-2.7 19-16 .4-1.8 4.5-8.2 4.3-10.4-1.7-15.4-2.8-2.8-2.8-2.8s-2.1 2-10.2-3.5a38.6 38.6 0 0 1-20.4 28.7M69 408h60.7s-.2 11.9-8.7 21.5c-5.5 6.3-17.2 10.5-25.4 13.7C80 449.2 79 466 79 481.6c0 3-33.3 4.4-33.3 4.4S21 408 69 408M353.9 1201v24.6H312l.3-24.9zM353.9 1243.3v25.4l-25-25.6z" fill="#423D89"/><path d="M397.8 1084.3l271.7-101.2v50.2c0 11.5 17.8 21.5 37.3 13.6 16.8-6.7 34.6-28.4 45-54 0 0 11.2 1.4 23.6-18.6 11.4-18.5 21.2-15 21.2-15s-4 11.2-2.5 23.2c1.4 11 8 22.7 17.2 26.8 1.7.8 6.7.6 4.7-6.8-1.5-5.4-3.5-11.4-5-20-.7-4.4 1.3-8.6 2.6-11.7 2.3-5.5 6.8-4.4 7.4 1.7 1.4 14.5 4.9 38.9 12.4 38.3 10.7-.9 1.4-36.3 4.4-48.2 0 0 7.5-7.2 14.7-11.6 3.2-2 6.5 1.1 3.5 6.3-5.3 9-11.6 22.6-7.4 29.1 6.5 10.3 50.4-49.7 40.1-100.6 0 0 6.7 6.8 29.8 8.1v108.8l-24.7 16.1s-34-5.5-67.3-.9c-33.4 4.6-43.5 8-49.4 11-27.7 13.7-27.2 35-27.2 35s-97.3 31.8-131.6 45.2v-54.6l-135.2 49.3s-18.5-11.2-40.3-3.5c-18.6 6.5-22.9 25.8-22.9 25.8l-22-2v-39.8zM646.5 1170v-49.7l178 19.8v55.4l-43.7-3.7s6.6-6.5 13-13.5c7.4-8.3 10-14.7 3.5-18.3-6.7-3.7-20.8 7.9-30.6 17.7-7.8 7.9-11 10.6-11 10.6l-30.2-4.6s8.1-7.4 15.1-15.5c5.8-6.7 5.6-16.1-.8-19.7-6.5-3.7-17.8 3.3-29.3 15.6-7.2 7.7-13.5 13.7-13.5 13.7l-50.5-7.9zM825.4 1075.7c-15-.5-19 12-19 17s4.6 15.6 19 15.6c14.3 0 18-11.1 17.6-18.4-.3-7.2-7.7-14-17.6-14.2" fill="#33333D"/><path d="M775.6 1081.2l-26.2-25.5v13.2l17 19.1c6.5 7.5 14.5 11.2 20.5 11l32.3-1.5-4-13.7s-19.3 1.7-24.4 1.8c-5 .1-11.5-.8-15.2-4.4M578.3 1380c-32.5 14.7-84.4 3.3-91.1-24.6-6.7-27.8 14.9-76 89.7-131.4l27.1 5.4s-38 26-65.1 57.5c-18.1 21-30.9 45.8-26.6 61.5 8.4 31.7 70 10.5 70 10.5l-2.4 19.2-1.6 2z" fill="#33333D"/><g transform="translate(406 1334.3)"><mask id="bf" fill="#fff"><use xlink:href="#be"/></mask><path d="M152.8 117.5L22.2 0A147.3 147.3 0 0 1 0 16L124 119l28.8-1.5z" fill="#33333D" mask="url(#bf)"/></g><path d="M231.5 1328.8c-19.4 11.6-33.1-4.6-19.8-22 13.4-17.4 28.6-22 28.6-22s10.6 32.4-8.8 44zm160.3-27.1v12.7h-26v-33.5l-12-12.2-41.4-.6v-25H329l-58-59.8s-68 95.2-116.3 110v44.3s37.1-11.7 40.4 20.4c0 0 5.1-6.4 16.7-13.1 5.2-3 12.2-4.4 19.7-8.2 17.6-9 19-16.4 23.8-26 2.7 3.3 5.8 10 3.7 23.2 0 0 17.2-4.9 25.3-18.2v-8.4c0-3.9 2.5-7 12-7h53.2l42.6 37.7c10.2-6 17.5-11.6 22.4-15.9l-22.7-20.4zM353.9 1133.4c-23.3 10.6-24 34.4-24 34.4s-40.4-9.6-59 15.5l-47.2-52.2 130.2 2.3z" fill="#33333D"/><g transform="translate(1446 1302.3)"><mask id="bh" fill="#fff"><use xlink:href="#bg"/></mask><path d="M162.5 0C148.8 12.6.4 140.7.4 140.7l113.5-2.9s50-28 55.2-67.3c5.3-39.4.2-53.7-6.6-70.3" fill="#33333D" mask="url(#bh)"/></g><g transform="translate(1624 1322.3)"><mask id="bj" fill="#fff"><use xlink:href="#bi"/></mask><path d="M63.2.8L.6 1.5s30 38.5 27.3 76c-1.1 15.7-12.1 38.8-12.1 38.8h131.7s-5-25.3-13-41.7c-7.3-14.8-25.2-30.5-40.7-45L63.2.8" fill="#33333D" mask="url(#bj)"/></g><path d="M1870.5 1241.2l38-20.6s-5.4 61.5 56.8 85.1c0 0-.9 25.7-36.2 17.4-25.6-6-46.1-33-54.7-57.6 5.7-14.6.5-20.8-3.9-24.3" fill="#33333D"/><g transform="translate(1914 1124.3)"><mask id="bl" fill="#fff"><use xlink:href="#bk"/></mask><path d="M.3 28.5S50.3-19 98 9.1V69S35.1 84.7.3 28.5" fill="#33333D" mask="url(#bl)"/></g><path d="M1700.4 1060.3s-1.7-12 8.6-20.5c3.8-3.2 26.5-10.1 34.9 11.5l-43.5 9z" fill="#FFC4BC"/><path d="M1799.6 1085.6s6.7-7.6 3.2-17.6c0 0-11.4 2.4-22.4-1.8l-21.4-8.2s2.8 11.2-10.6 12.7c0 0-1.2 19.5-15.8 25.5 0 0 28.3-7.4 41.5-2.3 0 0 10-1.2 17.9-13.5l7.6 5.2z" fill="#33333D"/><path d="M1883 1123.4l15.3 7.5s20.8-32.7 28-50c7.3-17.2-6-18.4-22.7-29.6a398 398 0 0 0-31.2-18.8s-7.6 5-14.3 3.6c-7.5-1.4-17.3-9.8-11.1-24.4 7-16.4 23-12.2 29.2-4.6 4.3 5.3 3.4 13.2 3.4 13.2l61 36.4 10-14.4s-38-18.9-45.8-51c-8.8-35.6 6.2-66.6 6.2-66.6s-9.6-27.2-27.3-9c0 0 10.9 25.3-20.2 30.3 0 0-41.9 60.8-55.6 80.1a26 26 0 0 1 10 14.6s3 10.4-2.3 19.6c4.1 7.1 6 18-3.4 33.6l9.4 5s20.8-57.4 56.4-42.4c28.6 12.1 5 66.9 5 66.9" fill="#423D89"/><g transform="translate(1646 782.3)"><mask id="bn" fill="#fff"><use xlink:href="#bm"/></mask><path d="M275 127s11-22.6 34.3-45.7c21-21 73.4-27.4 73.4-27.4l-67.1-21.2-48.2 59.9c-5.9 7.1-15.6 12.1-24.4 8-8.8-4-12.9-6.2-12.9-6.2s-10 4.2-17.2-1.8c-4-3.3-6.2-9.9-4.9-14.7 1.3-4.8 5-9.2 10.7-10.8 3.7-1 10.7-.8 15 3.4 4.2 4.2 4.7 12.2 4.7 12.2l9 4.4c3.2 1.5 7.5-1 10.5-4.4l44.4-55L234.8.2l-72.4 72.6-32.6 32.8s30 18.6 42 26.4c11.8 7.7 10.5 14.2 4.5 21.4l-46.5 56.4-59.4-42.9L.9 232.7l16.9 14s38-42.3 60.5-28.9l52 31 70.7-94s-11.7-20.3 6-30.5c12.7-7.3 19.4-1.7 19.4-1.7s10.2-11.9 27.2-11c15.5.9 21.5 15.5 21.5 15.5" fill="#423D89" mask="url(#bn)"/></g><path d="M1661.2 784.6c-7.3-17.5 10.3-29.4 31.7-38.7 16.5-7.2 25.4-11.7 30-23.9 6.3-16.4 0-31.7-13.5-42.9-25.8-21.3-61.3-13.4-81.1 7 0 0 19.5-11 32.1 11.1 9.4 16.5 1 36.7-15 49.3-16 12.6-22 27-22.1 38.1h38z" fill="#33333D"/><path d="M1594.6 813.7s-1.7-15.3-4.1-29c-6.7-37.6 10.4-68.3 37.8-98.5 20-32.2 26.9-41.4 34-58.4 11.6-28.2 14.2-44 10.7-64a43.5 43.5 0 0 0-18.9-30.6c-15.3-9.7-39.2-8.4-56.4 5-21.6 16.7-22.8 35.7-22.5 51.4.2 6.9 3.7 10.2 9.3 10.2a9 9 0 0 0 9-9.1c0-4.4-2.5-33.2 23.3-43.1 25-9.7 46.3 10.1 37.3 49-9 39-48 86-66.5 117.9-18.3 31.8-19.4 56-7.3 112.5 0 0 2-1.4 6.7-5.6 6-5.2 7.6-7.7 7.6-7.7M1394.2 842l60.4-12-33.5 51s8.4-11.4-4.6-28.8c-10.3-13.7-22.3-10.2-22.3-10.2M1466 825.6l69.8-52.5s-7.5-17.4-30.7-18.1l-76.8 48.8s18.5-4.4 37.6 21.8M1470 888.2v-18.9l67-56.4c3.3-2.8 3.8-3.7 5.5-7l22.8-43s2.9 22.7-9 47.2c-8.9 18.2-18.4 32.2-18.4 49.5 0 0-30.4 25.2-68 28.6M1470 888.2l-32.8 30.1 32.7 21.3zM1412.9 916.2l-12.7-9.6-76 93.4s4.8 6.9 19.4 12c5 1.6 13.4 4 20.3 6.6 28.5 10.9 27.7 37.7 27.7 37.7l7.8-13.3s1.5-24.3-26.8-35.4l-23.7-9.4 64-82zM1315 915.2s2.3-33.7 23.3-61.8c0 0-11 5.7-23.4 6.7-14.3 1.1-30.5-1.2-33.6 18.6 0 0 25.3 4 33.6 36.5" fill="#33333D"/><path d="M1244 1039.8s29.1 11.4 57.3-19.7c28.1-31.1 13.6-104.9 13.6-104.9l-71 124.6zM1334.3 1292.7s14-8.3 42.5-60.5c4.5-8.2 12-24.7 17.3-34.6 24.2-45.2 43.5-60.5 63.4-74.3a114.1 114.1 0 0 1 35.7-13.9s-34.1-.4-48.1-.2c-39 .4-78 4.7-101 39.9 10 13 8.6 22.4 4.2 39-1.9 7.1-5.7 23.8-2 34.3 4.1 11.3 14.2 17.7 14.2 17.7s-24.7 5.3-51.3-2.5c0 0-10.3 36.4 25 55" fill="#33333D"/><path d="M1410.8 1368.8V1299c0-6.3 1.7-10.4 4-13.6a65 65 0 0 0 10-36.2c0-15.5-11.9-14-11.9-14v-4.4c0-.6-.4-1.7-2-1.7h-4.8c-1 0-1.2 1.8-1.2 2.5l.2 15.8c0 1.4.5 1.9 1.8 2l7.3.1s-3 16.9-9.1 16.9-5.9-12.8-10-13.1c0 0 4-3.8 4.3-10.5.2-3.5-1.4-7.7-1.4-7.7s22.3-100.4 120-125.7l38.7-31.3s21-4 23.6 5c1.2 4.1-.6 8.7-3.6 10.8-6 4.3-20-2-20-2v24.2s-19.2 1.9-38.7 14.3c-16.2 10.3-28 32.9-28 58.7h22.8s-4.2 22.6 12.6 52c16.8 29.6-3 42.2-33.7 66.7-30.6 24.6-80.9 61-80.9 61" fill="#33333D"/><g transform="translate(1898 408.3)"><mask id="bp" fill="#fff"><use xlink:href="#bo"/></mask><path d="M.1 76.5L21.8 62s1.2.2 2.3-.6c1.2-.8 1.6-2.1 1.6-2.1L113.4.6v138.2L61 79 0 76.5z" fill="#33333D" mask="url(#bp)"/></g><g transform="translate(1818 185.3)"><mask id="br" fill="#fff"><use xlink:href="#bq"/></mask><path d="M2.9 89s-12 31.9 14 41c17.9 6.2 26.5-.8 26.5 11.5s-3 24-3 24l6 7.4s20.7-71.1 132.5-19.1c111.8 52 17.8 6.3 17.8 6.3V53.5h-52V16.3c0-11.8-.4-15.6-14.5-15.6H85.5C78.1.7 76.8 2 76.8 12v47.3h60c8.6 0 42.6 5.3 15.5 41.2H17C5.4 100.4 3 89 3 89" fill="#33333D" mask="url(#br)"/></g><path d="M1803 222.6c-17.4-9-23-38.4-23-38.4s7.8 2.7 14.9-.3c8.2-3.4 10.7-10.7 8-19.5-1.5-5.1-6.4-13-6.4-13s-.6-7.3 6.5-23.5a88.4 88.4 0 0 1 24.8-31.3s11 .6 17.9 6.3a28 28 0 0 1 10 19.4c0 9.7-6.8 20.6-14.4 26.6-17.6 14-19.6 27.4-9.8 41.7 16.8 24.5-11.9 40.6-28.5 32" fill="#03DAC6"/><g transform="translate(1616 -.7)"><mask id="bt" fill="#fff"><use xlink:href="#bs"/></mask><path d="M105.3-1.2L.9 112.6v37s23.8 1.5 35-26c11-27.5 28.5-10.4 28.5-10.4S90.4 53 105.3 53V-1.2z" fill="#03DAC6" mask="url(#bt)"/></g><path d="M1617 149v25.6c0 4.8-10.9 4-16 4-5.3 0-3.4 7.8-3.4 16.4 0 0-17.4 8.3-19.3-13.7-1.9-22 1-44.9 14.6-44.9v8.8c0 2.1 1.5 4.1 5.6 4.1 5.2 0 9.7-.4 18.4-.4M1566.4 379.8V259s7.6 40.6 67.3 31v37.9s-11.2-8.7-23.4-9.2a34 34 0 0 0-30.5 15.8c-13.6 23.4-13.4 45.3-13.4 45.3" fill="#33333D"/><path d="M1388.2 393s-13.4 1.3-15.5 15.1c-2 13.8 6.9 23.1 34.4 28 27.4 4.8 35.8 23.3 8.6 50-27.2 26.8-41.4 49.4-41.4 66.2 16.2-.5 36.7 2 49.9-4.3 16.6-8 17.9-31.5 31-46.9 13-15.3 21.9-18.6 35.2-20.3a33 33 0 0 1 38.2 33s25.2-63.4 99-36.2c0 0 33.5-15.2 33.5-60.9v-48.3l-48.3-2.2s-1.5 24.4-6.1 46.7c-3.5 16.6-10.5 26-20.9 30.6-15.6 6.9-29.7-2.8-26-18.5-23.5 7.8-69.8 22.5-107.9 2.3-9.9-5.2-7.6-19.2-7.6-19.2s-36.3 8.5-56-15.2M1149.7 615s31.4-15.6 64.3 3.4c0 0 49 57.4 61.3 71.5 12.3 14.1 12 20-3.7 32.4-15.7 12.4-24 16.8-43-6.7-19-23.6-78.9-100.5-78.9-100.5" fill="#423D89"/><path d="M1053.7 723.8s19 2.3 62.8-15.3c43.7-17.6 68.3-34.4 33.2-73.6-35.1-39.3-57.8-64-40.3-94.6 12-21 28.4-43.3 16.4-64.4-15.8-27.9-44.6-21.2-28.8-75.2 0 0 39.7 27.5 101-30.8 21.4-20.5 10.2 3.6 10.2 3.6s18.2-22.3 16.3-50c-1.2-16.6-5.2-38-31.5-53.7 0 0-35 22.5-74.7 58.2-25.3 22.7-51 52-75.5 80.1v76.5s38.2-18.5 50.5 1c4 6.5 2 17.7-5.3 27.2-14.5 19-42 40.8-25.8 69.8 6.8 12.1 29.6 37.3 28 78.4-1.4 41.1-36.5 62.8-36.5 62.8" fill="#423D89"/><path d="M1306.8 490.3c-.7 16.2-5.8 20.3-11 29.1a40.6 40.6 0 0 0-3.8 25.4c1 8.7 3 14 3 14s45.5-7.4 46.2-39.7c.3-17.7-17-28.8-34.4-28.8M1414.2 51.4l-70.1 40.8 17.3 31.8 71.4-41.3z" fill="#33333D"/><g transform="translate(1049 -.7)"><mask id="bv" fill="#fff"><use xlink:href="#bu"/></mask><path d="M398.8 83.9s17-13.9 9.7-36.1c-5.5-16.6-20-27.1-71.7-29.4-27.7-1.2-59.6 2.3-67.5-21.6-11.6-34.7-59.7-.6-77.8 19.5-34.7 38.6-88.5 9.3-130.4 32.5C29.1 66.4-.8 95.6.5 181.5c0 0 11.7-8.8 23.8-6.8 0 0-12.4-5-4.8-20.7 7.7-15.7 29.8 1.3 26 20.7a139.7 139.7 0 0 1 57.1-51.3s1.6-25.7 22.6-48.2a77.7 77.7 0 0 1 61.6-26.5c27.7 1.2 40.6 12.7 55.7 20.2 17.3 8.7 39.5 11.8 77.3-8.7 27.5-14.9 37.5-20 37.5-20l7.9 11.8 12-6.7 21.6 38.6z" fill="#33333D" mask="url(#bv)"/></g><path d="M1151.4 143.3s5.8 46.2 50.4 61.2c0 0-40.8 26.2-75.8 55.1 0 0-15 2-30-13.2-15.2-15.2-10.7-32.6-10.7-32.6s14.3-25.6 41.5-52.5c7.6-7.6 19.4-14.8 24.6-18M911.8 398.6l-21.2-14.9s29.9-13.4 34.7-42.3c4.7-28.5 43.7-47.6 58.4-23.6 0 0 6.2-5.8 13-7.1 7.6-1.5 14.7 3 16.7 10 2.3 8.2-2.5 16.6-15.4 27-29.6 23.5-86.2 50.9-86.2 50.9M881.2 449.8l-15.6-11s-30.6 6.6-46.5 21a198.4 198.4 0 0 0-22.8 24.8c-5 6.4-12.9 3.8-10.8-5.6 2.2-9.4 12.4-21.8 27.9-32.7 15.5-11 38.6-16.9 38.6-16.9l-18.7-13s-36.1 9.2-61.1 33.4c-15.4 14.8-20 10.5-22.3 8.3-3.8-3.6-.2-13.8 22.6-30 29.8-21 47.1-22.4 47.1-22.4L807 397s-44.2 12.7-66.6 43.2c-8.9 12.2-20.4 15.6-30.5 21.8-15.2 9.3-27.6 20.3-27.6 42.7 0 0 4.6-16.2 14.4-9.4 5.5 4 .9 17.4.9 31.5l14 11s5.4-19.4 25.1-12c6.8 2.5 10.3 8.7 10.9 15.5.5 7-4.3 16.1-4.3 16.1l8.1 5.6s-4.4-34.2 18-42.6c22.6-8.3 31.2-11.7 31.2-11.7s16.2-55.7 80.6-58.9M961.8 482.9v50c0 16.2 3 25.4 14 23.1 0 0-20.7 5.6-36 16.3-15.1 10.7-26.5 6.7-26.5 6.7s1.7-32.5 14.8-50.6c11.4-15.7 15.5-26.2 14.3-37.7l19.4-7.8zM913.3 579l-19.9-2.6s-16 7.9-42.3 23.8c-24 14.5-58.5 30.5-51.1 62 7.2 30.7 57.8 27.4 96.3 9.7 38.6-17.6 64.4-2 44.8 26.8-19.7 29-19 58.3 19.3 67.5 37.6 9.1 64-9.6 64-9.6l29.3-32.8-13.9-1.4s-7.3 6.2-28.7 7.1c0 0-2 8.8-11.4 10.1-10.4 1.5-13.6-12.3-13.6-12.3s-4.7 3.4-12.8 6c-8.5 2.5-16 1.6-16 1.6s-1.2 1.4-2 3c-1 1.6-2 4.1 2.5 5.7 3.8 1.3 6.8 2.9 5.3 6.6-2.5 6.5-17 2.6-18.7-5a24 24 0 0 1 2.3-15.1s-3.9-3 2.4-13c0 0-9.2-13.6 4.1-30.8 10.7-13.7 13.4-14 13.4-14s-5.7-1-6-9c-.1-5.7 2.7-8.8 6.9-10-1-6-11.5-22-35.7-19.6-36.4 3.5-46 26.8-78.6 22.3a19 19 0 0 1-16.7-14.8c-1-6.8 3-18.6 18.7-22 25.9-5.5 58-13.2 58-40.2" fill="#33333D"/><path d="M1046.3 917.8c1.9-6.9 5.5-13 9-19.1 6-10.3 12.5-20.5 16.3-31.8 4.3-12.9 5-28 12.7-39.3 12.4-18.1 35.6-19.6 45.7-18a45 45 0 0 1 35.5 26.1c3.5 8.4 3.7 20.4 8.7 29.7 6.6 12 14.7 13.3 20.3 21.3 4.5 6.2 6.1 17.8 3.2 28.4 0 0-21.5-35.4-66-22.5 0 0 17.3-11 13.2-43.4l-21.9-10.5s5.5 20.5-15.1 28.2c-20.6 7.8 6.7 31.2-15 40.6-21.6 9.4-28.9 20.8-31.1 43.5a77 77 0 0 1-15.1-14.9c-3.2-4-1.2-15.1-.4-18.3" fill="#423D89"/><path d="M344 556.7c-32.5 19.6-39.9 60.2-22.3 94a89.5 89.5 0 0 0 46.4 41.4c28.6 11 67.4 10.2 99.7-5.8 58.5-29 41.3-72.3 100-103.3 25.1-13.2 30.9-29.6 30.9-29.6.4 0-34.5-2.8-54.8-20.5-12.3-10.6-19.7-28.2-21.5-47.7 0 0-35.4 12.2-53.3 45.6a44.8 44.8 0 0 1-43.3 26c-.7 0-3.2-.6-3.9-.6-23-10.7-60.3-10.2-78 .5M538.2 458.7s4.1-4 8.4-9.6c6.4-8.2 13.8-22.6 13.8-56.2 0-8-1.4-16.4 13.5-25.8 15-9.5 22.8-13 7.8-23.3s-19.2-12.3-19.2-23.7h56.4c15 0 30.2-12.2 30.2-12.2s-6.6-31 11.6-50.7c9.1-9.8 27-8 42.2-9.2 15.2-1.3 35.5-5.7 35.5-30.9V204H722c0 7.8 3.1 20.7-11 25-9.3 2.8-24-.2-39.2 3.7-7 1.8-18.3 6.5-22.5 13.5v-34.4a80.1 80.1 0 0 1-72.3 2c-22.3-9.8-28-30.8-28-30.8h-59.9c-24.7 0-32 7-32 28.1v108.4h79.6c11.7 0 6.6 8.5-10.3 13-16.9 4.4-20 12.5-20 22.7 0 0 27.4 4.3 35.2 16.3 7.6 11.7 17.5 39.6-4.5 71.7 0 0 .7 5 1.1 15.5" fill="#33333D"/><path d="M604.9 427.4s17.4-32.9 49-26.3c31.5 6.6 12.4 37.8-12.6 30.7-25-7-36.4-4.4-36.4-4.4" fill="#EDE8D7"/><path d="M129.7 835.2v-192S155.3 672.8 231 693c0 0-71.2 37.8-75 98.2-3.8 60.5 8.5 91.5 8.5 91.5l-34.8-47.5z" fill="#33333D"/><g transform="translate(0 646.3)"><mask id="bx" fill="#fff"><use xlink:href="#bw"/></mask><path d="M54.8 74.7S26 73 16.7 35.5c-2-7.9 3-13.6 8.5-17.4 5.6-3.8-8-17.5-8-17.5L-7.5 11.9S-6 73 41.3 90.9l13.5-16.2z" fill="#03DAC6" mask="url(#bx)"/></g><g transform="translate(0 912.3)"><mask id="bz" fill="#fff"><use xlink:href="#by"/></mask><path d="M-16 376.3c13.7-9.6 26-22 36.7-34.8 14.2-17 42.7-55.6 29.2-79.3-3.7-6.6-10.7-10.5-16.4-15.4-5.8-4.9-10.7-12.6-8-19.7 3.1-8.8 15-10 24.4-9.4 9.3.7 20.8 1 25.8-7 4.1-6.5 1.1-15.6-4.6-20.7a48.6 48.6 0 0 0-21-9.3c-7.5-1.9-28.6-9-25-25.5 4.3-19 24.2-13 34-22 10.2-9.6 4.6-24-13.6-29C34.4 101 23 92.8 22 81.2c-.7-9.5 6.3-15.1 15.8-14 9 1 11.9 13.2 21.3 11.4a79 79 0 0 1 28.5-21.2c17.5-7.7 30-5.4 51.7-7-1.7-.2-102.1-15-160.6-50.3l5.3 376.2z" fill="#33333D" mask="url(#bz)"/></g><path d="M287.9 1020.5s-16.8-52.3 71.9-78c88.6-25.6 163-30.1 200.8-46.1 49.8-21.2 68.4-30.3 93.5-26 9 4.5 13.7 4.7 13.7 4.7v22s-17.1-9.9-45.8-3.6c-12.7 2.8-36.6 13.7-54.2 21-42 17.4-97 20.2-187.8 46.4-77.8 22.3-66.6 49-66.6 49l14.3-3.7s26.2 18.1 19.3 40.7c-10.9 14.2-6.8 22.6-6.8 22.6l-61.3-15.6s1.1-5.3 5.7-11.1c6.7-8.7 3.3-22.3 3.3-22.3M415.2 1037.3s13-6.9 23-4.3c3.9 1 6.5 2.8 7.7 4.9 2 3.5-.2 7.9-7.6 10.8-11.9 4.6-16.5 5.8-16.5 5.8l-6.6-17.2z" fill="#33333D"/><g transform="translate(339 -.7)"><mask id="bB" fill="#fff"><use xlink:href="#bA"/></mask><path d="M186.8 82.8l-103.5-95-83 2.4 158.9 146.6a71.2 71.2 0 0 1 27.6-54" fill="#33333D" mask="url(#bB)"/></g><path d="M571.4 123.9L538.8 94c-21 18.2-24 39.4-24.5 57l34.8 32c-7.6-35.3 22.3-59.1 22.3-59.1" fill="#33333D"/><g transform="translate(742 -.7)"><mask id="bD" fill="#fff"><use xlink:href="#bC"/></mask><path d="M25.3 106.3s23.6-1 23.3-29.7C48.2 45.9 34 5.8 147.4.6c113.3-5 100-10.4 100-10.4l-77.8 60.2S197 73 213.2 85.8c-16.8 12.5-30.7 25-32 51.3 0 0-11.7-14.5-31.8-20 0 0 11-4.8 16.7-20.2 6.8-18.6 5.2-42.1-14.7-56.8C131.7 25.6 102 25 86.8 36.6 69.3 50 66 66 64.3 91.6 62 125.5 32 140.6 32 140.6s30.4 26 79.5 10l5.6 26.7s-27 6.8-51.3-.3c-11.7-3.4-19-7.9-19-7.9s13 28-4.2 48c-20 23.2-15.2 39.4-15.2 39.4s-32.7-13-25.3-52H14c7.3 0 11.3-4.5 11.3-14.2v-84z" fill="#33333D" mask="url(#bD)"/></g><path d="M780 835.5c7.7 19.3 24.7 13.9 24.7 26.5v26.2s-18.8 20.8-50 22.3c0 0-3.8-26.6 12.8-37.5 16.6-11 12.6-37.5 12.6-37.5M1206.4 1204.5c42.3-10.7 39.6 7.1 34 31.6-5.7 24.5-8.4 32.6-1.4 35.9 3.2 1.5 8.6 1.8 12.1-4.6 4.7-8.6 9.6-21.6 9.6-21.6l3.7 26.8s-10.5-2-25.7 16.2c-13 15.6-25.2 14.8-32.8 10.2-10.4-6.3-6-18-6.4-24.2-1.6-24.6-46.3-2.1-46.3-2.1s-12.9-4.6-11-20.6c.7-6.6 8.8-10.4 12.2-16 4.8-8 5.2-16.7 5.2-16.7s-3-15.4 6.2-21.8c0 0 18.4 12.6 40.6 7M1818.2 687l-35.5 13.3v-79.7s8 6.3 14 9.3c6 3-11.8 33.6 21.5 57M1761.1 399.8c0 7-3.3 25.5 0 35 34.9 1 46.7.6 66.4-3.5a58 58 0 0 0 16-6.2v-65.6s-20.4-23.2-45-29.9c-4.4 16.7 11.2 30.5 3.8 48.3-10 24.3-41.2 22-41.2 22M1841.6 445.8v15s-44 15-69.7-7c0 0 46.6 2 69.7-8M1680.5 487.4c-25 1.2-30.5-1.4-30.5-1.4s11.1-8.3 21.2-28.3c0 0 20.6-14 30.8.2 0 0-12.6 13.4-21.5 29.5M1234.9 971l-65.2 115.8-43.5-50.2s7.5-9.3 11.7-14.2c4.2 4.9 11.4 8.7 22 10.5 6 1 17.5 14.4 21.1 9 2.8-4.3-5.4-12-11.3-16.9 1.8-2.3 12.6 9 15.5 6.5 3-2.5-1.6-12.8-8.6-14.5 6-.9 7.5-3.9 5.6-6.2-1.5-1.9-5.8-3.3-7.8-3.5l-22-2.6 16.9-20.4s12 19.2 18 16.6c6-2.6-7-12.8-4.4-15.6 2.6-2.8 11.9-7.3 12.4-.5.7 8.4 8.6 11.5 10.7 2.1 2.1-9.3 4.1-19.4-3.4-23.7l32.3 7.9zM1246.4 915.2s-4.2-4.8-10.3-1.3c0 0 2.9 6.8 2.5 13.7-.3 7 7.8 6.3 9.4 3.3 1.7 2.4 7.6.8 7.6-8.5s4-14.4-3-18.1c0 0-6.8 4-6.2 11M1237.8 842.3s7.6-5.6 14.7-16.8c9.2-14.5 19.6-36.6 32.5-50.3 0 0-23.6 30.3-24 73.4 0 0-6.6-4.1-23.2-6.3M1402 634.2s-16 1.3-20-11.2c-4-12.6-2.7-31.2 12.6-48.8l-1 18.4c-.6 15.2 0 30.7 8.4 41.6M1451 639l24.1-9.3v-28.8l35.7-19.5v-44.1c0-21.4-2.8-36.6-23.5-33.5-20.7 3-27.7 44.6-42 58 0 0 7.8 15.4 2.2 34.9-4 14-11 14-11 24.3-.2 10.3 5.2 13.2 5.2 13.2s6.3.8 9.3 4.8M1437 567.2s-3.9 2.1-12.3 4.7c-11.3 3.5-21.5 2.6-21.5 2.6l3.6 20.2s3.8-2.2 3.8-6.7c0-7.5 4.4-13.7 11-13a8 8 0 0 1 7 9.4c-1.1 5-7.1 4.4-5.5 9 1.6 4.8 7.1 4.5 8.6 4 3.1-1.2 8.7-7 5.3-30.2M1538.4 185.6s-9.3-.2-10.4-10.4c-.4-3.8.6-8.4 3.1-10.8 4.2-4 11.3-4.2 14.9-.3 5.6 6.2.4 17.2.4 17.2s-6 2-8 4.3M1532 206.1v14.2l-11-2V211c0-3.4 2.5-5.5 5.9-5.3l5.1.4" fill="#33333D"/><path d="M1500.5 258.7c0-4.7 8.4 3.3 8.4 3.3s8.5-8.4 14.7 0c0 0-3.5 6.6-7.4 11.8a13.4 13.4 0 0 1-14.2 3.9c-5.4-1.7-1.5-6-1.5-19" fill="#423D89"/><path d="M1771.5 1260.9a114 114 0 0 0 54.4-28.4v-37.1s-37.1 32.5-80.8 35.2c0 0 3 7.6 10.2 15.7 4.1 4.8 7.8 8.5 16.2 14.6M1821.6 1099s-7.6 21 0 36.7c9.9 20.5-20.6 30.7 4.3 59.7l36.7-33.3s-.2-24.2 20.4-38.7l-61.4-24.4zM1940.8 911.6c-4.3 3.6-12 14.8-12 14.8s4.9 10.1 13.7 21c0 0-10.8 5-2.9 13.1 7.9 8.2 30.8-16.7 30.8-16.7s1.3-32.6-13.3-34.9c0 0-3.7 3.6-11.3.8-1.9-.7-3.8.8-5 1.9M1810.4 717.8l11.1-11.9 7.9 3.8-11.2 11.9zM1804 725.6l-10.8 11 8.1 4.4 10.6-11.5zM794.2 1352.4c0-11 7.8-17 18.5-14.9 10.7 2.1 23.2 15.5 24 38.5.7 23-11 51-11 51s-13.8-23-15.1-47c-1.3-23.3-1-27.6-1-27.6h-15.4zM811.9 1331c-4 0-11.5 0-12.6-10.7a12.2 12.2 0 0 1 12.6-13.6c9.6 0 12.7 7.7 10.9 14.3-1.6 5.5-7.1 10-10.9 10" fill="#33333D"/><g transform="translate(835 1280.3)"><mask id="bF" fill="#fff"><use xlink:href="#bE"/></mask><path d="M44.9 2.3C64.8-7.1 70.5 23 81.2 16.9l23.3-13v10L72.9 36.8s5.8 20.3 8 39.5c2.3 19.3-23.7 89.5-40.7 88-17-1.6-37.7-26.3-27.2-51.3 10.5-25 16.5-27.2 10.5-32.4-6-5.2-14.2 1-20.2-4.7-6-5.8-5-17.5 13-26.4 18.1-9 6.4-36.6 28.6-47.1" fill="#33333D" mask="url(#bF)"/></g><path d="M888.5 1241c-16.7-1.2-22 28.3-2.3 31.2 19.6 2.8 16-30.1 2.3-31.2M861 1022.9v25.5l55-5.3s-16-16.5-32-18.7c-13.4-1.9-23-1.5-23-1.5M201.8 1164a11.1 11.1 0 0 1-10.6 7c-5.7-.3-10.3-3.8-10.3-11.5 0-6.7 5.7-11.4 11.6-11.4 5.5 0 12.7 6 9.3 16M90.7 326.7l-21.6 16h21.8a13 13 0 0 1 12.6 13l-.2 28 14-.1c5.4 0 7 4 7 7.1v5.1h5.6l-.2 12.2s38-23.2 37.1-55.3c-.4-16.4-15.5-31.5-27.7-37a26.8 26.8 0 0 0-9.4-2c-5.8 2-10.3 3.6-18.2 2.3a60 60 0 0 0-20.8 10.7M142.5 245c-10.8 4.5-19.2 7.3-36 15.5-22 10.8-33 20.2-33 20.2s2.8-12.3-2.2-21.5a22.3 22.3 0 0 0-18.2-11 55.5 55.5 0 0 1-11.6-8.6c-11-10.6-17.6-22.4-16-37 2.6-26.5 32-18.8 18.5-46-13.4-27.2-30-47.6-18-78.4 0 0 6 .4 11.9 4.7 4 2.8 7.4 7.6 9.6 15 6.6 21.5 19.5 26.5 19.5 26.5S61.8 159 75.5 178a57.1 57.1 0 0 0 34.3 22.2s10.6 26.3 32.7 44.8" fill="#33333D"/><g transform="translate(85 -.7)"><mask id="bH" fill="#fff"><use xlink:href="#bG"/></mask><path d="M21 176.7S2 96.7 80.3 84c0 0 1-82.2 80.5-92.5H74.7s0 26.1-31.2 60.6c-29 32.2-41.3 62.2-43 83.3-1.6 20.8 4.9 33.6 20.4 41.4" fill="#33333D" mask="url(#bH)"/></g><g transform="translate(32 -.7)"><mask id="bJ" fill="#fff"><use xlink:href="#bI"/></mask><path d="M0 63.7s13.3-15.8 23.4-25.2c12.4-11.6 10.8-23.2 2-30.1-8.7-6.8 1-14.9 1-14.9l77.7-2.1s8.2 15-38 67.2c-18.1 20.6-27.3 51-27.3 51s-8.3-5.9-14.8-23.5C19.4 74 12 68 0 63.7" fill="#33333D" mask="url(#bJ)"/></g><path d="M342.4 842.5s36.2-2.1 38-39.5c0 0 31.1 4.1 53.1-7.8 22.1-12 41.9-47.9 72.2-49 15.4-.6 26.8-7.7 35.6-12.3a94.7 94.7 0 0 1 14.6-6.4s-4 2.2-6.4 6.4c-4.7 8-2.7 19.3 7.6 22 0 0-22.6-5.9-36.3 30.1 0 0-25.4-6.3-57.2 16.2-23.3 16.5-51.5-1.4-59.2 29.5-2.9 11.6 4 20 4 20s-21 16.3-9.3 34.4c-16.2-4.2-44.8-19-56.7-43.6" fill="#33333D"/><path d="M443.4 848.2c13.5-15.6 17-39.7 54.3-31.3 9 2 17.8 9.2 26-8.6 4.5-9.7 6-12 8.7-16.5 2.1-3.8 6.7-9.8 12.1-8.8 4 .7 5.6 4.7 5.5 10.5a110 110 0 0 1-13 41.7s-23.1 38.4-93.6 13M579 801.8l2.3-24.2s21.4 5.8 45.8-11c0 0-1.1 6.4 1.3 13.9 2.5 7.5 9 15 20.8 19.9 19.1 16-.8 32.2-.8 32.2s2.7-6.2-.6-7.9c-3.3-1.6-12.7 1.3-17.3 0 0 0-8.7-12.6-16.8-22.4-8-9.9-34.8-.5-34.8-.5M628.8 739s-3.9 17.9-23.2 24c-19.3 6.2-26.1-6.8-36.4-9.1 11.6-13-1-26.8-8.6-27.8 0 0 30-15.4 39.8-48.5 9.8-33.1 4.4-44.5 4.4-44.5l78.6-30.2s-3.8 5-8.6 18.3c-5 14-5.7 39 8.6 53.7 16.6 17 42.5 18.2 42.5 18.2s-16.5-.4-20 12c-3.6 12.5-4.1 16-8.7 18.4 0 0-12.6-30.3-43.8-24.1 0 0 1.6-8.2-1.8-14.1-3.3-5.7-11.3-9.2-18.2-5.2-14 8.3-4.3 26.2 4.3 27.8-4 6.6-3.9 6.9-9 31M750 718.3s12-4.9 26.6-2c14.3 2.8 24.9 12.4 26.6 26.3 0 0-14-2.5-21.7 4.8L750 718.3zM735 192.1c-6.4 0-8.4-10.3-.4-10.3s6.9 10.3.4 10.3m13-86.4c0 6.6-8 5.6-18.2 5.6-10.3 0-10.6-6.6-10.6-6.6-7.6 0-9.6 3.2-9.6 19.2v62.9c0 9.3 1.5 11 10 11h30.1c9.3 0 9.7-2 9.7-9.9V120c0-15.6-5.5-14.3-11.4-14.3M27 489.4c3.4-6.5 5.8-4.2 16.4-11.6 11.4 4.3 35.5 3.8 35.5 3.8v11.1c0 10.3-12.6 10.7-18.3 9.3-9.1-2.3-20.5 3.4-29-.7-5.7-2.7-6.7-8-4.7-11.9M1432.7 672c-3.4-3.2.3-9.4.3-9.4l16.8 1.1s11 8.6 8.2 14c0 0-22-2.4-25.3-5.7M1378.4 688.8c-5.9.8-7.3 6-8.6 11-1.3 5.1-.4 11.8 1.9 13.1 4.7 2.7 7.7-2.4 9.6-6.4 2.5-5 5.2-8.3 7.3-10.3-6.8-4.1 0 0 0 0l-10.2-7.4zM1925.4 953s6.7-5.1 1.2-13.4c-3.3-5-10.5-2-10.5-2s-1.3 9.2 9.3 15.5" fill="#33333D"/><path d="M1518 1109.4v21s12.7-9 38.7-14.3V1097s8.4-.1 15.3-1.2c4.4-.6 6.8-2.3 8.3-7.2 0-1.7-4.4-2.2-8.4-2.1-5.2 0-8.7.3-8.7.3l-6.5-8.7v-17.2l-38.7 48.5z" fill="#FFC4BC"/><path d="M1647 1091.9V1015l25 21.3 28.4 24s-9.3 3.7-7.9 12c1.5 8.4 10.5 7.7 10.5 7.7s.9 14.1 16 17c0 0-25.2 19.5-72-5.1" fill="#33333D"/><path d="M957.7 1018c-1.9 4.1-1 27.5-12.4 27.5-13.1 0-23.5-11.7-51.5-26.7-15.2-8.1-21.2-10-22.7-13.9-2.1-5.7 0-8.8 6-12.7 9.8-6.4 10-12.4 2-22.7-10.7-13.7-23.3-28.5-22.4-45.8.2-3.2.9-6.4 2.7-9 5.1-7.7 17.1-7 24.7-1.8 10.1 6.8 14.1 24.5 26.6 26 5.6.7 11.4-1.7 14.8-6.1 2.1-2.7 3.8-6.3 7.1-6.6 3-.4 5.5 2.3 6.5 5 1 2.8 1 5.9 1.9 8.8 2.8 9.7 13.9 14.4 23.9 15.7 10 1.4 20.7.8 29.7 5.4 2 1 4.1 2.6 5 4.7.5 1.3.6 2.8.5 4.2-1.4 21.7-33.4 28.9-42.4 48" fill="#03DAC6"/><path d="M979.5 919.5a24.6 24.6 0 0 0-11.5 25.4c.8 4.3 2.9 8.3 3.6 12.6.7 4.3-.3 9.4-4 11.7-1.7 1-3.8 1.4-5.7 2a20 20 0 0 0-12 26c2.5 5.7 7.7 10.6 7 16.7-.7 5.7-7.2 7.6-11.7 11.1-2.6 2-7.4 5.7-6.5 12.8.5 3.5 5 7.4 6.6 7.7 11.9 2 36.8 11.7 21 32.2-5.2 6.6-4.6 13.5-3.5 21.7 35.2-9.3 46.4-12 46.4-12s-8.3-7.7-7.5-15.5c1.2-10 10.2-16.9 18.3-23 8-6 16.6-14 16-24-1-12.6-16.4-22.3-13.4-34.6 1.5-6.2 7.5-11 7.6-17.3.1-5.8-4.7-10.4-9.6-13.4-4.8-3-10.4-5.5-13.6-10.2-6.4-9.3 3.3-21.7-1.3-28.5-4.8-7-20.2-4.9-26.2-1.4" fill="#423D89"/><path d="M875 223c2.7 6.6 8.2 11.4 13 16.5 6.7 7 18.4 25.2 23.5 62.9 0-33.4 6.5-61.4 26.6-80.7 21.5-20.5 40.6-18.3 55.6-18 .7 0-5.4-3.9-7-5.2-3-2.5-6.8-5.3-6.5-9.8.2-2.8 2-5.1 3.9-7.3 7.3-8.5 15.4-17 18-28 .9-3.3.9-7.4-1.9-9.5-2.3-1.6-5.4-1.1-8.2-.8-2.8.3-6.1 0-7.5-2.4-1.5-2.4-.2-5.3.8-7.9 1.6-4 2.4-8.5 1.6-12.8-.9-4.2-3.7-8.3-7.7-9.8-4.1-1.5-9.3 0-11.3 3.9-1 2.2-1.4 5-3.5 6.1-1.2.6-2.6.4-3.9.4-7 0-13.4 6.5-13.2 13.5.2 6.1 4.4 11.2 7.7 16.3 3.3 5 5.9 11.8 2.8 17a15 15 0 0 1-7.4 5.6c-3.5 1.5-8.2 2.3-10.8-.6-1.5-1.7-1.8-4.2-1.3-6.4.4-2.2 1.5-4.2 2.5-6.3 1.7-3.6 3-7.6 2.2-11.5-.8-3.9-4.6-7.4-8.5-6.5a9.3 9.3 0 0 0-4 2.2c-2.6 2.3-3.8 5.5-6 8-.7-.7-1.1-2-1.7-2.8a12.4 12.4 0 0 0-11.8-6.2c-3.7.2-10.3 3-11 11.2-.2 2.9 0 5.7-.2 8.6 0 .9 0 1.9-.6 2.7-.6 1-1.8 1.4-3 1.6h-3.4c-1.9 0-3.9.4-5.5 1.4-1.7 1-3 2.7-3.2 4.6-.4 2 .4 4 1.5 5.8 1.7 2.7 4 4.9 6.3 7.1 2.3 2.2 4.5 4.6 5.7 7.5 1.3 3 1.5 6.5-.2 9.2-1.3 2-5.8 4.2-9.7 3.9-3.5-.3-8.2-1.6-11.6 2.3-2.5 3-3.5 8.8-1.1 14.3" fill="#FF0166"/><path d="M209.7 504.5c8.7-9.2 36.6-3.7 46.2-5.5 12.2-2.4 16.5-6 20-10a18.8 18.8 0 0 0 4.3-17.2c-2.3-8.7-19.6-9.9-26.7-11.9-5.6-1.5-10-7.1-11.2-12.7-1.7-7.8 5-14.7 11.6-19.2 6.6-4.4 14.4-9 16.2-16.7 1.2-5.2-1-11-5.3-14.2-2.6-2-5.9-3-8.6-4.8-8-5.3-9.6-16.3-9-25 .6-8.4-3.5-18.3-13-19.8-9.4-1.3-19 3.8-21.3 14.1-2.2 10 2.2 18.3-3.7 22.5-4.3 2.9-9.5-5.7-22.7-7.6-8.5-1.2-18.7 2.7-23 10.2-3.2 5.8-2.8 13-.3 19.2a41.8 41.8 0 0 0 12 15.6c21.2 18 14.2 29.9 7 31-7 1-15-2.5-22 2-11.2 7.2-14 19-4 32.6 4 5.3 9.4 9.4 13.7 14.5 1.4 1.6 2.7 3.4 3.8 5.3C148 524.4 127 550.2 128 588c1.8 73 124.1 91.1 124.1 91.1s45.4-29.5 26.3-64c0 0-14 12.1-39.5 12.7-15 .4-49.6-8.7-59.3-29.5-17.3-37.2 4.9-70.3 30.2-93.9" fill="#33333D"/><path d="M1823.1 637.8a31.6 31.6 0 0 1-8.8-8.7c-2-3.7-2.5-8.6 0-11.8 3.8-4.6 18.8-1.4 24.6-.5 14.6 2.3 20.5-1.1 21.3-7.4.8-6-1.8-9.5-11-13.2-4.3-1.8-26-8.6-25-25.8 1.2-18.8 17.7-14.4 21.8-17 7.9-5.3 8.4-17.8 16.6-22.3 7-3.8 15.7.2 21.2 5.9 4 4.2 8.8 9.9 14.5 8.3 3.4-1 5.5-4.3 7.2-7.4 3.2-6.4 6-13 10.3-18.7 6.7-8.8 14.5-12.8 25.5-12 9.5.6 22.2 9.5 20.5 29.8-.5 6-7 16.5-18.1 25.8-6.7 5.6-14.6 11.4-16.2 20a4 4 0 0 0 .2 2.2c.3 1 1.2 1.4 2.1 1.8 6.9 2.7 14.2-2 20.7-5.5 4.7-2.6 10-4.6 15.3-4.8 5.5-.2 11.1 1.6 14.6 5.8 5.4 6.2 4.4 16.1-.1 23a50.8 50.8 0 0 1-19.2 15.2c-7.3 4-15 7.6-20.6 13.6-2.7 2.9-5 7-3.3 10.6 2 4.1 7.8 4.2 11.9 6.3 5.1 2.6 7.7 8.8 7.5 14.6a36 36 0 0 1-5.5 16.2c-2.3 4.1-8.8 12.3-8.8 12.3s-4.8 2.7-9.4 5c-11.7 5.6-19.6 5.3-31.9.3-12.2-5-21.8-14.2-33.7-19.8-5.2-2.4-12.2-4.2-25.1-1.7 12.7-4 11.4-13.5 8-17.4-5.1-6-19-16.5-27-22.7" fill="#03DAC6"/><g transform="translate(353 1201.3)"><mask id="bL" fill="#fff"><use xlink:href="#bK"/></mask><path d="M15.7 249.4a70.3 70.3 0 0 1-13.8-23.3c-2.4-8.8-.8-19.3 6.3-25 5.5-4.4 13-5 20-4.5 1.5.1 3 .3 4.2-.3 1.4-.6 2.3-2 3-3.3 2.5-5.6.8-12.2-1.7-17.9-2.5-5.6-6-11-6.9-17-1-6.2 1.4-13.4 7.2-15.6 3.7-1.3 7.7-.3 11.6.4 5.5 1 11.3 1.2 16.6-.7 5.2-1.8 10-6.2 10.9-11.7.8-4.6-1-9.3-2.6-13.6-2-5-4-9.8-5.8-14.8a48 48 0 0 1-4.8-20.8c.5-7.1 5.3-14.5 12.5-15.5 9.6-1.4 18.4 9 27.8 6.4 5.4-1.4 9-6.8 10.2-12.3 1.2-5.5.7-11.2 1-16.8a46.4 46.4 0 0 1 19.1-36.7c12-8 29.5-7.5 39.6 2.7 18.8 19 16 43.1 1.3 61.2-13.8 17-24 30.4-29.7 51.6-3.3 12-5.2 24.4-1.6 34.8a39.7 39.7 0 0 0 24.6 23.7 91.3 91.3 0 0 0 62.2-3.6c-9 13.4-15.4 22.2-21 32a159.8 159.8 0 0 0-23.4 66.2c-.4 3-45.1 7.7-49.9 8.4a925.4 925.4 0 0 1-50.3 5.6c-30.2 2.5-49.1-17.1-66.6-39.6" fill="#423D89" mask="url(#bL)"/></g><path d="M387.3 364c-6.7-.8-16.3 3.8-24.6 6.9-8 3-31 23.3-22.2 45.5 1.8 4.5 6.3 20-11.2 28.8-4.6 2.2-11.2 7-12.9 12.5-1.8 6 1.7 13 5.6 17 5.2 5.3 14.8 6.3 22 8.5 6.7 2 6.2 12.6 0 15.4-6.8 3-11-1.3-17.3 6.1-4.2 5-3.5 16.1-.5 23.9 6 16 17.7 21 27.5 23.8 24.6-7 59.4 4.7 72.1 4.4 1.7-17.7 5-31.5 13.4-47.2 4.7-8.7 21-30.7 23.4-39.1 2.1-7.8.4-16.2-5.6-20.1-5.1-3.5-13.7-2.3-20.3 1.1-5 2.6-9.5 6.3-14.5 8.7-1.6.8-3.4 1.5-5.2 2-3.7 1-8.1.8-11-1.8-4-3.6-3.6-10.3-.7-14.9 3-4.5 7.6-7.6 11.7-11.1a39 39 0 0 0 6.7-53.3c-8.2-10.9-23.7-15.4-36.4-17" fill="#FF0166"/><path d="M750 1060.1c-2.1-2-5.3-2.4-8.2-2-3 .3-5.7 1.2-8.6 1.6a23 23 0 0 1-20.3-8.4c-2.5-3.6-3.8-7.1-5.8-11.1-2.1-4.2-7.6-6-12.3-3.9-4.4 2-6.9 5.8-17.5 1.5-10.5-4.4-16.5-18.4-31.7-16.2-5.6.8-11.1 3.7-10.6 12.4.8 13-8.7 14.7-10.8 23.8-2.5 10.5 2.4 17.1 9.4 19 12.2 3.4 15.8-.5 20.9-3 5-2.6 9.6-4.7 13.3-4.9 5-.2 9 .5 11.5 3 3.6 3.9 2 7.9 1.5 11.3-.5 3.4-1.3 7-.1 10.2 1 2.8 3.5 4.8 6 6.2a23 23 0 0 0 24.4-2c4.3-3.3 7.2-8 10.6-12.1 3.4-4.1 7.8-8 13.1-8.6 3.9-.4 7.9 1 11.7 0 3.4-1 6.2-4 6.9-7.5.6-3.6-1.3-7.2-3.4-9.3" fill="#EDE8D7"/><path d="M1142.1 1129.5c-25 14.2-43.7 31-53.4 52.8-9.4 21.1-18 40.9-50.7 64.1l-11-14s7-4.7 13.7-10.2c9-7.3 19.5-18.3 30.6-44.3 19.4-45.6 61.2-59.8 61.2-59.8l9.6 11.4z" fill="#33333D"/></g></svg>