<svg width="252" height="96" viewBox="0 0 252 96" fill="none" xmlns="http://www.w3.org/2000/svg">
<mask id="mask0_123_1626" style="mask-type:alpha" maskUnits="userSpaceOnUse" x="0" y="19" width="252" height="63">
<path d="M10.2734 40.9531L20.1172 62.3203L29.9219 40.9531H39.8047L20.0391 81.6172L0.429688 40.9531H10.2734Z" fill="black"/>
<path d="M72.4219 40.9531H81.25V79H72.4219V75.0156C68.8021 78.401 64.9089 80.0938 60.7422 80.0938C55.4818 80.0938 51.1328 78.1927 47.6953 74.3906C44.2839 70.5104 42.5781 65.6667 42.5781 59.8594C42.5781 54.1562 44.2839 49.4036 47.6953 45.6016C51.1068 41.7995 55.3776 39.8984 60.5078 39.8984C64.9349 39.8984 68.9062 41.7214 72.4219 45.3672V40.9531ZM51.5625 59.8594C51.5625 63.5052 52.5391 66.474 54.4922 68.7656C56.4974 71.0833 59.0234 72.2422 62.0703 72.2422C65.3255 72.2422 67.9557 71.1224 69.9609 68.8828C71.9661 66.5651 72.9688 63.6224 72.9688 60.0547C72.9688 56.487 71.9661 53.5443 69.9609 51.2266C67.9557 48.9609 65.3516 47.8281 62.1484 47.8281C59.1276 47.8281 56.6016 48.974 54.5703 51.2656C52.5651 53.5833 51.5625 56.4479 51.5625 59.8594Z" fill="black"/>
<path d="M92.3438 40.9531H101.133V44.3516C102.747 42.6589 104.18 41.5 105.43 40.875C106.706 40.224 108.216 39.8984 109.961 39.8984C112.279 39.8984 114.701 40.6536 117.227 42.1641L113.203 50.2109C111.536 49.013 109.909 48.4141 108.32 48.4141C103.529 48.4141 101.133 52.0339 101.133 59.2734V79H92.3438V40.9531Z" fill="black"/>
<path d="M132.305 40.9531V79H123.516V40.9531H132.305ZM122.188 25.1328C122.188 23.5964 122.747 22.2682 123.867 21.1484C124.987 20.0286 126.328 19.4688 127.891 19.4688C129.479 19.4688 130.833 20.0286 131.953 21.1484C133.073 22.2422 133.633 23.5833 133.633 25.1719C133.633 26.7604 133.073 28.1146 131.953 29.2344C130.859 30.3542 129.518 30.9141 127.93 30.9141C126.341 30.9141 124.987 30.3542 123.867 29.2344C122.747 28.1146 122.188 26.7474 122.188 25.1328Z" fill="black"/>
<path d="M171.484 40.9531H180.312V79H171.484V75.0156C167.865 78.401 163.971 80.0938 159.805 80.0938C154.544 80.0938 150.195 78.1927 146.758 74.3906C143.346 70.5104 141.641 65.6667 141.641 59.8594C141.641 54.1562 143.346 49.4036 146.758 45.6016C150.169 41.7995 154.44 39.8984 159.57 39.8984C163.997 39.8984 167.969 41.7214 171.484 45.3672V40.9531ZM150.625 59.8594C150.625 63.5052 151.602 66.474 153.555 68.7656C155.56 71.0833 158.086 72.2422 161.133 72.2422C164.388 72.2422 167.018 71.1224 169.023 68.8828C171.029 66.5651 172.031 63.6224 172.031 60.0547C172.031 56.487 171.029 53.5443 169.023 51.2266C167.018 48.9609 164.414 47.8281 161.211 47.8281C158.19 47.8281 155.664 48.974 153.633 51.2656C151.628 53.5833 150.625 56.4479 150.625 59.8594Z" fill="black"/>
<path d="M191.406 40.9531H200.234V44.4688C203.307 41.4219 206.771 39.8984 210.625 39.8984C215.052 39.8984 218.503 41.2917 220.977 44.0781C223.112 46.4479 224.18 50.3151 224.18 55.6797V79H215.352V57.75C215.352 54 214.831 51.4089 213.789 49.9766C212.773 48.5182 210.924 47.7891 208.242 47.7891C205.326 47.7891 203.255 48.7526 202.031 50.6797C200.833 52.5807 200.234 55.901 200.234 60.6406V79H191.406V40.9531Z" fill="black"/>
<path d="M244.375 49.1562V79H235.586V49.1562H231.836V40.9531H235.586V27.0078H244.375V40.9531H251.211V49.1562H244.375Z" fill="black"/>
</mask>
<g mask="url(#mask0_123_1626)">
<path fill-rule="evenodd" clip-rule="evenodd" d="M1236.75 862H-1011V-1285H1236.75V862Z" fill="#03DAC6"/>
<path fill-rule="evenodd" clip-rule="evenodd" d="M261.158 -426.72L254.578 -427.367L241.012 -429.849L224.177 -431.501L234.111 -396.19L308.075 -351.316L309.179 -278.537L172.844 -322.993L173.724 -288.686C173.724 -288.686 217.779 -260.614 222.196 -196.612C224.384 -164.893 223.299 -137.79 228.538 -124.051C238.586 -97.7034 254.587 -91.4776 263.871 -71.5846C287.143 -21.7166 269.813 39.8022 269.813 39.8022L322.426 -30.5696L421.439 -247.58C421.439 -247.58 366.508 -260.991 343.501 -367.029C306.068 -433.16 261.158 -426.72 261.158 -426.72" fill="#EDE8D7"/>
<path fill-rule="evenodd" clip-rule="evenodd" d="M205.106 5.22733L202.99 28.4974L147.509 60.5277H104.469L63.7833 121.027L-41.1262 -41.6498L-71.0531 -4.45346L-108.794 -113.656C-108.794 -113.656 -109.902 -129.067 -99.5782 -144.348C-92.3955 -154.977 -71.8337 -160.678 -71.8337 -160.678C-71.8337 -160.678 -89.1507 -181.476 -99.121 -205.241C-108.148 -226.761 -113.727 -249.885 -112.896 -264.826C-110.056 -315.917 -54.5773 -364.411 -54.5773 -364.411L-39.4449 -346.839C-39.4449 -346.839 20.7435 -231.218 18.3893 -154.584C18.3893 -154.584 48.0994 -180.947 86.204 -152.529C124.307 -124.109 99.4035 -135.582 107.236 -115.589C124.179 -72.3358 97.238 -18.6925 116.947 9.14933C126.905 23.2177 145.402 26.2056 159.347 21.7177C175.641 16.4754 186.769 2.25587 186.769 2.25587L183.151 -39.8579L205.106 5.22733Z" fill="#282552"/>
<path fill-rule="evenodd" clip-rule="evenodd" d="M69.6051 157.87C73.8136 163.82 97.4867 155.06 115.535 138.646C135.094 120.857 148.689 94.3883 141.081 76.2153C133.869 58.9869 107.436 67.9671 92.4987 93.1024C76.7844 119.546 63.8388 149.716 69.6051 157.87M-0.767363 167.065C17.7234 142.421 33.4522 163.387 62.4299 114.1C73.6639 94.9897 84.7843 74.1641 93.6147 64.0776C107.559 48.1486 123.203 49.4105 147.704 47.1576C187.72 43.4796 205.106 5.22644 205.106 5.22644V53.0436C147.152 59.6631 169.506 87.249 145.221 132.122C120.936 176.994 80.6432 179.202 54.4262 183.615C28.2104 188.028 9.16705 187.662 17.447 200.535C25.7259 213.409 52.4955 250.924 52.4955 250.924L35.9614 276.356L-2.14774 226.648C-2.14774 226.648 -22.1188 195.521 -0.767363 167.065" fill="#E61A6B"/>
<path fill-rule="evenodd" clip-rule="evenodd" d="M238.585 40.8865C238.585 40.8865 259.127 58.5864 303.448 68.4304C347.769 78.2774 373.756 116.498 398.523 205.684C398.523 205.684 368.554 213.734 358.125 181.302C347.696 148.871 348.949 159.072 349.135 170.448C349.51 193.293 340.694 228.552 320.098 232.805C320.098 232.805 313.653 227.594 299.748 232.805C285.844 238.017 285.612 193.397 284.743 207.876C283.875 222.355 256.401 171.487 248.144 140.792C239.889 110.097 229.894 80.8461 238.585 40.8865" fill="#282552"/>
<path fill-rule="evenodd" clip-rule="evenodd" d="M552.868 51.2365C552.868 51.2365 544.631 49.7066 538.09 52.3832C522.085 58.9324 522.251 80.3178 522.251 126.154C522.251 162.631 522.025 181.022 522.025 181.022L484.799 186.594V261.743C484.799 296.3 454.705 320.826 421.438 284.342C406.186 267.615 399.409 233.023 392.408 201.308C385.407 169.59 357.627 85.8296 299.854 75.6353C242.08 65.4381 238.586 40.8866 238.586 40.8866C238.586 40.8866 255.361 23.7315 255.361 -2.02207C255.361 -2.02207 287.096 14.5627 287.096 -32.9536C287.096 -32.9536 324.187 69.2793 389.009 77.9167C389.009 77.9167 386.228 45.7726 370.382 28.4933C354.537 11.2155 355.546 -4.52497 360.604 -34.4835C362.759 -47.2495 358.498 -57.9617 354.699 -62.8388C349.565 -69.4328 346.745 -77.8337 346.99 -85.8155C347.394 -99.0276 355.509 -108.146 362.768 -121.075C371.585 -136.781 369.133 -154.322 358.973 -166.358L394.463 -209.923C394.463 -209.923 411.842 -202.049 415.657 -169.263C419.677 -134.718 419.765 -122.673 437.133 -109.274C446.909 -101.733 453.996 -88.7271 453.829 -81.9084C453.552 -70.5466 445.952 -61.3313 432.223 -55.0307C410.256 -44.9532 450.7 -37.1421 452.029 7.36232C453.357 51.8697 431.003 57.4983 421.419 54.8801C412.43 52.4251 407.777 47.5076 404.248 37.2789C401.848 30.3166 400.093 23.8707 397.35 25.4395C394.447 27.0996 394.899 36.2086 397.657 45.0032C400.977 55.5897 408.171 66.0668 423.909 67.1162C452.718 69.0368 454.643 24.9096 486.648 24.9096V57.7587C486.648 57.7587 518.626 27.2389 552.868 51.2365" fill="#423D89"/>
<path fill-rule="evenodd" clip-rule="evenodd" d="M-24.5942 -29.6177L-58.3791 -18.9145C-58.3791 -18.9145 -62.7639 16.0244 -34.24 51.0875C-34.24 51.0875 -36.1044 70.774 -30.8019 77.8441C-24.3898 86.3962 -4.37829 92.5501 9.19183 73.3577C22.7608 54.1653 27.1917 54.535 20.5448 40.5101C16.8406 32.69 10.6385 25.1004 3.37943 19.3372C-2.3813 14.764 -12.2888 11.3509 -16.8398 5.2269C-28.7477 -10.795 -24.5942 -29.6177 -24.5942 -29.6177" fill="#E61A6B"/>
<path fill-rule="evenodd" clip-rule="evenodd" d="M789.902 338.051L484.8 186.594V261.742C484.8 278.833 464.764 293.831 442.883 282.099C424.041 271.998 403.982 239.522 392.408 201.307C392.408 201.307 379.734 203.276 365.842 173.307C353.05 145.712 342.003 150.923 342.003 150.923C342.003 150.923 346.542 167.675 344.845 185.564C343.274 202.12 335.91 219.65 325.486 225.819C323.657 226.901 317.995 226.649 320.279 215.558C321.939 207.502 324.197 198.566 325.857 185.642C326.7 179.075 324.439 172.696 322.966 168.081C320.33 159.827 315.253 161.5 314.597 170.644C313.041 192.359 309.164 228.857 300.723 227.947C288.726 226.657 299.151 173.654 295.745 155.772C295.745 155.772 287.294 145.046 279.245 138.512C275.674 135.612 271.96 140.119 275.348 147.943C281.215 161.49 288.373 181.777 283.684 191.513C276.288 206.87 227.054 117.095 238.585 40.8865C238.585 40.8865 231.016 51.0822 205.105 53.0432V215.832L232.864 239.965C232.864 239.965 271.012 231.667 308.478 238.617C345.936 245.568 357.27 250.502 363.969 254.966C395.032 275.661 394.463 307.402 394.463 307.402C394.463 307.402 503.787 355.115 542.3 375.108V293.412L694.165 367.255C694.165 367.255 714.977 350.521 739.429 361.945C760.268 371.683 765.128 400.669 765.128 400.669L789.902 397.703V338.051Z" fill="#282552"/>
<path fill-rule="evenodd" clip-rule="evenodd" d="M61.5515 88.7292C59.4871 78.5185 55.4314 69.2165 51.4408 60.1644C44.6703 44.8056 37.3843 29.4993 33.1432 12.5134C28.3563 -6.65509 27.5667 -29.3728 18.8734 -46.2854C4.9708 -73.3383 -21.0822 -75.6571 -32.4577 -73.2889C-42.5493 -71.1887 -63.0842 -63.1142 -72.265 -34.1167C-76.2365 -21.5722 -76.4679 -3.52047 -82.1185 10.3578C-89.4517 28.3706 -98.5617 30.3092 -104.923 42.1875C-109.925 51.5285 -111.747 68.8722 -108.457 84.665C-108.457 84.665 -84.3076 31.7343 -34.239 51.0869C-34.239 51.0869 -53.7406 34.5934 -49.185 -13.9632L-24.5932 -29.6183C-24.5932 -29.6183 -30.7347 1.0632 -7.58397 12.6272C15.569 24.1911 -15.1575 59.2737 9.19279 73.357C33.542 87.4419 41.6771 104.431 44.1941 138.512C49.865 133.127 55.8941 125.177 61.1528 116.242C64.7683 110.097 62.5287 93.5659 61.5515 88.7292" fill="#423D89"/>
<path fill-rule="evenodd" clip-rule="evenodd" d="M161.079 238.872C163.224 244.96 162.24 279.968 174.99 279.943C189.771 279.913 201.422 262.392 232.865 239.963C249.918 227.799 256.693 225.12 258.344 219.223C260.759 210.59 258.289 206.032 251.629 200.203C240.641 190.585 240.395 181.552 249.421 166.138C261.443 145.606 275.563 123.547 274.491 97.5418C274.295 92.801 273.535 87.9658 271.544 84.0303C265.763 72.5981 252.281 73.7268 243.718 81.4586C232.417 91.6648 227.907 118.056 213.836 120.378C207.606 121.405 201.058 117.784 197.203 111.181C194.905 107.244 192.962 101.873 189.246 101.307C185.929 100.801 183.073 104.732 181.932 108.914C180.79 113.095 180.783 117.677 179.866 121.956C176.743 136.531 164.281 143.602 153.007 145.588C141.731 147.571 129.751 146.642 119.65 153.603C117.306 155.218 114.996 157.429 114.029 160.7C113.453 162.649 113.408 164.803 113.509 166.893C115.075 199.406 150.965 210.159 161.079 238.872" fill="#03DAC6"/>
</g>
</svg>
