<svg width="233" height="85" viewBox="0 0 233 85" fill="none" xmlns="http://www.w3.org/2000/svg">
<g clip-path="url(#clip0_25_19)">
<path d="M49.1829 66.9292C46.7959 64.7747 45.6051 61.9514 45.6051 58.4594C45.6051 54.9676 46.7228 52.4409 49.0341 50.4374C51.2695 48.4312 54.5523 47.3175 58.8012 46.9454L67.5997 46.3521C69.4643 46.2038 70.4331 45.163 70.4331 43.3051C70.4331 41.4472 69.8377 40.1098 68.5685 39.1444C67.3019 38.252 65.5103 37.8069 63.3506 37.8069C58.7282 37.8069 56.1192 39.7377 55.5969 43.5263H46.4251C46.8717 39.2927 48.5117 35.9491 51.421 33.6463C54.3277 31.3435 58.2816 30.2298 63.4263 30.2298C68.5712 30.2298 72.6713 31.4918 75.5805 34.0184C78.414 36.545 79.8296 40.3336 79.8296 45.3112V60.9861H82.8876V69.0083H79.0853C74.6117 69.0083 72.2247 66.7783 71.927 62.3964C69.6157 67.5953 65.291 70.1974 58.8797 70.1974C54.7795 70.1974 51.5725 69.0837 49.1882 66.9292H49.1829ZM67.8216 60.0207C69.6105 58.3112 70.5063 56.2321 70.5063 53.7056V52.2198L60.8148 52.9614C57.0124 53.258 55.1477 54.892 55.1477 57.939C55.1477 59.4248 55.67 60.5385 56.6389 61.3556C57.6078 62.1727 59.0258 62.6176 60.8148 62.6176C63.6484 62.6176 65.9595 61.7251 67.8243 60.0181L67.8216 60.0207Z" fill="#CDCDCD"/>
<path d="M87.4319 40.9295C87.4319 37.8824 88.2518 35.5068 89.9676 33.8726C91.6078 32.2386 93.9947 31.4215 97.1991 31.4215H109.426V39.4437H96.9745V69.0108H87.4319V40.9295Z" fill="#CDCDCD"/>
<path d="M118.82 25.9234C117.105 25.9234 115.762 25.403 114.644 24.3622C113.526 23.3968 113.004 22.0594 113.004 20.4982C113.004 18.9369 113.6 17.6749 114.72 16.5612C115.838 15.5204 117.18 15 118.82 15C120.46 15 121.878 15.5204 122.996 16.5612C124.114 17.6749 124.636 18.9395 124.636 20.4982C124.636 22.0568 124.114 23.3942 122.996 24.3622C121.878 25.403 120.536 25.9234 118.82 25.9234ZM114.049 69.0109V31.4215H123.592V69.0109H114.049Z" fill="#CDCDCD"/>
<path d="M131.271 66.9292C128.885 64.7747 127.694 61.9514 127.694 58.4594C127.694 54.9676 128.812 52.4409 131.123 50.4374C133.359 48.4312 136.641 47.3175 140.89 46.9454L149.689 46.3521C151.553 46.2038 152.522 45.163 152.522 43.3051C152.522 41.4472 151.927 40.1098 150.658 39.1444C149.391 38.252 147.599 37.8069 145.439 37.8069C140.818 37.8069 138.208 39.7377 137.686 43.5263H128.514C128.961 39.2927 130.601 35.9491 133.511 33.6463C136.417 31.3435 140.37 30.2298 145.515 30.2298C150.66 30.2298 154.76 31.4918 157.67 34.0184C160.503 36.545 161.919 40.3336 161.919 45.3112V60.9861H164.977V69.0083H161.175C156.7 69.0083 154.314 66.7783 154.016 62.3964C151.705 67.5953 147.381 70.1974 140.968 70.1974C136.869 70.1974 133.661 69.0837 131.277 66.9292H131.271ZM149.913 60.0207C151.702 58.3112 152.598 56.2321 152.598 53.7056V52.2198L142.906 52.9614C139.104 53.258 137.24 54.892 137.24 57.939C137.24 59.4248 137.762 60.5385 138.73 61.3556C139.7 62.1727 141.118 62.6176 142.906 62.6176C145.74 62.6176 148.051 61.7251 149.916 60.0181L149.913 60.0207Z" fill="#CDCDCD"/>
<path d="M195.245 46.9454C195.245 41.2989 192.933 38.4757 188.311 38.4757C185.554 38.4757 183.315 39.4411 181.751 41.3718C180.111 43.378 179.291 46.3495 179.291 50.2864V69.0083H169.748V31.4216H178.397V36.9197C180.857 32.4623 184.884 30.235 190.625 30.235C195.023 30.235 198.527 31.5724 201.064 34.1719C203.524 36.8468 204.79 40.4871 204.79 45.1655V69.0134H195.247V46.9506L195.245 46.9454Z" fill="#CDCDCD"/>
<path d="M227.678 69.0108C223.28 69.0108 219.848 67.8216 217.464 65.5188C215.004 63.2159 213.81 60.0207 213.81 55.8626V39.4436H206.95V31.4214H211.348C213.361 31.4214 214.406 30.4561 214.406 28.4499V19.9802H223.129V31.4214H231.031V39.4436H223.351V58.7586C223.351 60.2444 224.095 60.986 225.661 60.986H232V69.0081H227.675L227.678 69.0108Z" fill="#CDCDCD"/>
<path d="M19.8943 65.3784L2 17.0062H12.5115L26.8646 57.3329L41.1446 17.0062H51.8077L33.7696 65.3965C32.6936 68.2849 29.928 70.2 26.836 70.2C23.7386 70.2 20.9678 68.2744 19.897 65.3784H19.8943Z" fill="#CDCDCD"/>
</g>
<defs>
<clipPath id="clip0_25_19">
<rect width="230" height="55.2" fill="white" transform="translate(2 15)"/>
</clipPath>
</defs>
</svg>
