<svg width="233" height="85" viewBox="0 0 233 85" fill="none" xmlns="http://www.w3.org/2000/svg">
<g clip-path="url(#clip0_25_19)">
<path d="M58.0286 64.1558C55.953 62.2823 54.9175 59.8273 54.9175 56.7908C54.9175 53.7544 55.8894 51.5573 57.8992 49.8151C59.8431 48.0706 62.6977 47.1022 66.3924 46.7786L74.0432 46.2627C75.6646 46.1337 76.5071 45.2287 76.5071 43.6131C76.5071 41.9976 75.9893 40.8346 74.8857 39.9951C73.7843 39.2191 72.2264 38.8321 70.3484 38.8321C66.3289 38.8321 64.0602 40.511 63.606 43.8055H55.6305C56.0189 40.1241 57.445 37.2166 59.9748 35.2142C62.5024 33.2117 65.9405 32.2433 70.4142 32.2433C74.888 32.2433 78.4533 33.3407 80.9831 35.5377C83.447 37.7348 84.6779 41.0292 84.6779 45.3576V58.9879H87.3371V65.9637H84.0307C80.1406 65.9637 78.065 64.0246 77.8061 60.2143C75.7963 64.735 72.0357 66.9977 66.4606 66.9977C62.8952 66.9977 60.1065 66.0293 58.0332 64.1558H58.0286ZM74.2362 58.1484C75.7918 56.6619 76.5707 54.854 76.5707 52.657V51.365L68.1433 52.0099C64.8369 52.2678 63.2154 53.6887 63.2154 56.3383C63.2154 57.6303 63.6696 58.5987 64.5121 59.3092C65.3546 60.0197 66.5877 60.4066 68.1433 60.4066C70.6073 60.4066 72.617 59.6305 74.2385 58.1462L74.2362 58.1484Z" fill="#CDCDCD"/>
<path d="M91.2886 41.5474C91.2886 38.8978 92.0016 36.832 93.4936 35.411C94.9198 33.9901 96.9954 33.2796 99.7818 33.2796H110.414V40.2554H99.5865V65.9659H91.2886V41.5474Z" fill="#CDCDCD"/>
<path d="M118.583 28.4986C117.091 28.4986 115.923 28.0461 114.951 27.141C113.98 26.3016 113.525 25.1386 113.525 23.781C113.525 22.4234 114.043 21.326 115.017 20.3576C115.989 19.4525 117.157 19 118.583 19C120.009 19 121.242 19.4525 122.214 20.3576C123.186 21.326 123.64 22.4257 123.64 23.781C123.64 25.1363 123.186 26.2993 122.214 27.141C121.242 28.0461 120.075 28.4986 118.583 28.4986ZM114.434 65.966V33.2796H122.732V65.966H114.434Z" fill="#CDCDCD"/>
<path d="M129.41 64.1558C127.335 62.2823 126.299 59.8273 126.299 56.7908C126.299 53.7544 127.271 51.5573 129.281 49.8151C131.225 48.0706 134.079 47.1022 137.774 46.7786L145.425 46.2627C147.046 46.1337 147.889 45.2287 147.889 43.6131C147.889 41.9976 147.371 40.8346 146.268 39.9951C145.166 39.2191 143.608 38.8321 141.73 38.8321C137.711 38.8321 135.442 40.511 134.988 43.8055H127.012C127.401 40.1241 128.827 37.2166 131.357 35.2142C133.884 33.2117 137.322 32.2433 141.796 32.2433C146.27 32.2433 149.835 33.3407 152.365 35.5377C154.829 37.7348 156.06 41.0292 156.06 45.3576V58.9879H158.719V65.9637H155.413C151.522 65.9637 149.447 64.0246 149.188 60.2143C147.178 64.735 143.418 66.9977 137.842 66.9977C134.277 66.9977 131.488 66.0293 129.415 64.1558H129.41ZM145.62 58.1484C147.176 56.6619 147.955 54.854 147.955 52.657V51.365L139.527 52.0099C136.221 52.2678 134.6 53.6887 134.6 56.3383C134.6 57.6303 135.054 58.5987 135.896 59.3092C136.739 60.0197 137.972 60.4066 139.527 60.4066C141.991 60.4066 144.001 59.6305 145.623 58.1462L145.62 58.1484Z" fill="#CDCDCD"/>
<path d="M185.039 46.7786C185.039 41.8686 183.029 39.4136 179.01 39.4136C176.612 39.4136 174.665 40.2531 173.305 41.932C171.879 43.6765 171.166 46.2604 171.166 49.6838V65.9637H162.868V33.2796H170.389V38.0606C172.528 34.1846 176.03 32.2478 181.022 32.2478C184.846 32.2478 187.893 33.4108 190.099 35.6712C192.238 37.9972 193.339 41.1627 193.339 45.2309V65.9682H185.041V46.7831L185.039 46.7786Z" fill="#CDCDCD"/>
<path d="M213.242 65.9659C209.417 65.9659 206.433 64.9318 204.36 62.9294C202.221 60.9269 201.183 58.1484 201.183 54.5327V40.2553H195.217V33.2795H199.042C200.792 33.2795 201.701 32.4401 201.701 30.6956V23.3306H209.286V33.2795H216.157V40.2553H209.479V57.051C209.479 58.343 210.126 58.9878 211.488 58.9878H217V65.9636H213.239L213.242 65.9659Z" fill="#CDCDCD"/>
<path d="M32.5603 62.8073L17 20.7445H26.1404L38.6214 55.8112L51.0388 20.7445H60.311L44.6257 62.8231C43.6901 65.3347 41.2852 67 38.5965 67C35.9031 67 33.4937 65.3256 32.5626 62.8073H32.5603Z" fill="#CDCDCD"/>
</g>
<defs>
<clipPath id="clip0_25_19">
<rect width="200" height="48" fill="white" transform="translate(17 19)"/>
</clipPath>
</defs>
</svg>
