<svg width="66" height="24" viewBox="0 0 66 24" fill="none" xmlns="http://www.w3.org/2000/svg">
<g clip-path="url(#clip0_27_29)">
<path d="M14.8215 18.1112C14.1728 17.5257 13.8492 16.7585 13.8492 15.8096C13.8492 14.8608 14.153 14.1742 14.781 13.6297C15.3885 13.0846 16.2806 12.782 17.4352 12.6808L19.826 12.5196C20.3327 12.4793 20.596 12.1965 20.596 11.6916C20.596 11.1868 20.4342 10.8233 20.0893 10.561C19.7451 10.3185 19.2583 10.1975 18.6714 10.1975C17.4153 10.1975 16.7063 10.7222 16.5644 11.7517H14.0721C14.1934 10.6013 14.6391 9.69271 15.4297 9.06696C16.2195 8.44117 17.2939 8.13855 18.692 8.13855C20.09 8.13855 21.2042 8.48149 21.9947 9.16805C22.7647 9.85464 23.1494 10.8841 23.1494 12.2368V16.4962H23.9804V18.6762H22.9471C21.7315 18.6762 21.0828 18.0702 21.0019 16.8795C20.3739 18.2922 19.1987 18.9993 17.4565 18.9993C16.3423 18.9993 15.4708 18.6967 14.8229 18.1112H14.8215ZM19.8863 16.2339C20.3725 15.7694 20.6159 15.2044 20.6159 14.5178V14.1141L17.9823 14.3156C16.9491 14.3962 16.4423 14.8402 16.4423 15.6682C16.4423 16.072 16.5843 16.3746 16.8476 16.5966C17.1108 16.8187 17.4962 16.9396 17.9823 16.9396C18.7523 16.9396 19.3803 16.697 19.8871 16.2332L19.8863 16.2339Z" fill="#282828"/>
<path d="M25.2152 11.0461C25.2152 10.2181 25.438 9.57253 25.9043 9.12846C26.35 8.68443 26.9986 8.4624 27.8693 8.4624H31.192V10.6423H27.8083V18.6769H25.2152V11.0461Z" fill="#282828"/>
<path d="M33.7447 6.96832C33.2784 6.96832 32.9136 6.82691 32.6098 6.54407C32.3061 6.28175 32.1642 5.91831 32.1642 5.49406C32.1642 5.06981 32.326 4.72688 32.6304 4.42425C32.9342 4.14142 33.2991 4 33.7447 4C34.1903 4 34.5756 4.14142 34.8794 4.42425C35.1831 4.72688 35.325 5.07052 35.325 5.49406C35.325 5.9176 35.1831 6.28104 34.8794 6.54407C34.5756 6.82691 34.2109 6.96832 33.7447 6.96832ZM32.4481 18.6769V8.46237H35.0412V18.6769H32.4481Z" fill="#282828"/>
<path d="M37.1282 18.1112C36.4798 17.5257 36.156 16.7585 36.156 15.8096C36.156 14.8608 36.4598 14.1742 37.0879 13.6297C37.6954 13.0846 38.5873 12.782 39.7419 12.6808L42.1329 12.5196C42.6394 12.4793 42.9029 12.1965 42.9029 11.6916C42.9029 11.1868 42.741 10.8233 42.3963 10.561C42.0519 10.3185 41.5651 10.1975 40.9782 10.1975C39.7223 10.1975 39.0132 10.7222 38.8713 11.7517H36.3788C36.5004 10.6013 36.946 9.69271 37.7366 9.06696C38.5263 8.44117 39.6007 8.13855 40.9988 8.13855C42.3969 8.13855 43.511 8.48149 44.3016 9.16805C45.0716 9.85464 45.4563 10.8841 45.4563 12.2368V16.4962H46.2873V18.6762H45.2541C44.0382 18.6762 43.3898 18.0702 43.3088 16.8795C42.6807 18.2922 41.5057 18.9993 39.7632 18.9993C38.6491 18.9993 37.7776 18.6967 37.1298 18.1112H37.1282ZM42.1938 16.2339C42.6801 15.7694 42.9235 15.2044 42.9235 14.5178V14.1141L40.2898 14.3156C39.2566 14.3962 38.7501 14.8402 38.7501 15.6682C38.7501 16.072 38.8919 16.3746 39.1551 16.5966C39.4185 16.8187 39.8038 16.9396 40.2898 16.9396C41.0598 16.9396 41.6879 16.697 42.1948 16.2332L42.1938 16.2339Z" fill="#282828"/>
<path d="M54.5122 12.6808C54.5122 11.1465 53.8841 10.3793 52.6281 10.3793C51.8787 10.3793 51.2703 10.6416 50.8453 11.1663C50.3997 11.7114 50.1769 12.5189 50.1769 13.5887V18.6762H47.5837V8.46239H49.9341V9.95645C50.6025 8.7452 51.6969 8.13995 53.2569 8.13995C54.4519 8.13995 55.4041 8.50339 56.0934 9.20977C56.7619 9.93664 57.1059 10.9259 57.1059 12.1972V18.6776H54.5128V12.6822L54.5122 12.6808Z" fill="#282828"/>
<path d="M63.3257 18.6769C62.1304 18.6769 61.1979 18.3537 60.5501 17.7279C59.8816 17.1022 59.5572 16.2339 59.5572 15.104V10.6423H57.6929V8.46235H58.8882C59.4351 8.46235 59.7191 8.20004 59.7191 7.65489V5.35333H62.0894V8.46235H64.2366V10.6423H62.1497V15.8909C62.1497 16.2947 62.3519 16.4962 62.7776 16.4962H64.5001V18.6761H63.3247L63.3257 18.6769Z" fill="#282828"/>
<path d="M6.8626 17.6898L2 4.54517H4.85639L8.75669 15.5035L12.6371 4.54517H15.5347L10.633 17.6947C10.3407 18.4796 9.58913 19 8.74891 19C7.90722 19 7.15428 18.4768 6.86331 17.6898H6.8626Z" fill="#282828"/>
</g>
<defs>
<clipPath id="clip0_27_29">
<rect width="62.5" height="15" fill="white" transform="translate(2 4)"/>
</clipPath>
</defs>
</svg>
